<svg xmlns="http://www.w3.org/2000/svg" width="118" height="118" viewBox="0 0 118 118">
  <g id="Grupo_9327" data-name="Grupo 9327" transform="translate(-401 -740)">
    <g id="Elipse_554" data-name="Elipse 554" transform="translate(401 740)" fill="#f0f0f0" stroke="#fdac29" stroke-width="2">
      <circle cx="59" cy="59" r="59" stroke="none"/>
      <circle cx="59" cy="59" r="58" fill="none"/>
    </g>
    <g id="Grupo_9286" data-name="Grupo 9286" transform="translate(283.04 612.763)">
      <rect id="Rectángulo_2005" data-name="Rectángulo 2005" width="17.459" height="77.677" transform="translate(168.637 148.74)" fill="#3b5fbf"/>
      <rect id="Rectángulo_2006" data-name="Rectángulo 2006" width="12.445" height="45.674" transform="translate(171.144 178.236)" fill="#60d1d9"/>
      <path id="Trazado_16679" data-name="Trazado 16679" d="M168.951,146.059h18.972a2.392,2.392,0,0,1,2.306,2.456h0a2.392,2.392,0,0,1-2.306,2.456H168.951a2.392,2.392,0,0,1-2.306-2.456h0A2.391,2.391,0,0,1,168.951,146.059Z" transform="translate(-1.071)" fill="#3b5fbf" fill-rule="evenodd"/>
      <rect id="Rectángulo_2007" data-name="Rectángulo 2007" width="30.813" height="4.703" transform="translate(161.96 221.714)" fill="#3b5fbf"/>
      <g id="Grupo_9284" data-name="Grupo 9284" transform="translate(175.875 174.622)">
        <rect id="Rectángulo_2008" data-name="Rectángulo 2008" width="7.713" height="1.35" transform="translate(0 43.554)" fill="#fff"/>
        <rect id="Rectángulo_2009" data-name="Rectángulo 2009" width="7.713" height="1.35" transform="translate(0 38.155)" fill="#fff"/>
        <rect id="Rectángulo_2010" data-name="Rectángulo 2010" width="7.713" height="1.35" transform="translate(0 32.755)" fill="#fff"/>
        <rect id="Rectángulo_2011" data-name="Rectángulo 2011" width="7.713" height="1.35" transform="translate(0 27.356)" fill="#fff"/>
        <rect id="Rectángulo_2012" data-name="Rectángulo 2012" width="7.713" height="1.35" transform="translate(0 21.957)" fill="#fff"/>
        <rect id="Rectángulo_2013" data-name="Rectángulo 2013" width="7.713" height="1.35" transform="translate(0 16.557)" fill="#fff"/>
        <rect id="Rectángulo_2014" data-name="Rectángulo 2014" width="3.857" height="1.35" transform="translate(3.857 40.854)" fill="#fff"/>
        <rect id="Rectángulo_2015" data-name="Rectángulo 2015" width="3.857" height="1.35" transform="translate(3.857 35.455)" fill="#fff"/>
        <rect id="Rectángulo_2016" data-name="Rectángulo 2016" width="3.857" height="1.35" transform="translate(3.857 30.056)" fill="#fff"/>
        <rect id="Rectángulo_2017" data-name="Rectángulo 2017" width="3.857" height="1.35" transform="translate(3.857 24.656)" fill="#fff"/>
        <rect id="Rectángulo_2018" data-name="Rectángulo 2018" width="3.857" height="1.35" transform="translate(3.857 19.257)" fill="#fff"/>
        <rect id="Rectángulo_2019" data-name="Rectángulo 2019" width="3.857" height="1.35" transform="translate(3.857 13.857)" fill="#fff"/>
        <rect id="Rectángulo_2020" data-name="Rectángulo 2020" width="7.713" height="1.35" transform="translate(0 10.799)" fill="#fff"/>
        <rect id="Rectángulo_2021" data-name="Rectángulo 2021" width="7.713" height="1.35" transform="translate(0 5.399)" fill="#fff"/>
        <rect id="Rectángulo_2022" data-name="Rectángulo 2022" width="7.713" height="1.35" transform="translate(0 0)" fill="#fff"/>
        <rect id="Rectángulo_2023" data-name="Rectángulo 2023" width="3.857" height="1.35" transform="translate(3.857 8.099)" fill="#fff"/>
        <rect id="Rectángulo_2024" data-name="Rectángulo 2024" width="3.857" height="1.35" transform="translate(3.857 2.7)" fill="#fff"/>
      </g>
      <g id="Grupo_9285" data-name="Grupo 9285" transform="translate(175.875 152.683)">
        <rect id="Rectángulo_2025" data-name="Rectángulo 2025" width="7.713" height="1.35" transform="translate(0 16.557)" fill="#fff"/>
        <rect id="Rectángulo_2026" data-name="Rectángulo 2026" width="3.857" height="1.35" transform="translate(3.857 19.257)" fill="#fff"/>
        <rect id="Rectángulo_2027" data-name="Rectángulo 2027" width="3.857" height="1.35" transform="translate(3.857 13.857)" fill="#fff"/>
        <rect id="Rectángulo_2028" data-name="Rectángulo 2028" width="7.713" height="1.35" transform="translate(0 10.799)" fill="#fff"/>
        <rect id="Rectángulo_2029" data-name="Rectángulo 2029" width="7.713" height="1.35" transform="translate(0 5.399)" fill="#fff"/>
        <rect id="Rectángulo_2030" data-name="Rectángulo 2030" width="7.713" height="1.35" transform="translate(0 0)" fill="#fff"/>
        <rect id="Rectángulo_2031" data-name="Rectángulo 2031" width="3.857" height="1.35" transform="translate(3.857 8.099)" fill="#fff"/>
        <rect id="Rectángulo_2032" data-name="Rectángulo 2032" width="3.857" height="1.35" transform="translate(3.857 2.7)" fill="#fff"/>
      </g>
    </g>
  </g>
</svg>
