<svg xmlns="http://www.w3.org/2000/svg" width="118" height="118" viewBox="0 0 118 118">
  <g id="Grupo_9331" data-name="Grupo 9331" transform="translate(-401 -1534)">
    <g id="Elipse_557" data-name="Elipse 557" transform="translate(401 1534)" fill="#f0f0f0" stroke="#fdac29" stroke-width="2">
      <circle cx="59" cy="59" r="59" stroke="none"/>
      <circle cx="59" cy="59" r="58" fill="none"/>
    </g>
    <g id="Grupo_9283" data-name="Grupo 9283" transform="translate(0 -46)">
      <g id="Elipse_559" data-name="Elipse 559" transform="translate(419 1620)" fill="#fdac29" stroke="#70ad54" stroke-width="2">
        <circle cx="25.5" cy="25.5" r="25.5" stroke="none"/>
        <circle cx="25.5" cy="25.5" r="24.5" fill="none"/>
      </g>
      <text id="A" transform="translate(437 1650)" fill="#fff" font-size="17" font-family="Montserrat-Bold, Montserrat" font-weight="700"><tspan x="0" y="0">A</tspan></text>
      <g id="Elipse_560" data-name="Elipse 560" transform="translate(463 1629)" fill="#fdac29" stroke="#70ad54" stroke-width="2" opacity="0.69">
        <circle cx="16.5" cy="16.5" r="16.5" stroke="none"/>
        <circle cx="16.5" cy="16.5" r="15.5" fill="none"/>
      </g>
      <text id="B" transform="translate(476 1650)" fill="#fff" font-size="14" font-family="Montserrat-Bold, Montserrat" font-weight="700"><tspan x="0" y="0">B</tspan></text>
      <path id="Trazado_16678" data-name="Trazado 16678" d="M1413.932,693.276a8.15,8.15,0,0,0,8.141-8.141c0-1.151-.347-3.247-3.348-8.124-1.551-2.52-3.079-4.586-3.143-4.673l-1.649-2.225-1.649,2.225c-.064.087-1.593,2.153-3.143,4.673-3,4.878-3.349,6.973-3.349,8.124A8.15,8.15,0,0,0,1413.932,693.276Z" transform="translate(-950.791 926.67)" fill="#2b4e6a"/>
    </g>
  </g>
</svg>
