<svg xmlns="http://www.w3.org/2000/svg" width="758.435" height="562.545" viewBox="0 0 758.435 562.545">
  <g id="Grupo_9333" data-name="Grupo 9333" transform="translate(-581.077 -1724.455)">
    <path id="Trazado_17168" data-name="Trazado 17168" d="M10.98-5.85v-7.29H25.6v-5.67H10.98v-6.84H27.54V-31.5H3.735V0h24.39V-5.85ZM48.15-24.57a10.6,10.6,0,0,0-8.01,3.195V-24.21H33.435V0h7.02V-11.97c0-4.455,2.43-6.525,5.805-6.525,3.1,0,4.9,1.8,4.9,5.715V0h7.02V-13.86C58.185-21.24,53.865-24.57,48.15-24.57ZM78.255-6.12a4.731,4.731,0,0,1-2.835.9c-1.89,0-3.015-1.125-3.015-3.2V-18.27h6.03v-5.4H72.4v-5.895h-7.02v5.895H61.65v5.4h3.735v9.945c0,5.76,3.33,8.685,9.045,8.685a10.032,10.032,0,0,0,5.715-1.53ZM90.81-21.015V-24.21H84.1V0h7.02V-11.43c0-4.635,2.565-6.75,6.435-6.75.54,0,.99.045,1.575.09v-6.48C95.4-24.57,92.52-23.355,90.81-21.015Zm36,9c0-7.785-5.49-12.555-12.6-12.555-7.38,0-12.915,5.22-12.915,12.465C101.3-4.9,106.74.36,115.11.36c4.365,0,7.74-1.35,9.99-3.915l-3.735-4.05a8.207,8.207,0,0,1-6.075,2.34c-3.69,0-6.255-1.845-6.93-4.86h18.315C126.72-10.71,126.81-11.475,126.81-12.015ZM114.255-19.26a5.753,5.753,0,0,1,5.94,5.04H108.27A5.731,5.731,0,0,1,114.255-19.26Zm39.285-.405h-2.565l.495-5.985h13.14V-31.5H145.4l-1.62,17.73h8.055c5.715,0,7.335,1.62,7.335,4.095,0,2.565-2.25,4.1-5.9,4.1a15.16,15.16,0,0,1-8.955-2.835l-2.88,5.58A21.766,21.766,0,0,0,153.45.54c9,0,13.1-4.86,13.1-10.44S162.855-19.665,153.54-19.665ZM173.655.36a4.3,4.3,0,0,0,4.365-4.41,4.2,4.2,0,0,0-4.365-4.32,4.2,4.2,0,0,0-4.365,4.32A4.3,4.3,0,0,0,173.655.36ZM203.31-16.56A7.316,7.316,0,0,0,207-23.04c0-5.535-4.95-9-12.2-9-7.155,0-12.1,3.465-12.1,9a7.276,7.276,0,0,0,3.645,6.48,8.009,8.009,0,0,0-4.77,7.425C181.575-3.2,186.84.54,194.8.54c8.01,0,13.32-3.735,13.32-9.675A7.979,7.979,0,0,0,203.31-16.56ZM194.8-26.685c2.97,0,4.95,1.485,4.95,3.96,0,2.385-1.935,3.87-4.95,3.87-2.97,0-4.86-1.485-4.86-3.87C189.945-25.2,191.88-26.685,194.8-26.685Zm0,21.87c-3.6,0-5.85-1.755-5.85-4.545s2.25-4.5,5.85-4.5c3.645,0,5.94,1.71,5.94,4.5S198.45-4.815,194.8-4.815Zm27.63-5.67h22.5V-14.85h-22.5Zm52.155-9.27a10.632,10.632,0,0,0-7.785,2.79c.225-6.03,3.6-9.135,8.865-9.135a10.374,10.374,0,0,1,5.895,1.575l2.7-5.355a17.008,17.008,0,0,0-8.775-2.16c-9.495,0-16.065,6.075-16.065,16.965C259.425-4.9,264.825.54,273.51.54c6.66,0,11.925-4.05,11.925-10.485C285.435-15.885,280.665-19.755,274.59-19.755ZM273.105-4.9c-3.51,0-5.535-1.98-5.535-4.68,0-2.745,2.25-4.725,5.445-4.725,3.24,0,5.355,1.845,5.355,4.725S276.21-4.9,273.105-4.9ZM292.68.36a4.3,4.3,0,0,0,4.365-4.41,4.2,4.2,0,0,0-4.365-4.32,4.2,4.2,0,0,0-4.365,4.32A4.3,4.3,0,0,0,292.68.36Zm22.815-19.035,7.11-8.1V-31.5h-22.05v5.85h13.41l-6.48,7.335V-13.5h3.33c4.14,0,5.895,1.485,5.895,3.87,0,2.565-2.25,4.05-5.895,4.05a15.3,15.3,0,0,1-9-2.835l-2.835,5.58A21.658,21.658,0,0,0,310.995.54c8.955,0,13.05-4.86,13.05-10.17C324.045-14.265,321.165-17.775,315.495-18.675Z" transform="translate(797 1984)" fill="#7140e2"/>
    <path id="Trazado_17167" data-name="Trazado 17167" d="M10.955.42c7,0,10.4-3.5,10.4-7.595,0-9-14.245-5.88-14.245-10.395,0-1.54,1.295-2.8,4.655-2.8a13.837,13.837,0,0,1,6.79,1.925L20.3-22.75a16.435,16.435,0,0,0-8.5-2.17C4.83-24.92,1.47-21.455,1.47-17.29c0,9.1,14.245,5.95,14.245,10.535,0,1.505-1.365,2.625-4.725,2.625A14.411,14.411,0,0,1,2.9-6.685L.98-2.415C3.15-.735,7.07.42,10.955.42ZM33.81.28c5.985,0,10.325-4.025,10.325-9.695s-4.34-9.7-10.325-9.7-10.36,4.025-10.36,9.7S27.825.28,33.81.28Zm0-4.48c-2.73,0-4.83-1.96-4.83-5.215s2.1-5.215,4.83-5.215S38.6-12.67,38.6-9.415,36.54-4.2,33.81-4.2ZM47.775,0h5.46V-25.97h-5.46ZM71.82-18.83v9.31c0,3.465-1.82,5.075-4.34,5.075-2.415,0-3.815-1.4-3.815-4.55V-18.83h-5.46V-8.19c0,5.81,3.325,8.47,8.05,8.47A7.618,7.618,0,0,0,72.1-2.24V0h5.18V-18.83ZM91.455.28c3.955,0,7.07-1.75,8.435-4.76L95.655-6.79A4.632,4.632,0,0,1,91.42-4.2c-2.765,0-4.935-1.925-4.935-5.215s2.17-5.215,4.935-5.215a4.7,4.7,0,0,1,4.235,2.59l4.235-2.275c-1.365-3.08-4.48-4.8-8.435-4.8-6.125,0-10.5,4.025-10.5,9.7S85.33.28,91.455.28ZM105.77-21.455a3.14,3.14,0,0,0,3.395-3.15c0-1.68-1.365-2.94-3.395-2.94a3.121,3.121,0,0,0-3.395,3.045A3.121,3.121,0,0,0,105.77-21.455ZM103.04,0h5.46V-18.83h-5.46Zm16.24-21.245h4.27l6.335-5.04H124ZM122.535.28c5.985,0,10.325-4.025,10.325-9.695s-4.34-9.7-10.325-9.7-10.36,4.025-10.36,9.7S116.55.28,122.535.28Zm0-4.48c-2.73,0-4.83-1.96-4.83-5.215s2.1-5.215,4.83-5.215,4.795,1.96,4.795,5.215S125.265-4.2,122.535-4.2Zm25.41-14.91a8.244,8.244,0,0,0-6.23,2.485v-2.2H136.5V0h5.46V-9.31c0-3.465,1.89-5.075,4.515-5.075,2.415,0,3.815,1.4,3.815,4.445V0h5.46V-10.78C155.75-16.52,152.39-19.11,147.945-19.11Zm39.9-5.39V-9.625L175.665-24.5h-4.69V0h5.6V-14.875L188.79,0h4.655V-24.5Zm24.535,5.67v9.31c0,3.465-1.82,5.075-4.34,5.075-2.415,0-3.815-1.4-3.815-4.55V-18.83h-5.46V-8.19c0,5.81,3.325,8.47,8.05,8.47a7.618,7.618,0,0,0,5.845-2.52V0h5.18V-18.83ZM233.59-4.76a3.68,3.68,0,0,1-2.2.7,2.2,2.2,0,0,1-2.345-2.485V-14.21h4.69v-4.2h-4.69V-23h-5.46v4.585h-2.9v4.2h2.9v7.735C223.58-2,226.17.28,230.615.28A7.8,7.8,0,0,0,235.06-.91Zm9.765-11.585V-18.83H238.14V0h5.46V-8.89c0-3.6,2-5.25,5.005-5.25.42,0,.77.035,1.225.07v-5.04C246.925-19.11,244.685-18.165,243.355-16.345Zm12.46-5.11a3.14,3.14,0,0,0,3.395-3.15c0-1.68-1.365-2.94-3.395-2.94a3.121,3.121,0,0,0-3.4,3.045A3.121,3.121,0,0,0,255.815-21.455ZM253.085,0h5.46V-18.83h-5.46ZM274.3-4.76a3.68,3.68,0,0,1-2.205.7,2.2,2.2,0,0,1-2.345-2.485V-14.21h4.69v-4.2h-4.69V-23h-5.46v4.585h-2.9v4.2h2.9v7.735c0,4.48,2.59,6.755,7.035,6.755a7.8,7.8,0,0,0,4.445-1.19Zm7.28-16.695a3.14,3.14,0,0,0,3.395-3.15c0-1.68-1.365-2.94-3.395-2.94A3.121,3.121,0,0,0,278.18-24.5,3.121,3.121,0,0,0,281.575-21.455ZM278.845,0h5.46V-18.83h-5.46ZM302.82-18.83,297.43-6.02l-5.215-12.81H286.58L294.49,0h5.635l7.945-18.83Zm14.455-.28a14.475,14.475,0,0,0-8.12,2.275l1.96,3.815a9.054,9.054,0,0,1,5.425-1.75c2.94,0,4.34,1.365,4.34,3.71h-4.34c-5.74,0-8.085,2.31-8.085,5.635,0,3.255,2.625,5.705,7.035,5.705,2.765,0,4.725-.91,5.74-2.625V0h5.11V-10.745C326.34-16.45,323.015-19.11,317.275-19.11Zm-.42,15.715c-1.925,0-3.08-.91-3.08-2.275,0-1.26.805-2.2,3.36-2.2h3.745V-5.95A4.023,4.023,0,0,1,316.855-3.395Z" transform="translate(800 1752)" fill="#94613a"/>
    <path id="Trazado_17169" data-name="Trazado 17169" d="M191.077,19V6.15H193.8v10.6h5.212V19Zm12.094-4.931a4.124,4.124,0,0,0,.479,2.206,1.713,1.713,0,0,0,1.56.747,1.686,1.686,0,0,0,1.542-.743,4.183,4.183,0,0,0,.47-2.21,4.059,4.059,0,0,0-.475-2.188,2.018,2.018,0,0,0-3.1,0A4.055,4.055,0,0,0,203.171,14.069Zm6.794,0a5.28,5.28,0,0,1-1.266,3.753,4.589,4.589,0,0,1-3.524,1.354,4.93,4.93,0,0,1-2.5-.62,4.123,4.123,0,0,1-1.661-1.78,5.981,5.981,0,0,1-.58-2.707,5.251,5.251,0,0,1,1.257-3.744,4.616,4.616,0,0,1,3.533-1.336,4.958,4.958,0,0,1,2.5.615,4.106,4.106,0,0,1,1.661,1.767A5.925,5.925,0,0,1,209.965,14.069Zm9.07,2.013a2.705,2.705,0,0,1-1.05,2.3,5.19,5.19,0,0,1-3.142.791,9.869,9.869,0,0,1-1.828-.145A6.915,6.915,0,0,1,211.6,18.6V16.39a9.345,9.345,0,0,0,1.683.589,6.815,6.815,0,0,0,1.648.237q1.459,0,1.459-.844a.7.7,0,0,0-.193-.514,2.8,2.8,0,0,0-.668-.448q-.475-.25-1.266-.584a7.951,7.951,0,0,1-1.666-.879,2.474,2.474,0,0,1-.773-.927,3.061,3.061,0,0,1-.242-1.288A2.334,2.334,0,0,1,212.6,9.706a4.945,4.945,0,0,1,2.878-.716,8.17,8.17,0,0,1,3.454.773l-.809,1.934q-.738-.316-1.38-.519a4.333,4.333,0,0,0-1.31-.2q-1.187,0-1.187.642a.754.754,0,0,0,.382.624,10.4,10.4,0,0,0,1.674.782,7.778,7.778,0,0,1,1.688.87,2.573,2.573,0,0,1,.791.932A2.863,2.863,0,0,1,219.035,16.082ZM231.2,19.176a3.259,3.259,0,0,1-2.716-1.257h-.141q.141,1.23.141,1.424v3.981H225.8V9.174h2.18l.378,1.274h.123a3.1,3.1,0,0,1,2.786-1.459,3.189,3.189,0,0,1,2.725,1.345,6.219,6.219,0,0,1,.984,3.735,7.376,7.376,0,0,1-.461,2.733,3.834,3.834,0,0,1-1.314,1.767A3.367,3.367,0,0,1,231.2,19.176Zm-.791-8.042a1.693,1.693,0,0,0-1.45.611,3.507,3.507,0,0,0-.475,2.017v.29a4.14,4.14,0,0,0,.47,2.268,1.678,1.678,0,0,0,1.49.686q1.8,0,1.8-2.971a4.242,4.242,0,0,0-.444-2.175A1.515,1.515,0,0,0,230.408,11.134Zm12.27-2.145a4.323,4.323,0,0,1,.905.079l-.2,2.514a3.071,3.071,0,0,0-.791-.088,2.843,2.843,0,0,0-2,.659A2.383,2.383,0,0,0,239.874,14v5h-2.681V9.174h2.03l.4,1.652h.132a3.694,3.694,0,0,1,1.235-1.332A3.045,3.045,0,0,1,242.678,8.989Zm4.465,5.08a4.124,4.124,0,0,0,.479,2.206,1.713,1.713,0,0,0,1.56.747,1.686,1.686,0,0,0,1.542-.743,4.183,4.183,0,0,0,.47-2.21,4.059,4.059,0,0,0-.475-2.188,2.018,2.018,0,0,0-3.1,0A4.055,4.055,0,0,0,247.143,14.069Zm6.794,0a5.28,5.28,0,0,1-1.266,3.753,4.589,4.589,0,0,1-3.524,1.354,4.93,4.93,0,0,1-2.5-.62,4.123,4.123,0,0,1-1.661-1.78,5.981,5.981,0,0,1-.58-2.707,5.251,5.251,0,0,1,1.257-3.744A4.616,4.616,0,0,1,249.2,8.989a4.958,4.958,0,0,1,2.5.615,4.106,4.106,0,0,1,1.661,1.767A5.925,5.925,0,0,1,253.937,14.069Zm5.326,5.106a3.192,3.192,0,0,1-2.72-1.345,6.182,6.182,0,0,1-.989-3.727,6.188,6.188,0,0,1,1.006-3.766,3.269,3.269,0,0,1,2.773-1.349,3.206,3.206,0,0,1,2.83,1.441h.088a10.959,10.959,0,0,1-.2-1.96V5.324h2.689V19h-2.057l-.519-1.274h-.114A3.068,3.068,0,0,1,259.263,19.176Zm.94-2.136a1.817,1.817,0,0,0,1.507-.6,3.477,3.477,0,0,0,.523-2.03v-.29a4.018,4.018,0,0,0-.488-2.268,1.812,1.812,0,0,0-1.586-.686,1.574,1.574,0,0,0-1.393.76,4.056,4.056,0,0,0-.5,2.21,3.844,3.844,0,0,0,.5,2.175A1.637,1.637,0,0,0,260.2,17.04ZM274.5,19l-.36-1.257H274A2.828,2.828,0,0,1,272.78,18.8a4.171,4.171,0,0,1-1.8.374,3.431,3.431,0,0,1-2.61-.927,3.731,3.731,0,0,1-.879-2.667V9.174h2.681v5.739a2.757,2.757,0,0,0,.378,1.6,1.375,1.375,0,0,0,1.2.532,1.81,1.81,0,0,0,1.626-.751,4.661,4.661,0,0,0,.5-2.492V9.174h2.681V19Zm8.859.176q-4.588,0-4.588-5.036a5.372,5.372,0,0,1,1.248-3.828A4.682,4.682,0,0,1,283.6,8.989a6.819,6.819,0,0,1,3.059.668l-.791,2.074q-.633-.255-1.178-.417a3.8,3.8,0,0,0-1.09-.163q-2.092,0-2.092,2.971Q281.508,17,283.6,17a4.769,4.769,0,0,0,1.433-.207,5.173,5.173,0,0,0,1.318-.646v2.294a4.32,4.32,0,0,1-1.314.571A7.389,7.389,0,0,1,283.362,19.176Zm9.4-2.136a5.811,5.811,0,0,0,1.688-.308v2a6.017,6.017,0,0,1-2.461.448,3.012,3.012,0,0,1-2.342-.813,3.539,3.539,0,0,1-.734-2.439V11.187h-1.283V10.053l1.477-.9.773-2.074H291.6V9.174h2.751v2.013H291.6v4.737a1.046,1.046,0,0,0,.321.844A1.266,1.266,0,0,0,292.767,17.04Zm5.81-2.971a4.124,4.124,0,0,0,.479,2.206,1.713,1.713,0,0,0,1.56.747,1.686,1.686,0,0,0,1.542-.743,4.183,4.183,0,0,0,.47-2.21,4.059,4.059,0,0,0-.475-2.188,2.018,2.018,0,0,0-3.1,0A4.055,4.055,0,0,0,298.576,14.069Zm6.794,0a5.28,5.28,0,0,1-1.266,3.753,4.589,4.589,0,0,1-3.524,1.354,4.93,4.93,0,0,1-2.5-.62,4.123,4.123,0,0,1-1.661-1.78,5.981,5.981,0,0,1-.58-2.707,5.251,5.251,0,0,1,1.257-3.744,4.616,4.616,0,0,1,3.533-1.336,4.958,4.958,0,0,1,2.5.615,4.106,4.106,0,0,1,1.661,1.767A5.925,5.925,0,0,1,305.37,14.069Zm9.07,2.013a2.705,2.705,0,0,1-1.05,2.3,5.19,5.19,0,0,1-3.142.791,9.869,9.869,0,0,1-1.828-.145A6.915,6.915,0,0,1,307,18.6V16.39a9.345,9.345,0,0,0,1.683.589,6.815,6.815,0,0,0,1.648.237q1.459,0,1.459-.844a.7.7,0,0,0-.193-.514,2.8,2.8,0,0,0-.668-.448q-.475-.25-1.266-.584A7.951,7.951,0,0,1,308,13.946a2.474,2.474,0,0,1-.773-.927,3.061,3.061,0,0,1-.242-1.288A2.334,2.334,0,0,1,308,9.706a4.945,4.945,0,0,1,2.878-.716,8.17,8.17,0,0,1,3.454.773l-.809,1.934q-.738-.316-1.38-.519a4.333,4.333,0,0,0-1.31-.2q-1.187,0-1.187.642a.754.754,0,0,0,.382.624,10.4,10.4,0,0,0,1.674.782,7.778,7.778,0,0,1,1.688.87,2.573,2.573,0,0,1,.791.932A2.863,2.863,0,0,1,314.44,16.082ZM330.006,19h-2.681V13.261a2.891,2.891,0,0,0-.356-1.6,1.252,1.252,0,0,0-1.121-.532,1.623,1.623,0,0,0-1.494.756,4.958,4.958,0,0,0-.466,2.487V19h-2.681V9.174h2.048l.36,1.257h.149a2.724,2.724,0,0,1,1.143-1.059,3.71,3.71,0,0,1,1.714-.382,3.087,3.087,0,0,1,2.988,1.441h.237a2.655,2.655,0,0,1,1.165-1.063,3.884,3.884,0,0,1,1.736-.378,3.426,3.426,0,0,1,2.527.857,3.763,3.763,0,0,1,.857,2.747V19h-2.689V13.261a2.891,2.891,0,0,0-.356-1.6,1.252,1.252,0,0,0-1.121-.532,1.672,1.672,0,0,0-1.472.7,3.99,3.99,0,0,0-.488,2.232Zm15.117,0-.519-1.336h-.07a3.959,3.959,0,0,1-1.393,1.182,4.5,4.5,0,0,1-1.868.33,3.02,3.02,0,0,1-2.228-.809,3.105,3.105,0,0,1-.813-2.3,2.593,2.593,0,0,1,1.094-2.307,6.341,6.341,0,0,1,3.3-.822l1.705-.053v-.431a1.336,1.336,0,0,0-1.529-1.494,6.969,6.969,0,0,0-2.769.712l-.888-1.811a7.988,7.988,0,0,1,3.762-.888,4.686,4.686,0,0,1,3.032.861A3.183,3.183,0,0,1,347,12.452V19Zm-.791-4.553-1.037.035a3.321,3.321,0,0,0-1.74.422,1.325,1.325,0,0,0-.571,1.178q0,1.134,1.3,1.134a2.06,2.06,0,0,0,1.49-.536,1.883,1.883,0,0,0,.558-1.424Zm-2.979-6.354V7.855a24.745,24.745,0,0,0,2.065-2.646h3.006v.185q-.457.457-1.56,1.358t-1.727,1.34Zm15.258,7.989a2.705,2.705,0,0,1-1.05,2.3,5.19,5.19,0,0,1-3.142.791,9.869,9.869,0,0,1-1.828-.145,6.915,6.915,0,0,1-1.415-.426V16.39a9.345,9.345,0,0,0,1.683.589,6.815,6.815,0,0,0,1.648.237q1.459,0,1.459-.844a.7.7,0,0,0-.193-.514,2.8,2.8,0,0,0-.668-.448q-.475-.25-1.266-.584a7.951,7.951,0,0,1-1.666-.879,2.474,2.474,0,0,1-.773-.927,3.061,3.061,0,0,1-.242-1.288,2.334,2.334,0,0,1,1.015-2.026,4.945,4.945,0,0,1,2.878-.716,8.17,8.17,0,0,1,3.454.773L355.7,11.7q-.738-.316-1.38-.519a4.333,4.333,0,0,0-1.31-.2q-1.187,0-1.187.642a.754.754,0,0,0,.382.624,10.4,10.4,0,0,0,1.674.782,7.778,7.778,0,0,1,1.688.87,2.573,2.573,0,0,1,.791.932A2.863,2.863,0,0,1,356.61,16.082Zm12.252-7.093a4.323,4.323,0,0,1,.905.079l-.2,2.514a3.071,3.071,0,0,0-.791-.088,2.843,2.843,0,0,0-2,.659A2.383,2.383,0,0,0,366.059,14v5h-2.681V9.174h2.03l.4,1.652h.132a3.694,3.694,0,0,1,1.235-1.332A3.045,3.045,0,0,1,368.862,8.989Zm6.4,1.907a1.7,1.7,0,0,0-1.336.541,2.5,2.5,0,0,0-.554,1.534h3.762a2.235,2.235,0,0,0-.519-1.534A1.756,1.756,0,0,0,375.261,10.9Zm.378,8.279a5.072,5.072,0,0,1-3.709-1.31,4.959,4.959,0,0,1-1.336-3.709,5.454,5.454,0,0,1,1.235-3.819,4.4,4.4,0,0,1,3.415-1.349,4.328,4.328,0,0,1,3.243,1.187,4.489,4.489,0,0,1,1.16,3.278v1.3H373.31a2.58,2.58,0,0,0,.677,1.784,2.381,2.381,0,0,0,1.775.642A7.37,7.37,0,0,0,377.44,17a8.4,8.4,0,0,0,1.652-.589v2.074a6.294,6.294,0,0,1-1.5.523A9.476,9.476,0,0,1,375.639,19.176Zm10.178,0q-4.588,0-4.588-5.036a5.372,5.372,0,0,1,1.248-3.828,4.682,4.682,0,0,1,3.577-1.323,6.819,6.819,0,0,1,3.059.668l-.791,2.074q-.633-.255-1.178-.417a3.8,3.8,0,0,0-1.09-.163q-2.092,0-2.092,2.971,0,2.883,2.092,2.883a4.769,4.769,0,0,0,1.433-.207,5.173,5.173,0,0,0,1.318-.646v2.294a4.32,4.32,0,0,1-1.314.571A7.389,7.389,0,0,1,385.816,19.176Zm7.4-5.106a4.124,4.124,0,0,0,.479,2.206,1.713,1.713,0,0,0,1.56.747,1.686,1.686,0,0,0,1.542-.743,4.183,4.183,0,0,0,.47-2.21,4.059,4.059,0,0,0-.475-2.188,2.018,2.018,0,0,0-3.1,0A4.055,4.055,0,0,0,393.217,14.069Zm6.794,0a5.28,5.28,0,0,1-1.266,3.753,4.589,4.589,0,0,1-3.524,1.354,4.93,4.93,0,0,1-2.5-.62,4.123,4.123,0,0,1-1.661-1.78,5.981,5.981,0,0,1-.58-2.707,5.251,5.251,0,0,1,1.257-3.744,4.616,4.616,0,0,1,3.533-1.336,4.958,4.958,0,0,1,2.5.615,4.106,4.106,0,0,1,1.661,1.767A5.925,5.925,0,0,1,400.011,14.069ZM411.023,19h-2.681V13.261a2.891,2.891,0,0,0-.356-1.6,1.252,1.252,0,0,0-1.121-.532,1.623,1.623,0,0,0-1.494.756,4.958,4.958,0,0,0-.466,2.487V19h-2.681V9.174h2.048l.36,1.257h.149a2.724,2.724,0,0,1,1.143-1.059,3.71,3.71,0,0,1,1.714-.382,3.087,3.087,0,0,1,2.988,1.441h.237a2.655,2.655,0,0,1,1.165-1.063,3.884,3.884,0,0,1,1.736-.378,3.426,3.426,0,0,1,2.527.857,3.763,3.763,0,0,1,.857,2.747V19H414.46V13.261a2.891,2.891,0,0,0-.356-1.6,1.252,1.252,0,0,0-1.121-.532,1.672,1.672,0,0,0-1.472.7,3.99,3.99,0,0,0-.488,2.232Zm12.946-8.1a1.7,1.7,0,0,0-1.336.541,2.5,2.5,0,0,0-.554,1.534h3.762a2.235,2.235,0,0,0-.519-1.534A1.756,1.756,0,0,0,423.97,10.9Zm.378,8.279a5.072,5.072,0,0,1-3.709-1.31,4.959,4.959,0,0,1-1.336-3.709,5.454,5.454,0,0,1,1.235-3.819,4.4,4.4,0,0,1,3.415-1.349,4.328,4.328,0,0,1,3.243,1.187,4.489,4.489,0,0,1,1.16,3.278v1.3h-6.337a2.58,2.58,0,0,0,.677,1.784,2.381,2.381,0,0,0,1.775.642A7.37,7.37,0,0,0,426.149,17a8.4,8.4,0,0,0,1.652-.589v2.074a6.294,6.294,0,0,1-1.5.523A9.476,9.476,0,0,1,424.348,19.176ZM439.605,19h-2.681V13.261a2.757,2.757,0,0,0-.378-1.6,1.375,1.375,0,0,0-1.2-.532,1.81,1.81,0,0,0-1.626.751,4.661,4.661,0,0,0-.5,2.492V19h-2.681V9.174h2.048l.36,1.257h.149a2.833,2.833,0,0,1,1.235-1.077,4.2,4.2,0,0,1,1.789-.365,3.436,3.436,0,0,1,2.6.927,3.721,3.721,0,0,1,.888,2.676Zm5.871.176a3.192,3.192,0,0,1-2.72-1.345,6.182,6.182,0,0,1-.989-3.727,6.188,6.188,0,0,1,1.006-3.766,3.269,3.269,0,0,1,2.773-1.349,3.206,3.206,0,0,1,2.83,1.441h.088a10.959,10.959,0,0,1-.2-1.96V5.324h2.689V19H448.9l-.519-1.274h-.114A3.068,3.068,0,0,1,445.477,19.176Zm.94-2.136a1.817,1.817,0,0,0,1.507-.6,3.477,3.477,0,0,0,.523-2.03v-.29a4.018,4.018,0,0,0-.488-2.268,1.812,1.812,0,0,0-1.586-.686,1.574,1.574,0,0,0-1.393.76,4.056,4.056,0,0,0-.5,2.21,3.844,3.844,0,0,0,.5,2.175A1.637,1.637,0,0,0,446.417,17.04ZM460,19l-.519-1.336h-.07a3.959,3.959,0,0,1-1.393,1.182,4.5,4.5,0,0,1-1.868.33,3.02,3.02,0,0,1-2.228-.809,3.105,3.105,0,0,1-.813-2.3,2.593,2.593,0,0,1,1.094-2.307,6.341,6.341,0,0,1,3.3-.822l1.705-.053v-.431a1.336,1.336,0,0,0-1.529-1.494,6.969,6.969,0,0,0-2.769.712l-.888-1.811a7.988,7.988,0,0,1,3.762-.888,4.686,4.686,0,0,1,3.032.861,3.183,3.183,0,0,1,1.055,2.619V19Zm-.791-4.553-1.037.035a3.321,3.321,0,0,0-1.74.422,1.325,1.325,0,0,0-.571,1.178q0,1.134,1.3,1.134a2.06,2.06,0,0,0,1.49-.536,1.883,1.883,0,0,0,.558-1.424Zm8.534,4.729a3.192,3.192,0,0,1-2.72-1.345,6.182,6.182,0,0,1-.989-3.727,6.188,6.188,0,0,1,1.006-3.766,3.269,3.269,0,0,1,2.773-1.349,3.206,3.206,0,0,1,2.83,1.441h.088a10.959,10.959,0,0,1-.2-1.96V5.324h2.689V19h-2.057l-.519-1.274h-.114A3.068,3.068,0,0,1,467.739,19.176Zm.94-2.136a1.817,1.817,0,0,0,1.507-.6,3.477,3.477,0,0,0,.523-2.03v-.29a4.018,4.018,0,0,0-.488-2.268,1.812,1.812,0,0,0-1.586-.686,1.574,1.574,0,0,0-1.393.76,4.056,4.056,0,0,0-.5,2.21,3.844,3.844,0,0,0,.5,2.175A1.637,1.637,0,0,0,468.68,17.04Zm9.475-2.971a4.124,4.124,0,0,0,.479,2.206,1.713,1.713,0,0,0,1.56.747,1.686,1.686,0,0,0,1.542-.743,4.183,4.183,0,0,0,.47-2.21,4.059,4.059,0,0,0-.475-2.188,2.018,2.018,0,0,0-3.1,0A4.055,4.055,0,0,0,478.154,14.069Zm6.794,0a5.28,5.28,0,0,1-1.266,3.753,4.589,4.589,0,0,1-3.524,1.354,4.93,4.93,0,0,1-2.5-.62A4.123,4.123,0,0,1,476,16.776a5.981,5.981,0,0,1-.58-2.707,5.251,5.251,0,0,1,1.257-3.744,4.616,4.616,0,0,1,3.533-1.336,4.958,4.958,0,0,1,2.5.615,4.106,4.106,0,0,1,1.661,1.767A5.925,5.925,0,0,1,484.948,14.069Zm9.07,2.013a2.705,2.705,0,0,1-1.05,2.3,5.19,5.19,0,0,1-3.142.791A9.869,9.869,0,0,1,488,19.031a6.915,6.915,0,0,1-1.415-.426V16.39a9.345,9.345,0,0,0,1.683.589,6.815,6.815,0,0,0,1.648.237q1.459,0,1.459-.844a.7.7,0,0,0-.193-.514,2.8,2.8,0,0,0-.668-.448q-.475-.25-1.266-.584a7.951,7.951,0,0,1-1.666-.879,2.474,2.474,0,0,1-.773-.927,3.061,3.061,0,0,1-.242-1.288,2.334,2.334,0,0,1,1.015-2.026,4.945,4.945,0,0,1,2.878-.716,8.17,8.17,0,0,1,3.454.773L493.1,11.7q-.738-.316-1.38-.519a4.333,4.333,0,0,0-1.31-.2q-1.187,0-1.187.642a.754.754,0,0,0,.382.624,10.4,10.4,0,0,0,1.674.782,7.778,7.778,0,0,1,1.688.87,2.573,2.573,0,0,1,.791.932A2.863,2.863,0,0,1,494.019,16.082Zm12.164,3.094a3.259,3.259,0,0,1-2.716-1.257h-.141q.141,1.23.141,1.424v3.981h-2.681V9.174h2.18l.378,1.274h.123a3.1,3.1,0,0,1,2.786-1.459,3.189,3.189,0,0,1,2.725,1.345,6.219,6.219,0,0,1,.984,3.735A7.376,7.376,0,0,1,509.5,16.8a3.834,3.834,0,0,1-1.314,1.767A3.367,3.367,0,0,1,506.183,19.176Zm-.791-8.042a1.693,1.693,0,0,0-1.45.611,3.507,3.507,0,0,0-.475,2.017v.29a4.14,4.14,0,0,0,.47,2.268,1.678,1.678,0,0,0,1.49.686q1.8,0,1.8-2.971a4.242,4.242,0,0,0-.444-2.175A1.515,1.515,0,0,0,505.392,11.134ZM518.417,19l-.519-1.336h-.07a3.959,3.959,0,0,1-1.393,1.182,4.5,4.5,0,0,1-1.868.33,3.02,3.02,0,0,1-2.228-.809,3.105,3.105,0,0,1-.813-2.3,2.593,2.593,0,0,1,1.094-2.307,6.341,6.341,0,0,1,3.3-.822l1.705-.053v-.431a1.336,1.336,0,0,0-1.529-1.494,6.969,6.969,0,0,0-2.769.712l-.888-1.811a7.988,7.988,0,0,1,3.762-.888,4.686,4.686,0,0,1,3.032.861,3.183,3.183,0,0,1,1.055,2.619V19Zm-.791-4.553-1.037.035a3.321,3.321,0,0,0-1.74.422,1.325,1.325,0,0,0-.571,1.178q0,1.134,1.3,1.134a2.06,2.06,0,0,0,1.49-.536,1.883,1.883,0,0,0,.558-1.424Zm10.907-5.458a4.323,4.323,0,0,1,.905.079l-.2,2.514a3.071,3.071,0,0,0-.791-.088,2.843,2.843,0,0,0-2,.659A2.383,2.383,0,0,0,525.729,14v5h-2.681V9.174h2.03l.4,1.652h.132a3.694,3.694,0,0,1,1.235-1.332A3.045,3.045,0,0,1,528.533,8.989ZM537.1,19l-.519-1.336h-.07a3.959,3.959,0,0,1-1.393,1.182,4.5,4.5,0,0,1-1.868.33,3.02,3.02,0,0,1-2.228-.809,3.105,3.105,0,0,1-.813-2.3,2.593,2.593,0,0,1,1.094-2.307,6.341,6.341,0,0,1,3.3-.822l1.705-.053v-.431a1.336,1.336,0,0,0-1.529-1.494,6.969,6.969,0,0,0-2.769.712l-.888-1.811a7.988,7.988,0,0,1,3.762-.888,4.686,4.686,0,0,1,3.032.861,3.183,3.183,0,0,1,1.055,2.619V19Zm-.791-4.553-1.037.035a3.321,3.321,0,0,0-1.74.422,1.325,1.325,0,0,0-.571,1.178q0,1.134,1.3,1.134a2.06,2.06,0,0,0,1.49-.536,1.883,1.883,0,0,0,.558-1.424ZM549.091,19H546.41V5.324h2.681Zm9.053,0-.519-1.336h-.07a3.959,3.959,0,0,1-1.393,1.182,4.5,4.5,0,0,1-1.868.33,3.02,3.02,0,0,1-2.228-.809,3.105,3.105,0,0,1-.813-2.3,2.593,2.593,0,0,1,1.094-2.307,6.341,6.341,0,0,1,3.3-.822l1.705-.053v-.431a1.336,1.336,0,0,0-1.529-1.494,6.969,6.969,0,0,0-2.769.712l-.888-1.811a7.988,7.988,0,0,1,3.762-.888,4.686,4.686,0,0,1,3.032.861,3.183,3.183,0,0,1,1.055,2.619V19Zm-.791-4.553-1.037.035a3.321,3.321,0,0,0-1.74.422A1.325,1.325,0,0,0,554,16.082q0,1.134,1.3,1.134a2.06,2.06,0,0,0,1.49-.536,1.883,1.883,0,0,0,.558-1.424ZM573.691,19l-.519-1.336h-.07a3.959,3.959,0,0,1-1.393,1.182,4.5,4.5,0,0,1-1.868.33,3.02,3.02,0,0,1-2.228-.809,3.105,3.105,0,0,1-.813-2.3,2.593,2.593,0,0,1,1.094-2.307,6.341,6.341,0,0,1,3.3-.822l1.705-.053v-.431a1.336,1.336,0,0,0-1.529-1.494,6.969,6.969,0,0,0-2.769.712l-.888-1.811a7.988,7.988,0,0,1,3.762-.888,4.686,4.686,0,0,1,3.032.861,3.183,3.183,0,0,1,1.055,2.619V19Zm-.791-4.553-1.037.035a3.321,3.321,0,0,0-1.74.422,1.325,1.325,0,0,0-.571,1.178q0,1.134,1.3,1.134a2.06,2.06,0,0,0,1.49-.536,1.883,1.883,0,0,0,.558-1.424Zm9.413,4.729q-4.588,0-4.588-5.036a5.372,5.372,0,0,1,1.248-3.828,4.682,4.682,0,0,1,3.577-1.323,6.819,6.819,0,0,1,3.059.668l-.791,2.074q-.633-.255-1.178-.417a3.8,3.8,0,0,0-1.09-.163q-2.092,0-2.092,2.971,0,2.883,2.092,2.883a4.769,4.769,0,0,0,1.433-.207,5.173,5.173,0,0,0,1.318-.646v2.294a4.32,4.32,0,0,1-1.314.571A7.389,7.389,0,0,1,582.313,19.176Zm5.15-12.542q0-1.31,1.459-1.31t1.459,1.31a1.277,1.277,0,0,1-.365.971,1.533,1.533,0,0,1-1.094.347Q587.464,7.952,587.464,6.634ZM590.259,19h-2.681V9.174h2.681Zm5.924.176a3.192,3.192,0,0,1-2.72-1.345,6.182,6.182,0,0,1-.989-3.727,6.188,6.188,0,0,1,1.006-3.766,3.269,3.269,0,0,1,2.773-1.349,3.206,3.206,0,0,1,2.83,1.441h.088a10.959,10.959,0,0,1-.2-1.96V5.324h2.689V19H599.6l-.519-1.274h-.114A3.068,3.068,0,0,1,596.183,19.176Zm.94-2.136a1.817,1.817,0,0,0,1.507-.6,3.477,3.477,0,0,0,.523-2.03v-.29a4.018,4.018,0,0,0-.488-2.268,1.812,1.812,0,0,0-1.586-.686,1.574,1.574,0,0,0-1.393.76,4.056,4.056,0,0,0-.5,2.21,3.844,3.844,0,0,0,.5,2.175A1.637,1.637,0,0,0,597.123,17.04Zm7.225-10.406q0-1.31,1.459-1.31t1.459,1.31a1.277,1.277,0,0,1-.365.971,1.533,1.533,0,0,1-1.094.347Q604.348,7.952,604.348,6.634ZM607.143,19h-2.681V9.174h2.681Zm8.244-7.813h-2.32V19h-2.681V11.187h-1.477V9.895l1.477-.721V8.453A3.219,3.219,0,0,1,611.212,6a3.786,3.786,0,0,1,2.646-.773,6.885,6.885,0,0,1,2.47.413l-.686,1.969a5,5,0,0,0-1.494-.255.967.967,0,0,0-.826.338,1.4,1.4,0,0,0-.255.866v.615h2.32Zm1.424-4.553q0-1.31,1.459-1.31t1.459,1.31a1.277,1.277,0,0,1-.365.971,1.533,1.533,0,0,1-1.094.347Q616.811,7.952,616.811,6.634ZM619.605,19h-2.681V9.174h2.681Zm6.794.176q-4.588,0-4.588-5.036a5.372,5.372,0,0,1,1.248-3.828,4.682,4.682,0,0,1,3.577-1.323,6.819,6.819,0,0,1,3.059.668l-.791,2.074q-.633-.255-1.178-.417a3.8,3.8,0,0,0-1.09-.163q-2.092,0-2.092,2.971,0,2.883,2.092,2.883a4.769,4.769,0,0,0,1.433-.207,5.173,5.173,0,0,0,1.318-.646v2.294a4.32,4.32,0,0,1-1.314.571A7.389,7.389,0,0,1,626.4,19.176ZM637.9,19l-.519-1.336h-.07a3.959,3.959,0,0,1-1.393,1.182,4.5,4.5,0,0,1-1.868.33,3.02,3.02,0,0,1-2.228-.809,3.105,3.105,0,0,1-.813-2.3,2.593,2.593,0,0,1,1.094-2.307,6.341,6.341,0,0,1,3.3-.822l1.705-.053v-.431a1.336,1.336,0,0,0-1.529-1.494,6.969,6.969,0,0,0-2.769.712l-.888-1.811a7.988,7.988,0,0,1,3.762-.888,4.686,4.686,0,0,1,3.032.861,3.183,3.183,0,0,1,1.055,2.619V19Zm-.791-4.553-1.037.035a3.321,3.321,0,0,0-1.74.422,1.325,1.325,0,0,0-.571,1.178q0,1.134,1.3,1.134a2.06,2.06,0,0,0,1.49-.536,1.883,1.883,0,0,0,.558-1.424Zm9.413,4.729q-4.588,0-4.588-5.036a5.372,5.372,0,0,1,1.248-3.828,4.682,4.682,0,0,1,3.577-1.323,6.819,6.819,0,0,1,3.059.668l-.791,2.074q-.633-.255-1.178-.417a3.8,3.8,0,0,0-1.09-.163q-2.092,0-2.092,2.971,0,2.883,2.092,2.883A4.769,4.769,0,0,0,648.2,16.8a5.173,5.173,0,0,0,1.318-.646v2.294a4.32,4.32,0,0,1-1.314.571A7.389,7.389,0,0,1,646.526,19.176Zm5.15-12.542q0-1.31,1.459-1.31t1.459,1.31a1.277,1.277,0,0,1-.365.971,1.533,1.533,0,0,1-1.094.347Q651.677,7.952,651.677,6.634ZM654.472,19h-2.681V9.174h2.681Zm4.948-4.931a4.124,4.124,0,0,0,.479,2.206,1.713,1.713,0,0,0,1.56.747A1.686,1.686,0,0,0,663,16.28a4.183,4.183,0,0,0,.47-2.21A4.059,4.059,0,0,0,663,11.881a2.018,2.018,0,0,0-3.1,0A4.055,4.055,0,0,0,659.42,14.069Zm6.794,0a5.28,5.28,0,0,1-1.266,3.753,4.589,4.589,0,0,1-3.524,1.354,4.93,4.93,0,0,1-2.5-.62,4.123,4.123,0,0,1-1.661-1.78,5.981,5.981,0,0,1-.58-2.707,5.251,5.251,0,0,1,1.257-3.744,4.616,4.616,0,0,1,3.533-1.336,4.958,4.958,0,0,1,2.5.615,4.106,4.106,0,0,1,1.661,1.767A5.925,5.925,0,0,1,666.214,14.069Zm-6.231-5.977V7.855a24.745,24.745,0,0,0,2.065-2.646h3.006v.185q-.457.457-1.56,1.358t-1.727,1.34ZM677.5,19h-2.681V13.261a2.757,2.757,0,0,0-.378-1.6,1.375,1.375,0,0,0-1.2-.532,1.81,1.81,0,0,0-1.626.751,4.661,4.661,0,0,0-.5,2.492V19h-2.681V9.174h2.048l.36,1.257h.149a2.833,2.833,0,0,1,1.235-1.077,4.2,4.2,0,0,1,1.789-.365,3.436,3.436,0,0,1,2.6.927,3.721,3.721,0,0,1,.888,2.676Zm10.547.176a3.192,3.192,0,0,1-2.72-1.345,6.182,6.182,0,0,1-.989-3.727,6.188,6.188,0,0,1,1.006-3.766,3.269,3.269,0,0,1,2.773-1.349,3.206,3.206,0,0,1,2.83,1.441h.088a10.959,10.959,0,0,1-.2-1.96V5.324h2.689V19h-2.057l-.519-1.274h-.114A3.068,3.068,0,0,1,688.046,19.176Zm.94-2.136a1.817,1.817,0,0,0,1.507-.6,3.477,3.477,0,0,0,.523-2.03v-.29a4.018,4.018,0,0,0-.488-2.268,1.812,1.812,0,0,0-1.586-.686,1.574,1.574,0,0,0-1.393.76,4.056,4.056,0,0,0-.5,2.21,3.844,3.844,0,0,0,.5,2.175A1.637,1.637,0,0,0,688.986,17.04ZM700.395,10.9a1.7,1.7,0,0,0-1.336.541,2.5,2.5,0,0,0-.554,1.534h3.762a2.235,2.235,0,0,0-.519-1.534A1.756,1.756,0,0,0,700.395,10.9Zm.378,8.279a5.072,5.072,0,0,1-3.709-1.31,4.959,4.959,0,0,1-1.336-3.709,5.454,5.454,0,0,1,1.235-3.819,4.4,4.4,0,0,1,3.415-1.349,4.328,4.328,0,0,1,3.243,1.187,4.489,4.489,0,0,1,1.16,3.278v1.3h-6.337a2.58,2.58,0,0,0,.677,1.784,2.381,2.381,0,0,0,1.775.642A7.37,7.37,0,0,0,702.574,17a8.4,8.4,0,0,0,1.652-.589v2.074a6.294,6.294,0,0,1-1.5.523A9.476,9.476,0,0,1,700.772,19.176ZM718.6,19l-.36-1.257H718.1a2.828,2.828,0,0,1-1.222,1.059,4.171,4.171,0,0,1-1.8.374,3.431,3.431,0,0,1-2.61-.927,3.731,3.731,0,0,1-.879-2.667V9.174h2.681v5.739a2.757,2.757,0,0,0,.378,1.6,1.375,1.375,0,0,0,1.2.532,1.81,1.81,0,0,0,1.626-.751,4.661,4.661,0,0,0,.5-2.492V9.174h2.681V19Zm13.939,0h-2.681V13.261a2.757,2.757,0,0,0-.378-1.6,1.375,1.375,0,0,0-1.2-.532,1.81,1.81,0,0,0-1.626.751,4.661,4.661,0,0,0-.5,2.492V19h-2.681V9.174h2.048l.36,1.257h.149a2.833,2.833,0,0,1,1.235-1.077,4.2,4.2,0,0,1,1.789-.365,3.436,3.436,0,0,1,2.6.927,3.721,3.721,0,0,1,.888,2.676Zm9,0-.519-1.336h-.07a3.959,3.959,0,0,1-1.393,1.182,4.5,4.5,0,0,1-1.868.33,3.02,3.02,0,0,1-2.228-.809,3.105,3.105,0,0,1-.813-2.3,2.593,2.593,0,0,1,1.094-2.307,6.341,6.341,0,0,1,3.3-.822l1.705-.053v-.431a1.336,1.336,0,0,0-1.529-1.494,6.969,6.969,0,0,0-2.769.712l-.888-1.811a7.988,7.988,0,0,1,3.762-.888,4.686,4.686,0,0,1,3.032.861,3.183,3.183,0,0,1,1.055,2.619V19Zm-.791-4.553-1.037.035a3.321,3.321,0,0,0-1.74.422,1.325,1.325,0,0,0-.571,1.178q0,1.134,1.3,1.134a2.06,2.06,0,0,0,1.49-.536,1.883,1.883,0,0,0,.558-1.424ZM757.7,16.082a2.705,2.705,0,0,1-1.05,2.3,5.19,5.19,0,0,1-3.142.791,9.869,9.869,0,0,1-1.828-.145,6.915,6.915,0,0,1-1.415-.426V16.39a9.345,9.345,0,0,0,1.683.589,6.815,6.815,0,0,0,1.648.237q1.459,0,1.459-.844a.7.7,0,0,0-.193-.514,2.8,2.8,0,0,0-.668-.448q-.475-.25-1.266-.584a7.951,7.951,0,0,1-1.666-.879,2.474,2.474,0,0,1-.773-.927,3.061,3.061,0,0,1-.242-1.288,2.334,2.334,0,0,1,1.015-2.026,4.945,4.945,0,0,1,2.878-.716,8.17,8.17,0,0,1,3.454.773l-.809,1.934q-.738-.316-1.38-.519a4.333,4.333,0,0,0-1.31-.2q-1.187,0-1.187.642a.754.754,0,0,0,.382.624,10.4,10.4,0,0,0,1.674.782,7.778,7.778,0,0,1,1.688.87,2.573,2.573,0,0,1,.791.932A2.863,2.863,0,0,1,757.7,16.082Zm4.228-2.013a4.124,4.124,0,0,0,.479,2.206,1.713,1.713,0,0,0,1.56.747,1.686,1.686,0,0,0,1.542-.743,4.183,4.183,0,0,0,.47-2.21,4.059,4.059,0,0,0-.475-2.188,2.018,2.018,0,0,0-3.1,0A4.055,4.055,0,0,0,761.927,14.069Zm6.794,0a5.28,5.28,0,0,1-1.266,3.753,4.589,4.589,0,0,1-3.524,1.354,4.93,4.93,0,0,1-2.5-.62,4.123,4.123,0,0,1-1.661-1.78,5.981,5.981,0,0,1-.58-2.707,5.251,5.251,0,0,1,1.257-3.744,4.616,4.616,0,0,1,3.533-1.336,4.958,4.958,0,0,1,2.5.615,4.106,4.106,0,0,1,1.661,1.767A5.925,5.925,0,0,1,768.721,14.069Zm4.9,4.931h-2.681V5.324h2.681Zm9.773,0-.36-1.257h-.141a2.828,2.828,0,0,1-1.222,1.059,4.171,4.171,0,0,1-1.8.374,3.431,3.431,0,0,1-2.61-.927,3.731,3.731,0,0,1-.879-2.667V9.174h2.681v5.739a2.757,2.757,0,0,0,.378,1.6,1.375,1.375,0,0,0,1.2.532,1.81,1.81,0,0,0,1.626-.751,4.661,4.661,0,0,0,.5-2.492V9.174h2.681V19Zm8.859.176q-4.588,0-4.588-5.036a5.372,5.372,0,0,1,1.248-3.828,4.682,4.682,0,0,1,3.577-1.323,6.819,6.819,0,0,1,3.059.668l-.791,2.074q-.633-.255-1.178-.417a3.8,3.8,0,0,0-1.09-.163q-2.092,0-2.092,2.971,0,2.883,2.092,2.883a4.769,4.769,0,0,0,1.433-.207,5.173,5.173,0,0,0,1.318-.646v2.294a4.32,4.32,0,0,1-1.314.571A7.389,7.389,0,0,1,792.249,19.176ZM797.4,6.634q0-1.31,1.459-1.31t1.459,1.31a1.277,1.277,0,0,1-.365.971,1.533,1.533,0,0,1-1.094.347Q797.4,7.952,797.4,6.634ZM800.194,19h-2.681V9.174h2.681Zm4.948-4.931a4.124,4.124,0,0,0,.479,2.206,1.713,1.713,0,0,0,1.56.747,1.686,1.686,0,0,0,1.542-.743,4.183,4.183,0,0,0,.47-2.21,4.059,4.059,0,0,0-.475-2.188,2.018,2.018,0,0,0-3.1,0A4.055,4.055,0,0,0,805.143,14.069Zm6.794,0a5.28,5.28,0,0,1-1.266,3.753,4.589,4.589,0,0,1-3.524,1.354,4.93,4.93,0,0,1-2.5-.62,4.123,4.123,0,0,1-1.661-1.78,5.981,5.981,0,0,1-.58-2.707,5.251,5.251,0,0,1,1.257-3.744A4.616,4.616,0,0,1,807.2,8.989a4.958,4.958,0,0,1,2.5.615,4.106,4.106,0,0,1,1.661,1.767A5.925,5.925,0,0,1,811.937,14.069Zm-6.231-5.977V7.855a24.745,24.745,0,0,0,2.065-2.646h3.006v.185q-.457.457-1.56,1.358t-1.727,1.34ZM823.222,19h-2.681V13.261a2.757,2.757,0,0,0-.378-1.6,1.375,1.375,0,0,0-1.2-.532,1.81,1.81,0,0,0-1.626.751,4.661,4.661,0,0,0-.5,2.492V19h-2.681V9.174H816.2l.36,1.257h.149a2.833,2.833,0,0,1,1.235-1.077,4.2,4.2,0,0,1,1.789-.365,3.436,3.436,0,0,1,2.6.927,3.721,3.721,0,0,1,.888,2.676Zm16.506,0h-2.681V13.261a2.757,2.757,0,0,0-.378-1.6,1.375,1.375,0,0,0-1.2-.532,1.81,1.81,0,0,0-1.626.751,4.661,4.661,0,0,0-.5,2.492V19h-2.681V9.174h2.048l.36,1.257h.149a2.833,2.833,0,0,1,1.235-1.077,4.2,4.2,0,0,1,1.789-.365,3.436,3.436,0,0,1,2.6.927,3.721,3.721,0,0,1,.888,2.676Zm9.721,0-.36-1.257h-.141a2.828,2.828,0,0,1-1.222,1.059,4.171,4.171,0,0,1-1.8.374,3.431,3.431,0,0,1-2.61-.927,3.731,3.731,0,0,1-.879-2.667V9.174h2.681v5.739a2.757,2.757,0,0,0,.378,1.6,1.375,1.375,0,0,0,1.2.532,1.81,1.81,0,0,0,1.626-.751,4.661,4.661,0,0,0,.5-2.492V9.174H851.5V19Zm9.009-1.96a5.811,5.811,0,0,0,1.688-.308v2a6.017,6.017,0,0,1-2.461.448,3.012,3.012,0,0,1-2.342-.813,3.539,3.539,0,0,1-.734-2.439V11.187h-1.283V10.053l1.477-.9.773-2.074h1.714V9.174h2.751v2.013h-2.751v4.737a1.046,1.046,0,0,0,.321.844A1.266,1.266,0,0,0,858.457,17.04Zm9.158-8.051a4.323,4.323,0,0,1,.905.079l-.2,2.514a3.071,3.071,0,0,0-.791-.088,2.843,2.843,0,0,0-2,.659A2.383,2.383,0,0,0,864.812,14v5h-2.681V9.174h2.03l.4,1.652h.132a3.694,3.694,0,0,1,1.235-1.332A3.045,3.045,0,0,1,867.615,8.989Zm2.575-2.355q0-1.31,1.459-1.31t1.459,1.31a1.277,1.277,0,0,1-.365.971,1.533,1.533,0,0,1-1.094.347Q870.19,7.952,870.19,6.634ZM872.985,19H870.3V9.174h2.681Zm6.952-1.96a5.811,5.811,0,0,0,1.688-.308v2a6.017,6.017,0,0,1-2.461.448,3.012,3.012,0,0,1-2.342-.813,3.539,3.539,0,0,1-.734-2.439V11.187H874.8V10.053l1.477-.9.773-2.074h1.714V9.174h2.751v2.013h-2.751v4.737a1.046,1.046,0,0,0,.321.844A1.266,1.266,0,0,0,879.938,17.04ZM883.5,6.634q0-1.31,1.459-1.31t1.459,1.31a1.277,1.277,0,0,1-.365.971,1.533,1.533,0,0,1-1.094.347Q883.5,7.952,883.5,6.634ZM886.292,19h-2.681V9.174h2.681Zm5.15,0L887.7,9.174h2.8l1.9,5.6a9.99,9.99,0,0,1,.4,2.013h.053a8.752,8.752,0,0,1,.4-2.013l1.89-5.6h2.8L894.193,19Zm14.142,0-.519-1.336H905a3.959,3.959,0,0,1-1.393,1.182,4.5,4.5,0,0,1-1.868.33,3.02,3.02,0,0,1-2.228-.809,3.105,3.105,0,0,1-.813-2.3,2.593,2.593,0,0,1,1.094-2.307,6.341,6.341,0,0,1,3.3-.822l1.705-.053v-.431a1.336,1.336,0,0,0-1.529-1.494,6.969,6.969,0,0,0-2.769.712l-.888-1.811a7.988,7.988,0,0,1,3.762-.888,4.686,4.686,0,0,1,3.032.861,3.183,3.183,0,0,1,1.055,2.619V19Zm-.791-4.553-1.037.035a3.321,3.321,0,0,0-1.74.422,1.325,1.325,0,0,0-.571,1.178q0,1.134,1.3,1.134a2.06,2.06,0,0,0,1.49-.536,1.883,1.883,0,0,0,.558-1.424Zm16.954,1.635a2.705,2.705,0,0,1-1.05,2.3,5.19,5.19,0,0,1-3.142.791,9.869,9.869,0,0,1-1.828-.145,6.915,6.915,0,0,1-1.415-.426V16.39a9.345,9.345,0,0,0,1.683.589,6.815,6.815,0,0,0,1.648.237q1.459,0,1.459-.844a.7.7,0,0,0-.193-.514,2.8,2.8,0,0,0-.668-.448q-.475-.25-1.266-.584a7.951,7.951,0,0,1-1.666-.879,2.474,2.474,0,0,1-.773-.927,3.061,3.061,0,0,1-.242-1.288,2.334,2.334,0,0,1,1.015-2.026,4.945,4.945,0,0,1,2.878-.716,8.17,8.17,0,0,1,3.454.773l-.809,1.934q-.738-.316-1.38-.519a4.333,4.333,0,0,0-1.31-.2q-1.187,0-1.187.642a.754.754,0,0,0,.382.624,10.4,10.4,0,0,0,1.674.782,7.778,7.778,0,0,1,1.688.87,2.573,2.573,0,0,1,.791.932A2.863,2.863,0,0,1,921.747,16.082Zm4.228-2.013a4.124,4.124,0,0,0,.479,2.206,1.713,1.713,0,0,0,1.56.747,1.686,1.686,0,0,0,1.542-.743,4.183,4.183,0,0,0,.47-2.21,4.059,4.059,0,0,0-.475-2.188,2.018,2.018,0,0,0-3.1,0A4.055,4.055,0,0,0,925.975,14.069Zm6.794,0a5.28,5.28,0,0,1-1.266,3.753,4.589,4.589,0,0,1-3.524,1.354,4.93,4.93,0,0,1-2.5-.62,4.123,4.123,0,0,1-1.661-1.78,5.981,5.981,0,0,1-.58-2.707,5.251,5.251,0,0,1,1.257-3.744,4.616,4.616,0,0,1,3.533-1.336,4.958,4.958,0,0,1,2.5.615,4.106,4.106,0,0,1,1.661,1.767A5.925,5.925,0,0,1,932.769,14.069ZM944.054,19h-2.681V13.261a2.757,2.757,0,0,0-.378-1.6,1.375,1.375,0,0,0-1.2-.532,1.81,1.81,0,0,0-1.626.751,4.661,4.661,0,0,0-.5,2.492V19h-2.681V9.174h2.048l.36,1.257h.149a2.833,2.833,0,0,1,1.235-1.077,4.2,4.2,0,0,1,1.789-.365,3.436,3.436,0,0,1,2.6.927,3.721,3.721,0,0,1,.888,2.676Zm2.382-1.257a1.473,1.473,0,0,1,.4-1.116,1.6,1.6,0,0,1,1.151-.378,1.558,1.558,0,0,1,1.129.387,1.708,1.708,0,0,1,0,2.2,1.53,1.53,0,0,1-1.125.4,1.576,1.576,0,0,1-1.143-.391A1.463,1.463,0,0,1,946.436,17.743Zm0-7.26a1.473,1.473,0,0,1,.4-1.116,1.6,1.6,0,0,1,1.151-.378,1.558,1.558,0,0,1,1.129.387,1.47,1.47,0,0,1,.4,1.107,1.455,1.455,0,0,1-.409,1.1,1.554,1.554,0,0,1-1.121.391,1.587,1.587,0,0,1-1.143-.387A1.461,1.461,0,0,1,946.436,10.483Z" transform="translate(390 2020)" fill="#00223d"/>
    <rect id="Rectángulo_2011" data-name="Rectángulo 2011" width="379" height="60" rx="4" transform="translate(771 2089)" fill="#70ad54"/>
    <path id="Trazado_17170" data-name="Trazado 17170" d="M-81.12-21.624h-4.032l-3.24,3.456h2.928ZM-80.856,0h4.08l-7.512-16.8h-3.84L-95.616,0h3.984l1.488-3.6h7.8ZM-88.9-6.552l2.664-6.432,2.664,6.432ZM-69.168.192c2.712,0,4.848-1.2,5.784-3.264l-2.9-1.584a3.177,3.177,0,0,1-2.9,1.776,3.3,3.3,0,0,1-3.384-3.576,3.3,3.3,0,0,1,3.384-3.576,3.22,3.22,0,0,1,2.9,1.776l2.9-1.56c-.936-2.112-3.072-3.288-5.784-3.288-4.2,0-7.2,2.76-7.2,6.648S-73.368.192-69.168.192Zm9.816-14.9a2.153,2.153,0,0,0,2.328-2.16,2.1,2.1,0,0,0-2.328-2.016A2.14,2.14,0,0,0-61.68-16.8,2.14,2.14,0,0,0-59.352-14.712ZM-61.224,0h3.744V-12.912h-3.744Zm16.632-17.808v6.264a4.961,4.961,0,0,0-3.864-1.56,6.277,6.277,0,0,0-6.456,6.648A6.277,6.277,0,0,0-48.456.192a4.967,4.967,0,0,0,4.032-1.68V0h3.576V-17.808ZM-47.808-2.88A3.276,3.276,0,0,1-51.12-6.456a3.276,3.276,0,0,1,3.312-3.576A3.271,3.271,0,0,1-44.52-6.456,3.271,3.271,0,0,1-47.808-2.88ZM-31.248.192c4.1,0,7.08-2.76,7.08-6.648s-2.976-6.648-7.08-6.648-7.1,2.76-7.1,6.648S-35.352.192-31.248.192Zm0-3.072A3.276,3.276,0,0,1-34.56-6.456a3.276,3.276,0,0,1,3.312-3.576A3.259,3.259,0,0,1-27.96-6.456,3.259,3.259,0,0,1-31.248-2.88ZM-9.1.288c4.8,0,7.128-2.4,7.128-5.208,0-6.168-9.768-4.032-9.768-7.128,0-1.056.888-1.92,3.192-1.92a9.488,9.488,0,0,1,4.656,1.32l1.2-2.952A11.269,11.269,0,0,0-8.52-17.088c-4.776,0-7.08,2.376-7.08,5.232,0,6.24,9.768,4.08,9.768,7.224,0,1.032-.936,1.8-3.24,1.8a9.882,9.882,0,0,1-5.544-1.752l-1.32,2.928A11.974,11.974,0,0,0-9.1.288ZM9.7-12.912v6.384c0,2.376-1.248,3.48-2.976,3.48-1.656,0-2.616-.96-2.616-3.12v-6.744H.36v7.3C.36-1.632,2.64.192,5.88.192A5.224,5.224,0,0,0,9.888-1.536V0H13.44V-12.912ZM16.92,0h3.744V-17.808H16.92ZM28.248-13.176c0-1.272.6-1.872,1.7-1.872a2.621,2.621,0,0,1,1.512.456l.984-2.712a5.307,5.307,0,0,0-2.856-.7c-3.216,0-4.992,1.9-4.992,4.8v.576H22.608v2.88H24.6V0h3.744V-9.744H31.56v-2.88H28.248Zm16.728-4.848H40.944L37.7-14.568h2.928ZM42.7-12.912v6.384c0,2.376-1.248,3.48-2.976,3.48-1.656,0-2.616-.96-2.616-3.12v-6.744H33.36v7.3c0,3.984,2.28,5.808,5.52,5.808a5.224,5.224,0,0,0,4.008-1.728V0H46.44V-12.912Zm10.8,1.7v-1.7H49.92V0h3.744V-6.1c0-2.472,1.368-3.6,3.432-3.6.288,0,.528.024.84.048V-13.1A5.211,5.211,0,0,0,53.5-11.208Zm8.544-3.5a2.153,2.153,0,0,0,2.328-2.16,2.1,2.1,0,0,0-2.328-2.016A2.14,2.14,0,0,0,59.712-16.8,2.14,2.14,0,0,0,62.04-14.712ZM60.168,0h3.744V-12.912H60.168ZM73.632.192c2.712,0,4.848-1.2,5.784-3.264l-2.9-1.584a3.177,3.177,0,0,1-2.9,1.776,3.3,3.3,0,0,1-3.384-3.576,3.3,3.3,0,0,1,3.384-3.576,3.22,3.22,0,0,1,2.9,1.776l2.9-1.56c-.936-2.112-3.072-3.288-5.784-3.288-4.2,0-7.2,2.76-7.2,6.648S69.432.192,73.632.192Zm13.92,0c4.1,0,7.08-2.76,7.08-6.648S91.656-13.1,87.552-13.1s-7.1,2.76-7.1,6.648S83.448.192,87.552.192Zm0-3.072A3.276,3.276,0,0,1,84.24-6.456a3.276,3.276,0,0,1,3.312-3.576A3.259,3.259,0,0,1,90.84-6.456,3.259,3.259,0,0,1,87.552-2.88Z" transform="translate(960 2127)" fill="#fff"/>
    <rect id="Rectángulo_2068" data-name="Rectángulo 2068" width="379" height="60" rx="4" transform="translate(771 2158)" fill="#70ad54"/>
    <path id="Trazado_17171" data-name="Trazado 17171" d="M-82.872-21.624H-86.9l-3.24,3.456h2.928ZM-82.608,0h4.08L-86.04-16.8h-3.84L-97.368,0h3.984L-91.9-3.6h7.8Zm-8.04-6.552,2.664-6.432,2.664,6.432ZM-70.92.192c2.712,0,4.848-1.2,5.784-3.264l-2.9-1.584a3.177,3.177,0,0,1-2.9,1.776,3.3,3.3,0,0,1-3.384-3.576,3.3,3.3,0,0,1,3.384-3.576,3.22,3.22,0,0,1,2.9,1.776l2.9-1.56c-.936-2.112-3.072-3.288-5.784-3.288-4.2,0-7.2,2.76-7.2,6.648S-75.12.192-70.92.192Zm9.816-14.9a2.153,2.153,0,0,0,2.328-2.16A2.1,2.1,0,0,0-61.1-18.888,2.14,2.14,0,0,0-63.432-16.8,2.14,2.14,0,0,0-61.1-14.712ZM-62.976,0h3.744V-12.912h-3.744Zm16.632-17.808v6.264a4.961,4.961,0,0,0-3.864-1.56,6.277,6.277,0,0,0-6.456,6.648A6.277,6.277,0,0,0-50.208.192a4.967,4.967,0,0,0,4.032-1.68V0H-42.6V-17.808ZM-49.56-2.88a3.276,3.276,0,0,1-3.312-3.576,3.276,3.276,0,0,1,3.312-3.576,3.271,3.271,0,0,1,3.288,3.576A3.271,3.271,0,0,1-49.56-2.88ZM-33,.192c4.1,0,7.08-2.76,7.08-6.648S-28.9-13.1-33-13.1s-7.1,2.76-7.1,6.648S-37.1.192-33,.192Zm0-3.072a3.276,3.276,0,0,1-3.312-3.576A3.276,3.276,0,0,1-33-10.032a3.259,3.259,0,0,1,3.288,3.576A3.259,3.259,0,0,1-33-2.88Zm29.328-10.8V-16.8h-12.7V0h3.888V-6.12H-4.7V-9.24H-12.48v-4.44ZM4.512.192c4.1,0,7.08-2.76,7.08-6.648S8.616-13.1,4.512-13.1s-7.1,2.76-7.1,6.648S.408.192,4.512.192Zm0-3.072A3.276,3.276,0,0,1,1.2-6.456a3.276,3.276,0,0,1,3.312-3.576A3.259,3.259,0,0,1,7.8-6.456,3.259,3.259,0,0,1,4.512-2.88ZM18.432.192c3.864,0,6.1-1.7,6.1-4.1,0-5.088-7.8-2.952-7.8-5.16,0-.672.72-1.2,2.4-1.2a7.415,7.415,0,0,1,3.72.96L24.1-11.976A10.617,10.617,0,0,0,19.128-13.1c-3.768,0-5.976,1.728-5.976,4.176,0,5.16,7.8,3,7.8,5.112,0,.72-.648,1.176-2.376,1.176a8.834,8.834,0,0,1-4.488-1.248L12.84-1.2A11.084,11.084,0,0,0,18.432.192Zm12.5-13.368c0-1.272.6-1.872,1.7-1.872a2.621,2.621,0,0,1,1.512.456l.984-2.712A5.307,5.307,0,0,0,32.28-18c-3.216,0-4.992,1.9-4.992,4.8v.576H25.3v2.88h1.992V0h3.744V-9.744h3.216v-2.88H30.936Zm8.928-1.392h2.928l4.344-3.456H43.1ZM42.1.192c4.1,0,7.08-2.76,7.08-6.648S46.2-13.1,42.1-13.1s-7.1,2.76-7.1,6.648S37.992.192,42.1.192Zm0-3.072a3.276,3.276,0,0,1-3.312-3.576A3.276,3.276,0,0,1,42.1-10.032a3.259,3.259,0,0,1,3.288,3.576A3.259,3.259,0,0,1,42.1-2.88Zm13.152-8.328v-1.7H51.672V0h3.744V-6.1c0-2.472,1.368-3.6,3.432-3.6.288,0,.528.024.84.048V-13.1A5.211,5.211,0,0,0,55.248-11.208Zm8.544-3.5a2.153,2.153,0,0,0,2.328-2.16,2.1,2.1,0,0,0-2.328-2.016A2.14,2.14,0,0,0,61.464-16.8,2.14,2.14,0,0,0,63.792-14.712ZM61.92,0h3.744V-12.912H61.92ZM75.384.192c2.712,0,4.848-1.2,5.784-3.264l-2.9-1.584a3.177,3.177,0,0,1-2.9,1.776,3.3,3.3,0,0,1-3.384-3.576,3.3,3.3,0,0,1,3.384-3.576,3.22,3.22,0,0,1,2.9,1.776l2.9-1.56C80.232-11.928,78.1-13.1,75.384-13.1c-4.2,0-7.2,2.76-7.2,6.648S71.184.192,75.384.192Zm13.92,0c4.1,0,7.08-2.76,7.08-6.648S93.408-13.1,89.3-13.1s-7.1,2.76-7.1,6.648S85.2.192,89.3.192Zm0-3.072a3.276,3.276,0,0,1-3.312-3.576A3.276,3.276,0,0,1,89.3-10.032a3.259,3.259,0,0,1,3.288,3.576A3.259,3.259,0,0,1,89.3-2.88Z" transform="translate(960 2196)" fill="#fff"/>
    <rect id="Rectángulo_2069" data-name="Rectángulo 2069" width="379" height="60" rx="4" transform="translate(771 2227)" fill="#70ad54"/>
    <path id="Trazado_17172" data-name="Trazado 17172" d="M-67.248-21.624H-71.28l-3.24,3.456h2.928ZM-66.984,0h4.08l-7.512-16.8h-3.84L-81.744,0h3.984l1.488-3.6h7.8Zm-8.04-6.552,2.664-6.432L-69.7-6.552ZM-55.3.192c2.712,0,4.848-1.2,5.784-3.264l-2.9-1.584a3.177,3.177,0,0,1-2.9,1.776A3.3,3.3,0,0,1-58.7-6.456a3.3,3.3,0,0,1,3.384-3.576,3.22,3.22,0,0,1,2.9,1.776l2.9-1.56c-.936-2.112-3.072-3.288-5.784-3.288-4.2,0-7.2,2.76-7.2,6.648S-59.5.192-55.3.192Zm9.816-14.9a2.153,2.153,0,0,0,2.328-2.16,2.1,2.1,0,0,0-2.328-2.016A2.14,2.14,0,0,0-47.808-16.8,2.14,2.14,0,0,0-45.48-14.712ZM-47.352,0h3.744V-12.912h-3.744ZM-30.72-17.808v6.264a4.961,4.961,0,0,0-3.864-1.56A6.277,6.277,0,0,0-41.04-6.456,6.277,6.277,0,0,0-34.584.192a4.967,4.967,0,0,0,4.032-1.68V0h3.576V-17.808ZM-33.936-2.88a3.276,3.276,0,0,1-3.312-3.576,3.276,3.276,0,0,1,3.312-3.576,3.271,3.271,0,0,1,3.288,3.576A3.271,3.271,0,0,1-33.936-2.88ZM-17.376.192c4.1,0,7.08-2.76,7.08-6.648s-2.976-6.648-7.08-6.648-7.1,2.76-7.1,6.648S-21.48.192-17.376.192Zm0-3.072a3.276,3.276,0,0,1-3.312-3.576,3.276,3.276,0,0,1,3.312-3.576,3.259,3.259,0,0,1,3.288,3.576A3.259,3.259,0,0,1-17.376-2.88Zm28.2-13.92V-6.6L2.472-16.8H-.744V0H3.1V-10.2L11.472,0h3.192V-16.8Zm7.248,2.232H21l4.344-3.456H21.312ZM18.384,0h3.744V-12.912H18.384ZM32.928-3.264a2.523,2.523,0,0,1-1.512.48,1.506,1.506,0,0,1-1.608-1.7V-9.744h3.216v-2.88H29.808v-3.144H26.064v3.144H24.072v2.88h1.992v5.3c0,3.072,1.776,4.632,4.824,4.632a5.351,5.351,0,0,0,3.048-.816Zm6.7-7.944v-1.7H36.048V0h3.744V-6.1c0-2.472,1.368-3.6,3.432-3.6.288,0,.528.024.84.048V-13.1A5.211,5.211,0,0,0,39.624-11.208Zm8.544-3.5a2.153,2.153,0,0,0,2.328-2.16,2.1,2.1,0,0,0-2.328-2.016A2.14,2.14,0,0,0,45.84-16.8,2.14,2.14,0,0,0,48.168-14.712ZM46.3,0H50.04V-12.912H46.3ZM59.76.192c2.712,0,4.848-1.2,5.784-3.264l-2.9-1.584a3.177,3.177,0,0,1-2.9,1.776,3.3,3.3,0,0,1-3.384-3.576,3.3,3.3,0,0,1,3.384-3.576,3.22,3.22,0,0,1,2.9,1.776l2.9-1.56c-.936-2.112-3.072-3.288-5.784-3.288-4.2,0-7.2,2.76-7.2,6.648S55.56.192,59.76.192Zm13.92,0c4.1,0,7.08-2.76,7.08-6.648S77.784-13.1,73.68-13.1s-7.1,2.76-7.1,6.648S69.576.192,73.68.192Zm0-3.072a3.276,3.276,0,0,1-3.312-3.576,3.276,3.276,0,0,1,3.312-3.576,3.259,3.259,0,0,1,3.288,3.576A3.259,3.259,0,0,1,73.68-2.88Z" transform="translate(960 2265)" fill="#fff"/>
    <g id="Grupo_9294" data-name="Grupo 9294" transform="translate(27)">
      <g id="infographic" transform="translate(831 1416.859)">
        <g id="Grupo_9289" data-name="Grupo 9289" transform="translate(38.075 355.712)">
          <rect id="Rectángulo_2076" data-name="Rectángulo 2076" width="121.226" height="100.016" transform="translate(0 85.725) rotate(-45.004)" fill="#bc9356"/>
          <rect id="Rectángulo_2077" data-name="Rectángulo 2077" width="114.8" height="94.713" transform="translate(4.146 85.318) rotate(-44.996)" fill="#94613a"/>
          <path id="Trazado_17117" data-name="Trazado 17117" d="M97.732,359.593l3.567-2.185,67.25,67.25-2.185,3.559-51.789-16.835Z" transform="translate(-14.604 -355.044)" fill="#9e7047"/>
          <path id="Trazado_17118" data-name="Trazado 17118" d="M115.935,409.023l-8.252-25.378-8.253-25.377,33.621,33.621,33.621,33.629L141.3,417.267Z" transform="translate(-13.935 -354.706)" fill="#bc9356"/>
          <path id="Trazado_17119" data-name="Trazado 17119" d="M155.458,420.087a3.1,3.1,0,1,1-3.1-3.1A3.09,3.09,0,0,1,155.458,420.087Z" transform="translate(5.672 -331.603)" fill="#84301e"/>
          <path id="Trazado_17120" data-name="Trazado 17120" d="M153.294,429.078a3.091,3.091,0,1,1-3.1-3.088A3.1,3.1,0,0,1,153.294,429.078Z" transform="translate(4.824 -328.062)" fill="#84301e"/>
          <path id="Trazado_17121" data-name="Trazado 17121" d="M157.618,434.6a3.091,3.091,0,1,1-3.095-3.1A3.1,3.1,0,0,1,157.618,434.6Z" transform="translate(6.525 -325.891)" fill="#84301e"/>
          <path id="Trazado_17122" data-name="Trazado 17122" d="M152.566,446.957a3.087,3.087,0,1,1-3.078-3.088A3.082,3.082,0,0,1,152.566,446.957Z" transform="translate(4.541 -321.028)" fill="#84301e"/>
          <path id="Trazado_17123" data-name="Trazado 17123" d="M157.974,458.566a3.091,3.091,0,1,1-3.095-3.1A3.1,3.1,0,0,1,157.974,458.566Z" transform="translate(6.665 -316.464)" fill="#84301e"/>
          <path id="Trazado_17124" data-name="Trazado 17124" d="M162.7,455.119a3.1,3.1,0,1,1-3.088-3.088A3.089,3.089,0,0,1,162.7,455.119Z" transform="translate(8.521 -317.817)" fill="#84301e"/>
          <path id="Trazado_17125" data-name="Trazado 17125" d="M151.14,465.207a3.1,3.1,0,1,1-3.1-3.1A3.1,3.1,0,0,1,151.14,465.207Z" transform="translate(3.973 -313.851)" fill="#84301e"/>
          <path id="Trazado_17126" data-name="Trazado 17126" d="M151.773,456.681a3.091,3.091,0,1,1-3.1-3.088A3.091,3.091,0,0,1,151.773,456.681Z" transform="translate(4.225 -317.202)" fill="#84301e"/>
          <path id="Trazado_17127" data-name="Trazado 17127" d="M164.336,465.325a3.091,3.091,0,1,1-3.1-3.095A3.1,3.1,0,0,1,164.336,465.325Z" transform="translate(9.168 -313.804)" fill="#84301e"/>
          <path id="Trazado_17128" data-name="Trazado 17128" d="M170.023,465.325a3.1,3.1,0,1,1-3.1-3.095A3.1,3.1,0,0,1,170.023,465.325Z" transform="translate(11.402 -313.804)" fill="#84301e"/>
          <path id="Trazado_17129" data-name="Trazado 17129" d="M140.459,465.325a3.095,3.095,0,1,1-3.1-3.095A3.1,3.1,0,0,1,140.459,465.325Z" transform="translate(-0.229 -313.804)" fill="#84301e"/>
          <path id="Trazado_17130" data-name="Trazado 17130" d="M157.161,465.278a2.926,2.926,0,1,1-2.929-2.929A2.927,2.927,0,0,1,157.161,465.278Z" transform="translate(6.476 -313.757)" fill="#84301e"/>
          <path id="Trazado_17131" data-name="Trazado 17131" d="M144.92,465.278A2.926,2.926,0,1,1,142,462.349,2.921,2.921,0,0,1,144.92,465.278Z" transform="translate(1.659 -313.757)" fill="#84301e"/>
          <path id="Trazado_17132" data-name="Trazado 17132" d="M146.846,453.517a2.93,2.93,0,1,1-2.929-2.93A2.934,2.934,0,0,1,146.846,453.517Z" transform="translate(2.414 -318.385)" fill="#84301e"/>
          <path id="Trazado_17133" data-name="Trazado 17133" d="M156.924,449.918a2.926,2.926,0,1,1-2.93-2.93A2.929,2.929,0,0,1,156.924,449.918Z" transform="translate(6.383 -319.801)" fill="#84301e"/>
          <path id="Trazado_17134" data-name="Trazado 17134" d="M154.643,440.909A2.926,2.926,0,1,1,151.714,438,2.93,2.93,0,0,1,154.643,440.909Z" transform="translate(5.485 -323.339)" fill="#84301e"/>
          <path id="Trazado_17135" data-name="Trazado 17135" d="M144.563,459.4a2.926,2.926,0,1,1-2.929-2.93A2.929,2.929,0,0,1,144.563,459.4Z" transform="translate(1.519 -316.071)" fill="#84301e"/>
          <path id="Trazado_17136" data-name="Trazado 17136" d="M159.68,444.275a2.926,2.926,0,1,1-2.921-2.93A2.928,2.928,0,0,1,159.68,444.275Z" transform="translate(7.467 -322.021)" fill="#84301e"/>
        </g>
      </g>
      <circle id="Elipse_563" data-name="Elipse 563" cx="52.5" cy="52.5" r="52.5" transform="translate(816 1809)" fill="#fff"/>
      <g id="Grupo_9293" data-name="Grupo 9293" transform="translate(-76 25.709)">
        <path id="Trazado_16554" data-name="Trazado 16554" d="M14.971,169.341a49,49,0,0,1-49.094-49.094A48.773,48.773,0,0,1-19.744,85.533,48.772,48.772,0,0,1,14.971,71.154,48.772,48.772,0,0,1,49.685,85.533a49.093,49.093,0,0,1,0,69.429A48.772,48.772,0,0,1,14.971,169.341Zm0-92.068a42.974,42.974,0,1,0,42.974,42.974A43.023,43.023,0,0,0,14.971,77.273Zm-4.83,42.974a4.83,4.83,0,1,0,4.83-4.829A4.83,4.83,0,0,0,10.141,120.247Zm4.83-39.1a39.1,39.1,0,1,0,39.1,39.1A39.1,39.1,0,0,0,14.971,81.149Zm0,5.471a33.712,33.712,0,0,1,8.706,1.139l-2.371,8.868a24.671,24.671,0,0,0-12.238-.111L6.86,87.606A33.752,33.752,0,0,1,14.97,86.62Zm4.7,24.877c-.587-.481-.867-1.095-.616-1.349L32.692,96.381c.236-.239.857-.071,1.409.381s.838,1.028.651,1.306L23.933,114.143c-.2.3-.857.143-1.444-.338Zm2.742,8.75a7.445,7.445,0,1,1-7.445-7.445A7.445,7.445,0,0,1,22.416,120.247Zm-31.893,0h-9.179a33.66,33.66,0,0,1,4.2-16.291l8.027,4.453A24.461,24.461,0,0,0-9.477,120.247Zm5.185-15.057-7.227-5.659A33.782,33.782,0,0,1,1.821,89.29l3.592,8.447A24.579,24.579,0,0,0-4.292,105.191Zm37.43-1.3,3.2-4.754c.77-1.143.349-2.728-1.025-3.854s-3.009-1.227-3.98-.248l-4.05,4.09a24.262,24.262,0,0,0-2.344-1.209l3.747-8.38a33.792,33.792,0,0,1,13.151,10.485l-7.33,5.525Q33.859,104.688,33.138,103.891Zm6.28,16.357A24.489,24.489,0,0,0,36.58,108.8l8.107-4.3a33.7,33.7,0,0,1,3.91,15.751Z" transform="translate(930.123 1715.137)" fill="#7140e2"/>
        <text id="PH" transform="translate(932 1862.453)" fill="#fff" font-size="19" font-family="Montserrat-Bold, Montserrat" font-weight="700"><tspan x="0" y="0">PH</tspan></text>
      </g>
    </g>
  </g>
</svg>
