<svg xmlns="http://www.w3.org/2000/svg" width="842" height="174" viewBox="0 0 842 174">
  <g id="Grupo_9334" data-name="Grupo 9334" transform="translate(-390 -725)">
    <rect id="Rectángulo_2049" data-name="Rectángulo 2049" width="644" height="44" rx="5" transform="translate(390 725)" fill="#fdac29"/>
    <path id="Trazado_17173" data-name="Trazado 17173" d="M-275.543-4.956a4.613,4.613,0,0,1-1.74,3.809,7.556,7.556,0,0,1-4.84,1.392A11.367,11.367,0,0,1-287.177-.83V-4.346a20.827,20.827,0,0,0,3.058,1.135,9.048,9.048,0,0,0,2.289.33,3.254,3.254,0,0,0,1.91-.476,1.628,1.628,0,0,0,.665-1.416,1.563,1.563,0,0,0-.293-.934,3.278,3.278,0,0,0-.861-.787A22.135,22.135,0,0,0-282.721-7.7a10.965,10.965,0,0,1-2.454-1.477,5.545,5.545,0,0,1-1.306-1.648,4.7,4.7,0,0,1-.488-2.2,4.612,4.612,0,0,1,1.605-3.723,6.67,6.67,0,0,1,4.437-1.355,10.478,10.478,0,0,1,2.655.33,18.25,18.25,0,0,1,2.643.928l-1.221,2.942a17.86,17.86,0,0,0-2.362-.818,7.6,7.6,0,0,0-1.837-.232,2.433,2.433,0,0,0-1.648.5,1.651,1.651,0,0,0-.574,1.306,1.616,1.616,0,0,0,.232.873,2.55,2.55,0,0,0,.739.72,22.837,22.837,0,0,0,2.4,1.251,9.544,9.544,0,0,1,3.43,2.4A4.681,4.681,0,0,1-275.543-4.956Zm5.908-1.892a5.728,5.728,0,0,0,.665,3.064A2.379,2.379,0,0,0-266.8-2.747a2.341,2.341,0,0,0,2.142-1.031,5.81,5.81,0,0,0,.653-3.07,5.637,5.637,0,0,0-.659-3.04,2.383,2.383,0,0,0-2.161-1.013,2.376,2.376,0,0,0-2.148,1.007A5.632,5.632,0,0,0-269.635-6.848Zm9.436,0a7.334,7.334,0,0,1-1.758,5.212,6.374,6.374,0,0,1-4.9,1.88,6.848,6.848,0,0,1-3.467-.861,5.727,5.727,0,0,1-2.307-2.472,8.306,8.306,0,0,1-.806-3.76,7.293,7.293,0,0,1,1.746-5.2,6.41,6.41,0,0,1,4.907-1.855,6.886,6.886,0,0,1,3.467.854A5.7,5.7,0,0,1-261-10.6,8.229,8.229,0,0,1-260.2-6.848ZM-253.4,0h-3.723V-18.994h3.723Zm13.574,0-.5-1.746h-.2a3.928,3.928,0,0,1-1.7,1.471,5.793,5.793,0,0,1-2.5.519,4.765,4.765,0,0,1-3.625-1.288,5.182,5.182,0,0,1-1.221-3.7v-8.9h3.723v7.971a3.829,3.829,0,0,0,.525,2.216,1.91,1.91,0,0,0,1.672.739,2.514,2.514,0,0,0,2.258-1.044,6.473,6.473,0,0,0,.7-3.461v-6.421h3.723V0Zm12.3.244q-6.372,0-6.372-6.995a7.461,7.461,0,0,1,1.733-5.316,6.5,6.5,0,0,1,4.968-1.837,9.471,9.471,0,0,1,4.248.928l-1.1,2.881q-.879-.354-1.636-.58a5.27,5.27,0,0,0-1.514-.226q-2.905,0-2.905,4.126,0,4,2.905,4a6.624,6.624,0,0,0,1.99-.287,7.184,7.184,0,0,0,1.831-.9V-.769A6,6,0,0,1-225.2.024,10.263,10.263,0,0,1-227.521.244Zm7.153-17.419q0-1.819,2.026-1.819t2.026,1.819a1.773,1.773,0,0,1-.507,1.349,2.129,2.129,0,0,1-1.52.482Q-220.367-15.344-220.367-17.175ZM-216.486,0h-3.723V-13.647h3.723Zm6.873-6.848a5.728,5.728,0,0,0,.665,3.064,2.379,2.379,0,0,0,2.167,1.038,2.341,2.341,0,0,0,2.142-1.031,5.81,5.81,0,0,0,.653-3.07,5.637,5.637,0,0,0-.659-3.04,2.383,2.383,0,0,0-2.161-1.013,2.376,2.376,0,0,0-2.148,1.007A5.632,5.632,0,0,0-209.613-6.848Zm9.436,0a7.334,7.334,0,0,1-1.758,5.212,6.374,6.374,0,0,1-4.9,1.88A6.848,6.848,0,0,1-210.3-.616,5.727,5.727,0,0,1-212.6-3.088a8.306,8.306,0,0,1-.806-3.76,7.293,7.293,0,0,1,1.746-5.2,6.41,6.41,0,0,1,4.907-1.855,6.886,6.886,0,0,1,3.467.854,5.7,5.7,0,0,1,2.307,2.454A8.229,8.229,0,0,1-200.177-6.848ZM-184.5,0h-3.723V-7.971a3.829,3.829,0,0,0-.525-2.216,1.91,1.91,0,0,0-1.672-.739,2.514,2.514,0,0,0-2.258,1.044,6.473,6.473,0,0,0-.7,3.461V0H-197.1V-13.647h2.844l.5,1.746h.208a3.935,3.935,0,0,1,1.715-1.5,5.84,5.84,0,0,1,2.484-.507,4.773,4.773,0,0,1,3.613,1.288A5.168,5.168,0,0,1-184.5-8.9Zm9.485-11.255a2.362,2.362,0,0,0-1.855.751,3.475,3.475,0,0,0-.769,2.13h5.225a3.1,3.1,0,0,0-.72-2.13A2.439,2.439,0,0,0-175.018-11.255Zm.525,11.5a7.044,7.044,0,0,1-5.151-1.819A6.887,6.887,0,0,1-181.5-6.726a7.575,7.575,0,0,1,1.715-5.3,6.107,6.107,0,0,1,4.742-1.874,6.011,6.011,0,0,1,4.5,1.648A6.235,6.235,0,0,1-168.927-7.7V-5.9h-8.8a3.584,3.584,0,0,0,.94,2.478,3.307,3.307,0,0,0,2.466.891,10.236,10.236,0,0,0,2.332-.256A11.666,11.666,0,0,0-169.7-3.6V-.72a8.742,8.742,0,0,1-2.087.726A13.161,13.161,0,0,1-174.493.244Zm18.115-4.3a3.757,3.757,0,0,1-1.459,3.2A7.208,7.208,0,0,1-162.2.244a13.707,13.707,0,0,1-2.539-.2,9.6,9.6,0,0,1-1.965-.592V-3.625a12.979,12.979,0,0,0,2.338.818,9.466,9.466,0,0,0,2.289.33q2.026,0,2.026-1.172a.978.978,0,0,0-.269-.714,3.894,3.894,0,0,0-.928-.623q-.659-.348-1.758-.812a11.043,11.043,0,0,1-2.313-1.221,3.436,3.436,0,0,1-1.074-1.288,4.251,4.251,0,0,1-.336-1.788,3.242,3.242,0,0,1,1.41-2.814,6.868,6.868,0,0,1,4-.995,11.348,11.348,0,0,1,4.8,1.074l-1.123,2.686q-1.025-.439-1.917-.72a6.018,6.018,0,0,0-1.819-.281q-1.648,0-1.648.891a1.048,1.048,0,0,0,.531.867A14.441,14.441,0,0,0-160.175-8.3a10.8,10.8,0,0,1,2.344,1.208,3.574,3.574,0,0,1,1.1,1.294A3.976,3.976,0,0,1-156.378-4.053ZM-130.853,0h-4.81l-7.764-13.5h-.11q.232,3.577.232,5.1V0h-3.381V-17.847h4.773l7.751,13.367h.085q-.183-3.479-.183-4.919v-8.447h3.406Zm13.867,0-.5-1.746h-.2a3.928,3.928,0,0,1-1.7,1.471,5.793,5.793,0,0,1-2.5.519,4.765,4.765,0,0,1-3.625-1.288,5.182,5.182,0,0,1-1.221-3.7v-8.9H-123v7.971a3.829,3.829,0,0,0,.525,2.216,1.91,1.91,0,0,0,1.672.739,2.514,2.514,0,0,0,2.258-1.044,6.473,6.473,0,0,0,.7-3.461v-6.421h3.723V0Zm12.512-2.722a8.071,8.071,0,0,0,2.344-.427V-.378a8.357,8.357,0,0,1-3.418.623A4.183,4.183,0,0,1-108.8-.885a4.915,4.915,0,0,1-1.019-3.387v-6.58H-111.6v-1.575l2.051-1.245,1.074-2.881h2.38v2.905h3.821v2.8H-106.1v6.58a1.453,1.453,0,0,0,.446,1.172A1.758,1.758,0,0,0-104.474-2.722ZM-91.754-13.9a6,6,0,0,1,1.257.11l-.281,3.491a4.265,4.265,0,0,0-1.1-.122,3.948,3.948,0,0,0-2.777.916,3.31,3.31,0,0,0-.995,2.563V0h-3.723V-13.647h2.82L-96-11.353h.183A5.13,5.13,0,0,1-94.1-13.2,4.229,4.229,0,0,1-91.754-13.9Zm3.577-3.271q0-1.819,2.026-1.819t2.026,1.819a1.773,1.773,0,0,1-.507,1.349,2.129,2.129,0,0,1-1.52.482Q-88.177-15.344-88.177-17.175ZM-84.3,0h-3.723V-13.647H-84.3Zm9.656-2.722A8.071,8.071,0,0,0-72.3-3.149V-.378a8.357,8.357,0,0,1-3.418.623A4.183,4.183,0,0,1-78.967-.885a4.915,4.915,0,0,1-1.019-3.387v-6.58h-1.782v-1.575l2.051-1.245,1.074-2.881h2.38v2.905h3.821v2.8h-3.821v6.58A1.453,1.453,0,0,0-75.818-3.1,1.758,1.758,0,0,0-74.64-2.722ZM-69.7-17.175q0-1.819,2.026-1.819t2.026,1.819a1.773,1.773,0,0,1-.507,1.349,2.129,2.129,0,0,1-1.52.482Q-69.7-15.344-69.7-17.175ZM-65.814,0h-3.723V-13.647h3.723Zm7.153,0-5.2-13.647h3.894l2.637,7.776a13.875,13.875,0,0,1,.549,2.8h.073a12.156,12.156,0,0,1,.549-2.8l2.625-7.776h3.894L-54.84,0ZM-39.02,0l-.72-1.855h-.1A5.5,5.5,0,0,1-41.772-.214a6.253,6.253,0,0,1-2.594.458A4.2,4.2,0,0,1-47.461-.879a4.313,4.313,0,0,1-1.129-3.2,3.6,3.6,0,0,1,1.52-3.2,8.806,8.806,0,0,1,4.584-1.141l2.368-.073v-.6a1.856,1.856,0,0,0-2.124-2.075,9.679,9.679,0,0,0-3.845.989L-47.321-12.7A11.1,11.1,0,0,1-42.1-13.928a6.508,6.508,0,0,1,4.211,1.2A4.421,4.421,0,0,1-36.42-9.094V0Zm-1.1-6.323-1.44.049a4.613,4.613,0,0,0-2.417.586,1.84,1.84,0,0,0-.793,1.636q0,1.575,1.807,1.575a2.861,2.861,0,0,0,2.069-.745A2.615,2.615,0,0,0-40.118-5.2Zm17.053,2.271a3.757,3.757,0,0,1-1.459,3.2,7.208,7.208,0,0,1-4.364,1.1,13.707,13.707,0,0,1-2.539-.2,9.6,9.6,0,0,1-1.965-.592V-3.625a12.979,12.979,0,0,0,2.338.818,9.466,9.466,0,0,0,2.289.33q2.026,0,2.026-1.172a.978.978,0,0,0-.269-.714,3.894,3.894,0,0,0-.928-.623q-.659-.348-1.758-.812a11.042,11.042,0,0,1-2.313-1.221,3.436,3.436,0,0,1-1.074-1.288,4.251,4.251,0,0,1-.336-1.788,3.242,3.242,0,0,1,1.41-2.814,6.868,6.868,0,0,1,4-.995,11.348,11.348,0,0,1,4.8,1.074l-1.123,2.686q-1.025-.439-1.917-.72a6.018,6.018,0,0,0-1.819-.281q-1.648,0-1.648.891a1.048,1.048,0,0,0,.531.867A14.441,14.441,0,0,0-26.862-8.3a10.8,10.8,0,0,1,2.344,1.208,3.574,3.574,0,0,1,1.1,1.294A3.976,3.976,0,0,1-23.065-4.053ZM-5,0l-.72-1.855h-.1A5.5,5.5,0,0,1-7.751-.214a6.253,6.253,0,0,1-2.594.458A4.2,4.2,0,0,1-13.44-.879a4.313,4.313,0,0,1-1.129-3.2,3.6,3.6,0,0,1,1.52-3.2A8.806,8.806,0,0,1-8.466-8.423L-6.1-8.5v-.6a1.856,1.856,0,0,0-2.124-2.075,9.679,9.679,0,0,0-3.845.989L-13.3-12.7a11.1,11.1,0,0,1,5.225-1.233,6.508,6.508,0,0,1,4.211,1.2A4.421,4.421,0,0,1-2.4-9.094V0ZM-6.1-6.323l-1.44.049a4.613,4.613,0,0,0-2.417.586,1.84,1.84,0,0,0-.793,1.636q0,1.575,1.807,1.575a2.861,2.861,0,0,0,2.069-.745A2.615,2.615,0,0,0-6.1-5.2Zm18.1-3.125h1.245a4.147,4.147,0,0,0,2.612-.69,2.414,2.414,0,0,0,.867-2.008A2.475,2.475,0,0,0,16-14.111a3.4,3.4,0,0,0-2.277-.635H12.006Zm8.545-2.832a5.455,5.455,0,0,1-1.8,4.407,7.7,7.7,0,0,1-5.121,1.526H12.006V0H8.221V-17.847h5.7a7.582,7.582,0,0,1,4.938,1.4A5.1,5.1,0,0,1,20.551-12.28ZM32.294,0l-.72-1.855h-.1A5.5,5.5,0,0,1,29.541-.214a6.253,6.253,0,0,1-2.594.458A4.2,4.2,0,0,1,23.853-.879a4.313,4.313,0,0,1-1.129-3.2,3.6,3.6,0,0,1,1.52-3.2,8.806,8.806,0,0,1,4.584-1.141L31.2-8.5v-.6a1.856,1.856,0,0,0-2.124-2.075,9.679,9.679,0,0,0-3.845.989L23.993-12.7a11.1,11.1,0,0,1,5.225-1.233,6.508,6.508,0,0,1,4.211,1.2,4.421,4.421,0,0,1,1.465,3.638V0ZM31.2-6.323l-1.44.049a4.613,4.613,0,0,0-2.417.586,1.84,1.84,0,0,0-.793,1.636q0,1.575,1.807,1.575a2.861,2.861,0,0,0,2.069-.745A2.615,2.615,0,0,0,31.2-5.2ZM46.344-13.9a6,6,0,0,1,1.257.11L47.321-10.3a4.265,4.265,0,0,0-1.1-.122,3.948,3.948,0,0,0-2.777.916,3.31,3.31,0,0,0-.995,2.563V0H38.727V-13.647h2.82l.549,2.295h.183A5.13,5.13,0,0,1,43.994-13.2,4.229,4.229,0,0,1,46.344-13.9ZM55.829-2.722a8.071,8.071,0,0,0,2.344-.427V-.378a8.357,8.357,0,0,1-3.418.623A4.183,4.183,0,0,1,51.5-.885a4.915,4.915,0,0,1-1.019-3.387v-6.58H48.7v-1.575l2.051-1.245,1.074-2.881h2.38v2.905h3.821v2.8H54.205v6.58A1.453,1.453,0,0,0,54.651-3.1,1.758,1.758,0,0,0,55.829-2.722Zm4.944-14.453q0-1.819,2.026-1.819t2.026,1.819a1.773,1.773,0,0,1-.507,1.349,2.129,2.129,0,0,1-1.52.482Q60.773-15.344,60.773-17.175ZM64.655,0H60.931V-13.647h3.723ZM76.178-13.9a6,6,0,0,1,1.257.11L77.155-10.3a4.265,4.265,0,0,0-1.1-.122,3.948,3.948,0,0,0-2.777.916,3.31,3.31,0,0,0-.995,2.563V0H68.561V-13.647h2.82l.549,2.295h.183A5.13,5.13,0,0,1,73.828-13.2,4.229,4.229,0,0,1,76.178-13.9ZM90.729.244a4.433,4.433,0,0,1-3.778-1.868A8.586,8.586,0,0,1,85.577-6.8a8.6,8.6,0,0,1,1.4-5.231A4.54,4.54,0,0,1,90.826-13.9a4.452,4.452,0,0,1,3.931,2h.122a15.221,15.221,0,0,1-.281-2.722v-4.37h3.735V0H95.477l-.72-1.77H94.6A4.26,4.26,0,0,1,90.729.244Zm1.306-2.966a2.523,2.523,0,0,0,2.094-.83,4.829,4.829,0,0,0,.726-2.82v-.4a5.58,5.58,0,0,0-.677-3.149,2.516,2.516,0,0,0-2.2-.952,2.185,2.185,0,0,0-1.935,1.056,5.633,5.633,0,0,0-.69,3.07,5.339,5.339,0,0,0,.7,3.021A2.273,2.273,0,0,0,92.035-2.722Zm15.845-8.533a2.362,2.362,0,0,0-1.855.751,3.475,3.475,0,0,0-.769,2.13h5.225a3.1,3.1,0,0,0-.72-2.13A2.439,2.439,0,0,0,107.88-11.255ZM108.4.244a7.044,7.044,0,0,1-5.151-1.819A6.887,6.887,0,0,1,101.4-6.726a7.575,7.575,0,0,1,1.715-5.3,6.107,6.107,0,0,1,4.742-1.874,6.011,6.011,0,0,1,4.5,1.648A6.235,6.235,0,0,1,113.971-7.7V-5.9h-8.8a3.584,3.584,0,0,0,.94,2.478,3.307,3.307,0,0,0,2.466.891,10.236,10.236,0,0,0,2.332-.256A11.666,11.666,0,0,0,113.2-3.6V-.72a8.742,8.742,0,0,1-2.087.726A13.161,13.161,0,0,1,108.4.244Zm25.916-5.2a4.613,4.613,0,0,1-1.74,3.809A7.556,7.556,0,0,1,127.74.244,11.367,11.367,0,0,1,122.687-.83V-4.346a20.826,20.826,0,0,0,3.058,1.135,9.048,9.048,0,0,0,2.289.33,3.254,3.254,0,0,0,1.91-.476,1.628,1.628,0,0,0,.665-1.416,1.563,1.563,0,0,0-.293-.934,3.278,3.278,0,0,0-.861-.787A22.133,22.133,0,0,0,127.142-7.7a10.964,10.964,0,0,1-2.454-1.477,5.545,5.545,0,0,1-1.306-1.648,4.7,4.7,0,0,1-.488-2.2,4.612,4.612,0,0,1,1.605-3.723,6.67,6.67,0,0,1,4.437-1.355,10.478,10.478,0,0,1,2.655.33,18.25,18.25,0,0,1,2.643.928L133.014-13.9a17.86,17.86,0,0,0-2.362-.818,7.6,7.6,0,0,0-1.837-.232,2.433,2.433,0,0,0-1.648.5,1.651,1.651,0,0,0-.574,1.306,1.616,1.616,0,0,0,.232.873,2.55,2.55,0,0,0,.739.72,22.835,22.835,0,0,0,2.4,1.251,9.544,9.544,0,0,1,3.43,2.4A4.681,4.681,0,0,1,134.32-4.956ZM145.929,0l-.72-1.855h-.1a5.5,5.5,0,0,1-1.935,1.642,6.253,6.253,0,0,1-2.594.458,4.2,4.2,0,0,1-3.094-1.123,4.313,4.313,0,0,1-1.129-3.2,3.6,3.6,0,0,1,1.52-3.2,8.806,8.806,0,0,1,4.584-1.141L144.83-8.5v-.6a1.856,1.856,0,0,0-2.124-2.075,9.679,9.679,0,0,0-3.845.989L137.628-12.7a11.1,11.1,0,0,1,5.225-1.233,6.508,6.508,0,0,1,4.211,1.2,4.421,4.421,0,0,1,1.465,3.638V0Zm-1.1-6.323-1.44.049a4.613,4.613,0,0,0-2.417.586,1.84,1.84,0,0,0-.793,1.636q0,1.575,1.807,1.575a2.861,2.861,0,0,0,2.069-.745A2.615,2.615,0,0,0,144.83-5.2ZM156.085,0h-3.723V-18.994h3.723Zm9.558-11.255a2.362,2.362,0,0,0-1.855.751,3.475,3.475,0,0,0-.769,2.13h5.225a3.1,3.1,0,0,0-.72-2.13A2.439,2.439,0,0,0,165.643-11.255Zm.525,11.5a7.044,7.044,0,0,1-5.151-1.819,6.887,6.887,0,0,1-1.855-5.151,7.575,7.575,0,0,1,1.715-5.3,6.107,6.107,0,0,1,4.742-1.874,6.011,6.011,0,0,1,4.5,1.648A6.235,6.235,0,0,1,171.735-7.7V-5.9h-8.8a3.584,3.584,0,0,0,.94,2.478,3.307,3.307,0,0,0,2.466.891,10.236,10.236,0,0,0,2.332-.256,11.666,11.666,0,0,0,2.295-.818V-.72a8.742,8.742,0,0,1-2.087.726A13.161,13.161,0,0,1,166.168.244Zm18.115-4.3a3.757,3.757,0,0,1-1.459,3.2,7.208,7.208,0,0,1-4.364,1.1,13.707,13.707,0,0,1-2.539-.2,9.6,9.6,0,0,1-1.965-.592V-3.625a12.979,12.979,0,0,0,2.338.818,9.466,9.466,0,0,0,2.289.33q2.026,0,2.026-1.172a.978.978,0,0,0-.269-.714,3.894,3.894,0,0,0-.928-.623q-.659-.348-1.758-.812a11.043,11.043,0,0,1-2.313-1.221,3.436,3.436,0,0,1-1.074-1.288,4.251,4.251,0,0,1-.336-1.788,3.242,3.242,0,0,1,1.41-2.814,6.868,6.868,0,0,1,4-.995,11.348,11.348,0,0,1,4.8,1.074l-1.123,2.686q-1.025-.439-1.917-.72a6.018,6.018,0,0,0-1.819-.281q-1.648,0-1.648.891a1.048,1.048,0,0,0,.531.867A14.441,14.441,0,0,0,180.487-8.3a10.8,10.8,0,0,1,2.344,1.208,3.574,3.574,0,0,1,1.1,1.294A3.976,3.976,0,0,1,184.283-4.053Zm20.227-.9a4.613,4.613,0,0,1-1.74,3.809,7.556,7.556,0,0,1-4.84,1.392A11.367,11.367,0,0,1,192.877-.83V-4.346a20.826,20.826,0,0,0,3.058,1.135,9.048,9.048,0,0,0,2.289.33,3.254,3.254,0,0,0,1.91-.476,1.628,1.628,0,0,0,.665-1.416,1.563,1.563,0,0,0-.293-.934,3.278,3.278,0,0,0-.861-.787A22.133,22.133,0,0,0,197.333-7.7a10.964,10.964,0,0,1-2.454-1.477,5.545,5.545,0,0,1-1.306-1.648,4.7,4.7,0,0,1-.488-2.2,4.612,4.612,0,0,1,1.605-3.723,6.67,6.67,0,0,1,4.437-1.355,10.478,10.478,0,0,1,2.655.33,18.25,18.25,0,0,1,2.643.928L203.2-13.9a17.86,17.86,0,0,0-2.362-.818,7.6,7.6,0,0,0-1.837-.232,2.433,2.433,0,0,0-1.648.5,1.651,1.651,0,0,0-.574,1.306,1.617,1.617,0,0,0,.232.873,2.55,2.55,0,0,0,.739.72,22.834,22.834,0,0,0,2.4,1.251,9.544,9.544,0,0,1,3.43,2.4A4.681,4.681,0,0,1,204.51-4.956Zm2.783-12.219q0-1.819,2.026-1.819t2.026,1.819a1.773,1.773,0,0,1-.507,1.349,2.129,2.129,0,0,1-1.52.482Q207.294-15.344,207.294-17.175ZM211.176,0h-3.723V-13.647h3.723ZM227.3,0h-3.723V-7.971a4.015,4.015,0,0,0-.494-2.216,1.739,1.739,0,0,0-1.556-.739,2.254,2.254,0,0,0-2.075,1.05,6.886,6.886,0,0,0-.647,3.455V0h-3.723V-13.647h2.844l.5,1.746h.208a3.783,3.783,0,0,1,1.587-1.471,5.153,5.153,0,0,1,2.38-.531q3.064,0,4.15,2h.33a3.687,3.687,0,0,1,1.617-1.477,5.394,5.394,0,0,1,2.411-.525,4.759,4.759,0,0,1,3.51,1.19,5.226,5.226,0,0,1,1.19,3.815V0h-3.735V-7.971a4.015,4.015,0,0,0-.494-2.216,1.739,1.739,0,0,0-1.556-.739,2.322,2.322,0,0,0-2.045.977,5.541,5.541,0,0,0-.677,3.1Zm19.824.244A4.526,4.526,0,0,1,243.353-1.5h-.2q.2,1.709.2,1.978v5.53H239.63V-13.647h3.027l.525,1.77h.171a4.307,4.307,0,0,1,3.87-2.026,4.429,4.429,0,0,1,3.784,1.868,8.638,8.638,0,0,1,1.367,5.188,10.244,10.244,0,0,1-.641,3.8A5.325,5.325,0,0,1,249.908-.6,4.677,4.677,0,0,1,247.125.244Zm-1.1-11.169a2.351,2.351,0,0,0-2.014.848,4.871,4.871,0,0,0-.659,2.8v.4a5.75,5.75,0,0,0,.653,3.149,2.331,2.331,0,0,0,2.069.952q2.5,0,2.5-4.126a5.892,5.892,0,0,0-.616-3.021A2.1,2.1,0,0,0,246.027-10.925ZM259.174,0H255.45V-18.994h3.723Zm9.558-11.255a2.362,2.362,0,0,0-1.855.751,3.474,3.474,0,0,0-.769,2.13h5.225a3.1,3.1,0,0,0-.72-2.13A2.439,2.439,0,0,0,268.732-11.255Zm.525,11.5a7.044,7.044,0,0,1-5.151-1.819,6.887,6.887,0,0,1-1.855-5.151,7.574,7.574,0,0,1,1.715-5.3,6.107,6.107,0,0,1,4.742-1.874,6.011,6.011,0,0,1,4.5,1.648A6.235,6.235,0,0,1,274.823-7.7V-5.9h-8.8a3.584,3.584,0,0,0,.94,2.478,3.307,3.307,0,0,0,2.466.891,10.237,10.237,0,0,0,2.332-.256,11.666,11.666,0,0,0,2.295-.818V-.72a8.742,8.742,0,0,1-2.087.726A13.161,13.161,0,0,1,269.257.244Zm18.115-4.3a3.757,3.757,0,0,1-1.459,3.2,7.208,7.208,0,0,1-4.364,1.1,13.707,13.707,0,0,1-2.539-.2,9.6,9.6,0,0,1-1.965-.592V-3.625a12.979,12.979,0,0,0,2.338.818,9.466,9.466,0,0,0,2.289.33q2.026,0,2.026-1.172a.978.978,0,0,0-.269-.714,3.894,3.894,0,0,0-.928-.623q-.659-.348-1.758-.812a11.042,11.042,0,0,1-2.313-1.221,3.436,3.436,0,0,1-1.074-1.288,4.251,4.251,0,0,1-.336-1.788,3.242,3.242,0,0,1,1.41-2.814,6.868,6.868,0,0,1,4-.995,11.348,11.348,0,0,1,4.8,1.074L286.1-10.144q-1.025-.439-1.917-.72a6.018,6.018,0,0,0-1.819-.281q-1.648,0-1.648.891a1.048,1.048,0,0,0,.531.867A14.441,14.441,0,0,0,283.575-8.3a10.8,10.8,0,0,1,2.344,1.208,3.574,3.574,0,0,1,1.1,1.294A3.976,3.976,0,0,1,287.372-4.053Z" transform="translate(712 755)" fill="#fff"/>
    <rect id="Rectángulo_2078" data-name="Rectángulo 2078" width="774" height="44" rx="5" transform="translate(390 790)" fill="#fdac29"/>
    <path id="Trazado_17174" data-name="Trazado 17174" d="M-334.29-4.956a4.613,4.613,0,0,1-1.74,3.809,7.556,7.556,0,0,1-4.84,1.392A11.367,11.367,0,0,1-345.923-.83V-4.346a20.827,20.827,0,0,0,3.058,1.135,9.048,9.048,0,0,0,2.289.33,3.254,3.254,0,0,0,1.91-.476A1.628,1.628,0,0,0-338-4.773a1.563,1.563,0,0,0-.293-.934,3.278,3.278,0,0,0-.861-.787A22.135,22.135,0,0,0-341.467-7.7a10.965,10.965,0,0,1-2.454-1.477,5.545,5.545,0,0,1-1.306-1.648,4.7,4.7,0,0,1-.488-2.2,4.612,4.612,0,0,1,1.605-3.723,6.67,6.67,0,0,1,4.437-1.355,10.478,10.478,0,0,1,2.655.33,18.25,18.25,0,0,1,2.643.928L-335.6-13.9a17.86,17.86,0,0,0-2.362-.818,7.6,7.6,0,0,0-1.837-.232,2.433,2.433,0,0,0-1.648.5,1.651,1.651,0,0,0-.574,1.306,1.616,1.616,0,0,0,.232.873,2.55,2.55,0,0,0,.739.72,22.837,22.837,0,0,0,2.4,1.251,9.544,9.544,0,0,1,3.43,2.4A4.681,4.681,0,0,1-334.29-4.956Zm5.908-1.892a5.728,5.728,0,0,0,.665,3.064,2.379,2.379,0,0,0,2.167,1.038,2.341,2.341,0,0,0,2.142-1.031,5.81,5.81,0,0,0,.653-3.07,5.637,5.637,0,0,0-.659-3.04,2.383,2.383,0,0,0-2.161-1.013,2.376,2.376,0,0,0-2.148,1.007A5.632,5.632,0,0,0-328.381-6.848Zm9.436,0A7.334,7.334,0,0,1-320.7-1.636a6.374,6.374,0,0,1-4.9,1.88,6.848,6.848,0,0,1-3.467-.861,5.727,5.727,0,0,1-2.307-2.472,8.306,8.306,0,0,1-.806-3.76,7.293,7.293,0,0,1,1.746-5.2,6.41,6.41,0,0,1,4.907-1.855,6.886,6.886,0,0,1,3.467.854,5.7,5.7,0,0,1,2.307,2.454A8.229,8.229,0,0,1-318.945-6.848Zm6.8,6.848h-3.723V-18.994h3.723Zm13.574,0-.5-1.746h-.2a3.928,3.928,0,0,1-1.7,1.471,5.793,5.793,0,0,1-2.5.519,4.765,4.765,0,0,1-3.625-1.288,5.182,5.182,0,0,1-1.221-3.7v-8.9h3.723v7.971a3.829,3.829,0,0,0,.525,2.216,1.91,1.91,0,0,0,1.672.739,2.514,2.514,0,0,0,2.258-1.044,6.473,6.473,0,0,0,.7-3.461v-6.421h3.723V0Zm12.3.244q-6.372,0-6.372-6.995a7.461,7.461,0,0,1,1.733-5.316,6.5,6.5,0,0,1,4.968-1.837,9.472,9.472,0,0,1,4.248.928l-1.1,2.881q-.879-.354-1.636-.58a5.27,5.27,0,0,0-1.514-.226q-2.905,0-2.905,4.126,0,4,2.905,4a6.624,6.624,0,0,0,1.99-.287,7.184,7.184,0,0,0,1.831-.9V-.769a6,6,0,0,1-1.825.793A10.263,10.263,0,0,1-286.267.244Zm7.153-17.419q0-1.819,2.026-1.819t2.026,1.819a1.773,1.773,0,0,1-.507,1.349,2.129,2.129,0,0,1-1.52.482Q-279.114-15.344-279.114-17.175ZM-275.232,0h-3.723V-13.647h3.723Zm6.873-6.848a5.728,5.728,0,0,0,.665,3.064,2.379,2.379,0,0,0,2.167,1.038,2.341,2.341,0,0,0,2.142-1.031,5.81,5.81,0,0,0,.653-3.07,5.637,5.637,0,0,0-.659-3.04,2.383,2.383,0,0,0-2.161-1.013A2.376,2.376,0,0,0-267.7-9.894,5.632,5.632,0,0,0-268.359-6.848Zm9.436,0a7.334,7.334,0,0,1-1.758,5.212,6.374,6.374,0,0,1-4.9,1.88,6.848,6.848,0,0,1-3.467-.861,5.727,5.727,0,0,1-2.307-2.472,8.306,8.306,0,0,1-.806-3.76,7.293,7.293,0,0,1,1.746-5.2A6.41,6.41,0,0,1-265.5-13.9a6.886,6.886,0,0,1,3.467.854,5.7,5.7,0,0,1,2.307,2.454A8.229,8.229,0,0,1-258.923-6.848ZM-243.25,0h-3.723V-7.971a3.829,3.829,0,0,0-.525-2.216,1.91,1.91,0,0,0-1.672-.739,2.514,2.514,0,0,0-2.258,1.044,6.473,6.473,0,0,0-.7,3.461V0h-3.723V-13.647H-253l.5,1.746h.208a3.935,3.935,0,0,1,1.715-1.5A5.84,5.84,0,0,1-248.1-13.9a4.773,4.773,0,0,1,3.613,1.288A5.168,5.168,0,0,1-243.25-8.9Zm9.485-11.255a2.362,2.362,0,0,0-1.855.751,3.475,3.475,0,0,0-.769,2.13h5.225a3.1,3.1,0,0,0-.72-2.13A2.439,2.439,0,0,0-233.765-11.255Zm.525,11.5a7.044,7.044,0,0,1-5.151-1.819,6.887,6.887,0,0,1-1.855-5.151,7.575,7.575,0,0,1,1.715-5.3,6.107,6.107,0,0,1,4.742-1.874,6.011,6.011,0,0,1,4.5,1.648A6.235,6.235,0,0,1-227.673-7.7V-5.9h-8.8a3.584,3.584,0,0,0,.94,2.478,3.307,3.307,0,0,0,2.466.891,10.236,10.236,0,0,0,2.332-.256,11.666,11.666,0,0,0,2.295-.818V-.72a8.742,8.742,0,0,1-2.087.726A13.161,13.161,0,0,1-233.24.244Zm18.115-4.3a3.757,3.757,0,0,1-1.459,3.2,7.208,7.208,0,0,1-4.364,1.1,13.707,13.707,0,0,1-2.539-.2,9.6,9.6,0,0,1-1.965-.592V-3.625a12.979,12.979,0,0,0,2.338.818,9.466,9.466,0,0,0,2.289.33q2.026,0,2.026-1.172a.978.978,0,0,0-.269-.714A3.894,3.894,0,0,0-220-4.987q-.659-.348-1.758-.812a11.043,11.043,0,0,1-2.313-1.221,3.436,3.436,0,0,1-1.074-1.288,4.251,4.251,0,0,1-.336-1.788,3.242,3.242,0,0,1,1.41-2.814,6.868,6.868,0,0,1,4-.995,11.348,11.348,0,0,1,4.8,1.074l-1.123,2.686q-1.025-.439-1.917-.72a6.018,6.018,0,0,0-1.819-.281q-1.648,0-1.648.891a1.048,1.048,0,0,0,.531.867A14.441,14.441,0,0,0-218.921-8.3a10.8,10.8,0,0,1,2.344,1.208,3.574,3.574,0,0,1,1.1,1.294A3.976,3.976,0,0,1-215.125-4.053ZM-189.6,0h-4.81l-7.764-13.5h-.11q.232,3.577.232,5.1V0h-3.381V-17.847h4.773l7.751,13.367h.085q-.183-3.479-.183-4.919v-8.447h3.406Zm13.867,0-.5-1.746h-.2a3.928,3.928,0,0,1-1.7,1.471,5.793,5.793,0,0,1-2.5.519,4.765,4.765,0,0,1-3.625-1.288,5.182,5.182,0,0,1-1.221-3.7v-8.9h3.723v7.971a3.829,3.829,0,0,0,.525,2.216,1.91,1.91,0,0,0,1.672.739,2.514,2.514,0,0,0,2.258-1.044,6.473,6.473,0,0,0,.7-3.461v-6.421h3.723V0Zm12.512-2.722a8.071,8.071,0,0,0,2.344-.427V-.378a8.357,8.357,0,0,1-3.418.623,4.183,4.183,0,0,1-3.253-1.129,4.915,4.915,0,0,1-1.019-3.387v-6.58h-1.782v-1.575l2.051-1.245,1.074-2.881h2.38v2.905h3.821v2.8h-3.821v6.58A1.453,1.453,0,0,0-164.4-3.1,1.758,1.758,0,0,0-163.22-2.722ZM-150.5-13.9a6,6,0,0,1,1.257.11l-.281,3.491a4.265,4.265,0,0,0-1.1-.122,3.948,3.948,0,0,0-2.777.916,3.309,3.309,0,0,0-.995,2.563V0h-3.723V-13.647h2.82l.549,2.295h.183A5.13,5.13,0,0,1-152.85-13.2,4.229,4.229,0,0,1-150.5-13.9Zm3.577-3.271q0-1.819,2.026-1.819t2.026,1.819a1.773,1.773,0,0,1-.507,1.349,2.129,2.129,0,0,1-1.52.482Q-146.924-15.344-146.924-17.175ZM-143.042,0h-3.723V-13.647h3.723Zm9.656-2.722a8.071,8.071,0,0,0,2.344-.427V-.378a8.357,8.357,0,0,1-3.418.623,4.183,4.183,0,0,1-3.253-1.129,4.915,4.915,0,0,1-1.019-3.387v-6.58h-1.782v-1.575l2.051-1.245,1.074-2.881h2.38v2.905h3.821v2.8h-3.821v6.58a1.453,1.453,0,0,0,.446,1.172A1.758,1.758,0,0,0-133.386-2.722Zm4.944-14.453q0-1.819,2.026-1.819t2.026,1.819a1.773,1.773,0,0,1-.507,1.349,2.129,2.129,0,0,1-1.52.482Q-128.442-15.344-128.442-17.175ZM-124.561,0h-3.723V-13.647h3.723Zm7.153,0-5.2-13.647h3.894l2.637,7.776a13.875,13.875,0,0,1,.549,2.8h.073a12.156,12.156,0,0,1,.549-2.8l2.625-7.776h3.894L-113.586,0Zm19.641,0-.72-1.855h-.1a5.5,5.5,0,0,1-1.935,1.642,6.253,6.253,0,0,1-2.594.458,4.2,4.2,0,0,1-3.094-1.123,4.313,4.313,0,0,1-1.129-3.2,3.6,3.6,0,0,1,1.52-3.2,8.806,8.806,0,0,1,4.584-1.141l2.368-.073v-.6a1.856,1.856,0,0,0-2.124-2.075,9.679,9.679,0,0,0-3.845.989l-1.233-2.515a11.1,11.1,0,0,1,5.225-1.233,6.508,6.508,0,0,1,4.211,1.2,4.421,4.421,0,0,1,1.465,3.638V0Zm-1.1-6.323-1.44.049a4.613,4.613,0,0,0-2.417.586,1.84,1.84,0,0,0-.793,1.636q0,1.575,1.807,1.575a2.861,2.861,0,0,0,2.069-.745A2.615,2.615,0,0,0-98.865-5.2Zm17.053,2.271a3.757,3.757,0,0,1-1.459,3.2,7.208,7.208,0,0,1-4.364,1.1,13.707,13.707,0,0,1-2.539-.2,9.6,9.6,0,0,1-1.965-.592V-3.625a12.979,12.979,0,0,0,2.338.818,9.466,9.466,0,0,0,2.289.33q2.026,0,2.026-1.172a.978.978,0,0,0-.269-.714,3.894,3.894,0,0,0-.928-.623q-.659-.348-1.758-.812a11.042,11.042,0,0,1-2.313-1.221,3.436,3.436,0,0,1-1.074-1.288,4.251,4.251,0,0,1-.336-1.788,3.242,3.242,0,0,1,1.41-2.814,6.868,6.868,0,0,1,4-.995,11.348,11.348,0,0,1,4.8,1.074l-1.123,2.686q-1.025-.439-1.917-.72a6.018,6.018,0,0,0-1.819-.281q-1.648,0-1.648.891a1.048,1.048,0,0,0,.531.867A14.441,14.441,0,0,0-85.608-8.3a10.8,10.8,0,0,1,2.344,1.208,3.574,3.574,0,0,1,1.1,1.294A3.976,3.976,0,0,1-81.812-4.053ZM-63.745,0l-.72-1.855h-.1A5.5,5.5,0,0,1-66.5-.214a6.253,6.253,0,0,1-2.594.458A4.2,4.2,0,0,1-72.186-.879a4.313,4.313,0,0,1-1.129-3.2,3.6,3.6,0,0,1,1.52-3.2,8.806,8.806,0,0,1,4.584-1.141l2.368-.073v-.6a1.856,1.856,0,0,0-2.124-2.075,9.679,9.679,0,0,0-3.845.989L-72.046-12.7a11.1,11.1,0,0,1,5.225-1.233,6.508,6.508,0,0,1,4.211,1.2,4.421,4.421,0,0,1,1.465,3.638V0Zm-1.1-6.323-1.44.049a4.613,4.613,0,0,0-2.417.586,1.84,1.84,0,0,0-.793,1.636q0,1.575,1.807,1.575a2.861,2.861,0,0,0,2.069-.745A2.615,2.615,0,0,0-64.844-5.2Zm18.1-3.125H-45.5a4.147,4.147,0,0,0,2.612-.69,2.414,2.414,0,0,0,.867-2.008,2.475,2.475,0,0,0-.726-1.965,3.4,3.4,0,0,0-2.277-.635h-1.721ZM-38.2-12.28A5.455,5.455,0,0,1-40-7.874a7.7,7.7,0,0,1-5.121,1.526h-1.624V0h-3.784V-17.847h5.7a7.582,7.582,0,0,1,4.938,1.4A5.1,5.1,0,0,1-38.2-12.28ZM-26.453,0l-.72-1.855h-.1A5.5,5.5,0,0,1-29.205-.214,6.253,6.253,0,0,1-31.8.244,4.2,4.2,0,0,1-34.894-.879a4.313,4.313,0,0,1-1.129-3.2,3.6,3.6,0,0,1,1.52-3.2,8.806,8.806,0,0,1,4.584-1.141l2.368-.073v-.6a1.856,1.856,0,0,0-2.124-2.075,9.679,9.679,0,0,0-3.845.989L-34.753-12.7a11.1,11.1,0,0,1,5.225-1.233,6.508,6.508,0,0,1,4.211,1.2,4.421,4.421,0,0,1,1.465,3.638V0Zm-1.1-6.323-1.44.049a4.613,4.613,0,0,0-2.417.586A1.84,1.84,0,0,0-32.2-4.053q0,1.575,1.807,1.575a2.861,2.861,0,0,0,2.069-.745A2.615,2.615,0,0,0-27.551-5.2ZM-12.4-13.9a6,6,0,0,1,1.257.11l-.281,3.491a4.265,4.265,0,0,0-1.1-.122,3.948,3.948,0,0,0-2.777.916A3.31,3.31,0,0,0-16.3-6.946V0H-20.02V-13.647h2.82l.549,2.295h.183A5.13,5.13,0,0,1-14.752-13.2,4.229,4.229,0,0,1-12.4-13.9ZM-2.917-2.722A8.071,8.071,0,0,0-.574-3.149V-.378A8.357,8.357,0,0,1-3.992.244,4.183,4.183,0,0,1-7.245-.885,4.915,4.915,0,0,1-8.264-4.272v-6.58h-1.782v-1.575L-8-13.672l1.074-2.881h2.38v2.905H-.72v2.8H-4.541v6.58A1.453,1.453,0,0,0-4.1-3.1,1.758,1.758,0,0,0-2.917-2.722ZM2.026-17.175q0-1.819,2.026-1.819t2.026,1.819a1.773,1.773,0,0,1-.507,1.349,2.129,2.129,0,0,1-1.52.482Q2.026-15.344,2.026-17.175ZM5.908,0H2.185V-13.647H5.908ZM17.432-13.9a6,6,0,0,1,1.257.11L18.408-10.3a4.265,4.265,0,0,0-1.1-.122,3.948,3.948,0,0,0-2.777.916,3.31,3.31,0,0,0-.995,2.563V0H9.814V-13.647h2.82l.549,2.295h.183A5.13,5.13,0,0,1,15.082-13.2,4.229,4.229,0,0,1,17.432-13.9ZM31.982.244A4.433,4.433,0,0,1,28.2-1.624,8.586,8.586,0,0,1,26.831-6.8a8.594,8.594,0,0,1,1.4-5.231A4.54,4.54,0,0,1,32.08-13.9a4.452,4.452,0,0,1,3.931,2h.122a15.221,15.221,0,0,1-.281-2.722v-4.37h3.735V0H36.731l-.72-1.77h-.159A4.261,4.261,0,0,1,31.982.244Zm1.306-2.966a2.523,2.523,0,0,0,2.094-.83,4.829,4.829,0,0,0,.726-2.82v-.4a5.58,5.58,0,0,0-.677-3.149,2.516,2.516,0,0,0-2.2-.952,2.185,2.185,0,0,0-1.935,1.056,5.633,5.633,0,0,0-.69,3.07,5.339,5.339,0,0,0,.7,3.021A2.273,2.273,0,0,0,33.289-2.722Zm15.845-8.533a2.362,2.362,0,0,0-1.855.751,3.475,3.475,0,0,0-.769,2.13h5.225a3.1,3.1,0,0,0-.72-2.13A2.439,2.439,0,0,0,49.133-11.255Zm.525,11.5a7.044,7.044,0,0,1-5.151-1.819,6.887,6.887,0,0,1-1.855-5.151,7.575,7.575,0,0,1,1.715-5.3A6.107,6.107,0,0,1,49.109-13.9a6.011,6.011,0,0,1,4.5,1.648A6.235,6.235,0,0,1,55.225-7.7V-5.9h-8.8a3.584,3.584,0,0,0,.94,2.478,3.307,3.307,0,0,0,2.466.891,10.236,10.236,0,0,0,2.332-.256A11.666,11.666,0,0,0,54.456-3.6V-.72a8.742,8.742,0,0,1-2.087.726A13.161,13.161,0,0,1,49.658.244ZM65.039,0V-17.847h3.784V-3.125h7.239V0ZM82.593,0H78.87V-13.647h3.723ZM78.687-15.149v-.33a34.368,34.368,0,0,0,2.869-3.674H85.73v.256q-.635.635-2.167,1.886t-2.4,1.862ZM92.151-2.673a2.517,2.517,0,0,0,2.075-.812,4.845,4.845,0,0,0,.72-2.838v-.452a5.58,5.58,0,0,0-.677-3.149,2.489,2.489,0,0,0-2.179-.952q-2.625,0-2.625,4.126a5.737,5.737,0,0,0,.653,3.064A2.246,2.246,0,0,0,92.151-2.673ZM90.82.244a4.434,4.434,0,0,1-3.784-1.862A8.61,8.61,0,0,1,85.669-6.8a8.6,8.6,0,0,1,1.4-5.225,4.511,4.511,0,0,1,3.827-1.88,4.938,4.938,0,0,1,2.258.488,4.718,4.718,0,0,1,1.7,1.514h.1l.33-1.746h3.149V6.006H94.69V.281a18.07,18.07,0,0,1,.159-2.051H94.69A3.961,3.961,0,0,1,93.1-.269,4.889,4.889,0,0,1,90.82.244ZM111.987,0l-.5-1.746h-.2a3.928,3.928,0,0,1-1.7,1.471,5.793,5.793,0,0,1-2.5.519,4.765,4.765,0,0,1-3.625-1.288,5.182,5.182,0,0,1-1.221-3.7v-8.9h3.723v7.971a3.829,3.829,0,0,0,.525,2.216,1.91,1.91,0,0,0,1.672.739,2.514,2.514,0,0,0,2.258-1.044,6.473,6.473,0,0,0,.7-3.461v-6.421h3.723V0Zm6.6-17.175q0-1.819,2.026-1.819t2.026,1.819a1.773,1.773,0,0,1-.507,1.349,2.129,2.129,0,0,1-1.52.482Q118.591-15.344,118.591-17.175ZM122.473,0H118.75V-13.647h3.723ZM130.7.244a4.433,4.433,0,0,1-3.778-1.868A8.586,8.586,0,0,1,125.549-6.8a8.6,8.6,0,0,1,1.4-5.231A4.54,4.54,0,0,1,130.8-13.9a4.452,4.452,0,0,1,3.931,2h.122a15.22,15.22,0,0,1-.281-2.722v-4.37h3.735V0h-2.856l-.72-1.77h-.159A4.261,4.261,0,0,1,130.7.244Zm1.306-2.966a2.523,2.523,0,0,0,2.094-.83,4.829,4.829,0,0,0,.726-2.82v-.4a5.58,5.58,0,0,0-.677-3.149,2.516,2.516,0,0,0-2.2-.952,2.185,2.185,0,0,0-1.935,1.056,5.634,5.634,0,0,0-.69,3.07,5.339,5.339,0,0,0,.7,3.021A2.273,2.273,0,0,0,132.007-2.722Zm13.159-4.126a5.728,5.728,0,0,0,.665,3.064A2.379,2.379,0,0,0,148-2.747a2.341,2.341,0,0,0,2.142-1.031,5.81,5.81,0,0,0,.653-3.07,5.637,5.637,0,0,0-.659-3.04,2.383,2.383,0,0,0-2.161-1.013,2.376,2.376,0,0,0-2.148,1.007A5.632,5.632,0,0,0,145.166-6.848Zm9.436,0a7.334,7.334,0,0,1-1.758,5.212,6.374,6.374,0,0,1-4.9,1.88,6.848,6.848,0,0,1-3.467-.861,5.727,5.727,0,0,1-2.307-2.472,8.306,8.306,0,0,1-.806-3.76,7.293,7.293,0,0,1,1.746-5.2,6.41,6.41,0,0,1,4.907-1.855,6.886,6.886,0,0,1,3.467.854A5.7,5.7,0,0,1,153.8-10.6,8.229,8.229,0,0,1,154.6-6.848Zm12.6,2.8a3.757,3.757,0,0,1-1.459,3.2,7.208,7.208,0,0,1-4.364,1.1,13.707,13.707,0,0,1-2.539-.2,9.6,9.6,0,0,1-1.965-.592V-3.625a12.979,12.979,0,0,0,2.338.818,9.466,9.466,0,0,0,2.289.33q2.026,0,2.026-1.172a.978.978,0,0,0-.269-.714,3.894,3.894,0,0,0-.928-.623q-.659-.348-1.758-.812a11.043,11.043,0,0,1-2.313-1.221,3.436,3.436,0,0,1-1.074-1.288,4.251,4.251,0,0,1-.336-1.788,3.242,3.242,0,0,1,1.41-2.814,6.868,6.868,0,0,1,4-.995,11.348,11.348,0,0,1,4.8,1.074l-1.123,2.686q-1.025-.439-1.917-.72a6.018,6.018,0,0,0-1.819-.281q-1.648,0-1.648.891a1.048,1.048,0,0,0,.531.867A14.441,14.441,0,0,0,163.4-8.3a10.8,10.8,0,0,1,2.344,1.208,3.574,3.574,0,0,1,1.1,1.294A3.976,3.976,0,0,1,167.2-4.053Zm17.273-10.9a3.856,3.856,0,0,0-3.308,1.605,7.468,7.468,0,0,0-1.172,4.474q0,5.969,4.48,5.969a14.162,14.162,0,0,0,4.553-.94V-.671a12.645,12.645,0,0,1-4.907.916,7.484,7.484,0,0,1-5.957-2.362Q176.1-4.48,176.1-8.9a11.073,11.073,0,0,1,1.013-4.877,7.323,7.323,0,0,1,2.911-3.21,8.613,8.613,0,0,1,4.449-1.117,12.009,12.009,0,0,1,5.225,1.257l-1.221,3.076a20.2,20.2,0,0,0-2.014-.83A6.009,6.009,0,0,0,184.473-14.954ZM195.5-6.848a5.728,5.728,0,0,0,.665,3.064,2.379,2.379,0,0,0,2.167,1.038,2.341,2.341,0,0,0,2.142-1.031,5.81,5.81,0,0,0,.653-3.07,5.637,5.637,0,0,0-.659-3.04A2.383,2.383,0,0,0,198.3-10.9a2.376,2.376,0,0,0-2.148,1.007A5.632,5.632,0,0,0,195.5-6.848Zm9.436,0a7.334,7.334,0,0,1-1.758,5.212,6.374,6.374,0,0,1-4.9,1.88,6.848,6.848,0,0,1-3.467-.861A5.727,5.727,0,0,1,192.5-3.088a8.306,8.306,0,0,1-.806-3.76,7.293,7.293,0,0,1,1.746-5.2,6.41,6.41,0,0,1,4.907-1.855,6.886,6.886,0,0,1,3.467.854,5.7,5.7,0,0,1,2.307,2.454A8.229,8.229,0,0,1,204.932-6.848ZM220.605,0h-3.723V-7.971a3.829,3.829,0,0,0-.525-2.216,1.91,1.91,0,0,0-1.672-.739,2.514,2.514,0,0,0-2.258,1.044,6.473,6.473,0,0,0-.7,3.461V0h-3.723V-13.647h2.844l.5,1.746h.208a3.935,3.935,0,0,1,1.715-1.5,5.84,5.84,0,0,1,2.484-.507,4.773,4.773,0,0,1,3.613,1.288A5.168,5.168,0,0,1,220.605-8.9Zm9.375.244q-6.372,0-6.372-6.995a7.461,7.461,0,0,1,1.733-5.316A6.5,6.5,0,0,1,230.31-13.9a9.471,9.471,0,0,1,4.248.928l-1.1,2.881q-.879-.354-1.636-.58a5.27,5.27,0,0,0-1.514-.226q-2.905,0-2.905,4.126,0,4,2.905,4a6.624,6.624,0,0,0,1.99-.287,7.184,7.184,0,0,0,1.831-.9V-.769a6,6,0,0,1-1.825.793A10.263,10.263,0,0,1,229.98.244Zm12.964-11.5a2.362,2.362,0,0,0-1.855.751,3.475,3.475,0,0,0-.769,2.13h5.225a3.1,3.1,0,0,0-.72-2.13A2.439,2.439,0,0,0,242.944-11.255Zm.525,11.5a7.044,7.044,0,0,1-5.151-1.819,6.887,6.887,0,0,1-1.855-5.151,7.575,7.575,0,0,1,1.715-5.3A6.107,6.107,0,0,1,242.92-13.9a6.011,6.011,0,0,1,4.5,1.648A6.235,6.235,0,0,1,249.036-7.7V-5.9h-8.8a3.584,3.584,0,0,0,.94,2.478,3.307,3.307,0,0,0,2.466.891,10.236,10.236,0,0,0,2.332-.256,11.666,11.666,0,0,0,2.295-.818V-.72a8.742,8.742,0,0,1-2.087.726A13.161,13.161,0,0,1,243.469.244ZM264.661,0h-3.723V-7.971a3.829,3.829,0,0,0-.525-2.216,1.91,1.91,0,0,0-1.672-.739,2.514,2.514,0,0,0-2.258,1.044,6.473,6.473,0,0,0-.7,3.461V0h-3.723V-13.647h2.844l.5,1.746h.208a3.934,3.934,0,0,1,1.715-1.5,5.84,5.84,0,0,1,2.484-.507,4.773,4.773,0,0,1,3.613,1.288A5.168,5.168,0,0,1,264.661-8.9Zm9.583-2.722a8.071,8.071,0,0,0,2.344-.427V-.378a8.357,8.357,0,0,1-3.418.623,4.183,4.183,0,0,1-3.253-1.129A4.915,4.915,0,0,1,268.9-4.272v-6.58h-1.782v-1.575l2.051-1.245,1.074-2.881h2.38v2.905h3.821v2.8H272.62v6.58a1.454,1.454,0,0,0,.446,1.172A1.758,1.758,0,0,0,274.243-2.722ZM286.963-13.9a6,6,0,0,1,1.257.11l-.281,3.491a4.265,4.265,0,0,0-1.1-.122,3.948,3.948,0,0,0-2.777.916,3.31,3.31,0,0,0-.995,2.563V0h-3.723V-13.647h2.82l.549,2.295h.183a5.13,5.13,0,0,1,1.715-1.849A4.229,4.229,0,0,1,286.963-13.9ZM298.865,0l-.72-1.855h-.1a5.5,5.5,0,0,1-1.935,1.642,6.253,6.253,0,0,1-2.594.458,4.2,4.2,0,0,1-3.094-1.123,4.313,4.313,0,0,1-1.129-3.2,3.6,3.6,0,0,1,1.52-3.2A8.806,8.806,0,0,1,295.4-8.423l2.368-.073v-.6a1.856,1.856,0,0,0-2.124-2.075,9.679,9.679,0,0,0-3.845.989L290.564-12.7a11.1,11.1,0,0,1,5.225-1.233,6.508,6.508,0,0,1,4.211,1.2,4.421,4.421,0,0,1,1.465,3.638V0Zm-1.1-6.323-1.44.049a4.613,4.613,0,0,0-2.417.586,1.84,1.84,0,0,0-.793,1.636q0,1.575,1.807,1.575a2.861,2.861,0,0,0,2.069-.745,2.616,2.616,0,0,0,.775-1.978ZM309.619.244a4.433,4.433,0,0,1-3.778-1.868A8.586,8.586,0,0,1,304.468-6.8a8.6,8.6,0,0,1,1.4-5.231,4.54,4.54,0,0,1,3.851-1.874,4.452,4.452,0,0,1,3.931,2h.122a15.222,15.222,0,0,1-.281-2.722v-4.37h3.735V0h-2.856l-.72-1.77h-.159A4.26,4.26,0,0,1,309.619.244Zm1.306-2.966a2.523,2.523,0,0,0,2.094-.83,4.829,4.829,0,0,0,.726-2.82v-.4a5.58,5.58,0,0,0-.677-3.149,2.516,2.516,0,0,0-2.2-.952,2.185,2.185,0,0,0-1.935,1.056,5.633,5.633,0,0,0-.69,3.07,5.339,5.339,0,0,0,.7,3.021A2.273,2.273,0,0,0,310.925-2.722Zm13.159-4.126a5.728,5.728,0,0,0,.665,3.064,2.379,2.379,0,0,0,2.167,1.038,2.341,2.341,0,0,0,2.142-1.031,5.81,5.81,0,0,0,.653-3.07,5.637,5.637,0,0,0-.659-3.04,2.383,2.383,0,0,0-2.161-1.013,2.376,2.376,0,0,0-2.148,1.007A5.632,5.632,0,0,0,324.084-6.848Zm9.436,0a7.334,7.334,0,0,1-1.758,5.212,6.374,6.374,0,0,1-4.9,1.88A6.848,6.848,0,0,1,323.4-.616a5.727,5.727,0,0,1-2.307-2.472,8.306,8.306,0,0,1-.806-3.76,7.293,7.293,0,0,1,1.746-5.2,6.41,6.41,0,0,1,4.907-1.855,6.886,6.886,0,0,1,3.467.854,5.7,5.7,0,0,1,2.307,2.454A8.229,8.229,0,0,1,333.521-6.848Zm12.6,2.8a3.757,3.757,0,0,1-1.459,3.2A7.208,7.208,0,0,1,340.3.244a13.707,13.707,0,0,1-2.539-.2,9.6,9.6,0,0,1-1.965-.592V-3.625a12.979,12.979,0,0,0,2.338.818,9.466,9.466,0,0,0,2.289.33q2.026,0,2.026-1.172a.978.978,0,0,0-.269-.714,3.894,3.894,0,0,0-.928-.623q-.659-.348-1.758-.812a11.042,11.042,0,0,1-2.313-1.221A3.436,3.436,0,0,1,336.1-8.307a4.251,4.251,0,0,1-.336-1.788,3.242,3.242,0,0,1,1.41-2.814,6.868,6.868,0,0,1,4-.995,11.348,11.348,0,0,1,4.8,1.074l-1.123,2.686q-1.025-.439-1.917-.72a6.018,6.018,0,0,0-1.819-.281q-1.648,0-1.648.891a1.048,1.048,0,0,0,.531.867A14.441,14.441,0,0,0,342.322-8.3a10.8,10.8,0,0,1,2.344,1.208,3.574,3.574,0,0,1,1.1,1.294A3.976,3.976,0,0,1,346.118-4.053Z" transform="translate(771 820)" fill="#fff"/>
    <rect id="Rectángulo_2079" data-name="Rectángulo 2079" width="842" height="44" rx="5" transform="translate(390 855)" fill="#fdac29"/>
    <path id="Trazado_17175" data-name="Trazado 17175" d="M-366.284-4.956a4.613,4.613,0,0,1-1.74,3.809,7.556,7.556,0,0,1-4.84,1.392A11.367,11.367,0,0,1-377.917-.83V-4.346A20.827,20.827,0,0,0-374.86-3.21a9.048,9.048,0,0,0,2.289.33,3.254,3.254,0,0,0,1.91-.476A1.628,1.628,0,0,0-370-4.773a1.563,1.563,0,0,0-.293-.934,3.278,3.278,0,0,0-.861-.787A22.135,22.135,0,0,0-373.462-7.7a10.965,10.965,0,0,1-2.454-1.477,5.545,5.545,0,0,1-1.306-1.648,4.7,4.7,0,0,1-.488-2.2,4.612,4.612,0,0,1,1.605-3.723,6.67,6.67,0,0,1,4.437-1.355,10.478,10.478,0,0,1,2.655.33,18.25,18.25,0,0,1,2.643.928L-367.59-13.9a17.86,17.86,0,0,0-2.362-.818,7.6,7.6,0,0,0-1.837-.232,2.433,2.433,0,0,0-1.648.5,1.651,1.651,0,0,0-.574,1.306,1.616,1.616,0,0,0,.232.873,2.55,2.55,0,0,0,.739.72,22.837,22.837,0,0,0,2.4,1.251,9.544,9.544,0,0,1,3.43,2.4A4.681,4.681,0,0,1-366.284-4.956Zm5.908-1.892a5.728,5.728,0,0,0,.665,3.064,2.379,2.379,0,0,0,2.167,1.038A2.341,2.341,0,0,0-355.4-3.778a5.81,5.81,0,0,0,.653-3.07,5.637,5.637,0,0,0-.659-3.04,2.383,2.383,0,0,0-2.161-1.013,2.376,2.376,0,0,0-2.148,1.007A5.632,5.632,0,0,0-360.376-6.848Zm9.436,0A7.334,7.334,0,0,1-352.7-1.636a6.374,6.374,0,0,1-4.9,1.88,6.848,6.848,0,0,1-3.467-.861,5.727,5.727,0,0,1-2.307-2.472,8.306,8.306,0,0,1-.806-3.76,7.293,7.293,0,0,1,1.746-5.2A6.41,6.41,0,0,1-357.52-13.9a6.886,6.886,0,0,1,3.467.854,5.7,5.7,0,0,1,2.307,2.454A8.229,8.229,0,0,1-350.94-6.848Zm6.8,6.848h-3.723V-18.994h3.723Zm13.574,0-.5-1.746h-.2a3.928,3.928,0,0,1-1.7,1.471,5.793,5.793,0,0,1-2.5.519,4.765,4.765,0,0,1-3.625-1.288,5.182,5.182,0,0,1-1.221-3.7v-8.9h3.723v7.971a3.829,3.829,0,0,0,.525,2.216,1.91,1.91,0,0,0,1.672.739,2.514,2.514,0,0,0,2.258-1.044,6.473,6.473,0,0,0,.7-3.461v-6.421h3.723V0Zm12.3.244q-6.372,0-6.372-6.995a7.461,7.461,0,0,1,1.733-5.316,6.5,6.5,0,0,1,4.968-1.837,9.472,9.472,0,0,1,4.248.928l-1.1,2.881q-.879-.354-1.636-.58a5.27,5.27,0,0,0-1.514-.226q-2.905,0-2.905,4.126,0,4,2.905,4a6.624,6.624,0,0,0,1.99-.287,7.184,7.184,0,0,0,1.831-.9V-.769a6,6,0,0,1-1.825.793A10.263,10.263,0,0,1-318.262.244Zm7.153-17.419q0-1.819,2.026-1.819t2.026,1.819a1.773,1.773,0,0,1-.507,1.349,2.129,2.129,0,0,1-1.52.482Q-311.108-15.344-311.108-17.175ZM-307.227,0h-3.723V-13.647h3.723Zm6.873-6.848a5.728,5.728,0,0,0,.665,3.064,2.379,2.379,0,0,0,2.167,1.038,2.341,2.341,0,0,0,2.142-1.031,5.81,5.81,0,0,0,.653-3.07,5.637,5.637,0,0,0-.659-3.04,2.383,2.383,0,0,0-2.161-1.013,2.376,2.376,0,0,0-2.148,1.007A5.632,5.632,0,0,0-300.354-6.848Zm9.436,0a7.334,7.334,0,0,1-1.758,5.212,6.374,6.374,0,0,1-4.9,1.88,6.848,6.848,0,0,1-3.467-.861,5.727,5.727,0,0,1-2.307-2.472,8.306,8.306,0,0,1-.806-3.76,7.293,7.293,0,0,1,1.746-5.2A6.41,6.41,0,0,1-297.5-13.9a6.886,6.886,0,0,1,3.467.854,5.7,5.7,0,0,1,2.307,2.454A8.229,8.229,0,0,1-290.918-6.848ZM-275.244,0h-3.723V-7.971a3.829,3.829,0,0,0-.525-2.216,1.91,1.91,0,0,0-1.672-.739,2.514,2.514,0,0,0-2.258,1.044,6.473,6.473,0,0,0-.7,3.461V0h-3.723V-13.647H-285l.5,1.746h.208a3.934,3.934,0,0,1,1.715-1.5,5.84,5.84,0,0,1,2.484-.507,4.773,4.773,0,0,1,3.613,1.288A5.168,5.168,0,0,1-275.244-8.9Zm9.485-11.255a2.362,2.362,0,0,0-1.855.751,3.474,3.474,0,0,0-.769,2.13h5.225a3.1,3.1,0,0,0-.72-2.13A2.439,2.439,0,0,0-265.759-11.255Zm.525,11.5a7.044,7.044,0,0,1-5.151-1.819,6.887,6.887,0,0,1-1.855-5.151,7.574,7.574,0,0,1,1.715-5.3,6.107,6.107,0,0,1,4.742-1.874,6.011,6.011,0,0,1,4.5,1.648A6.235,6.235,0,0,1-259.668-7.7V-5.9h-8.8a3.584,3.584,0,0,0,.94,2.478,3.307,3.307,0,0,0,2.466.891,10.237,10.237,0,0,0,2.332-.256,11.666,11.666,0,0,0,2.295-.818V-.72a8.742,8.742,0,0,1-2.087.726A13.161,13.161,0,0,1-265.234.244Zm18.115-4.3a3.757,3.757,0,0,1-1.459,3.2,7.208,7.208,0,0,1-4.364,1.1,13.707,13.707,0,0,1-2.539-.2,9.6,9.6,0,0,1-1.965-.592V-3.625a12.979,12.979,0,0,0,2.338.818,9.466,9.466,0,0,0,2.289.33q2.026,0,2.026-1.172a.978.978,0,0,0-.269-.714,3.894,3.894,0,0,0-.928-.623q-.659-.348-1.758-.812a11.043,11.043,0,0,1-2.313-1.221,3.436,3.436,0,0,1-1.074-1.288,4.251,4.251,0,0,1-.336-1.788,3.242,3.242,0,0,1,1.41-2.814,6.868,6.868,0,0,1,4-.995,11.348,11.348,0,0,1,4.8,1.074l-1.123,2.686q-1.025-.439-1.917-.72a6.018,6.018,0,0,0-1.819-.281q-1.648,0-1.648.891a1.048,1.048,0,0,0,.531.867A14.441,14.441,0,0,0-250.916-8.3a10.8,10.8,0,0,1,2.344,1.208,3.574,3.574,0,0,1,1.1,1.294A3.976,3.976,0,0,1-247.119-4.053ZM-221.594,0h-4.81l-7.764-13.5h-.11q.232,3.577.232,5.1V0h-3.381V-17.847h4.773L-224.9-4.48h.085Q-225-7.959-225-9.4v-8.447h3.406Zm13.867,0-.5-1.746h-.2a3.928,3.928,0,0,1-1.7,1.471,5.793,5.793,0,0,1-2.5.519,4.765,4.765,0,0,1-3.625-1.288,5.182,5.182,0,0,1-1.221-3.7v-8.9h3.723v7.971a3.829,3.829,0,0,0,.525,2.216,1.91,1.91,0,0,0,1.672.739,2.514,2.514,0,0,0,2.258-1.044,6.473,6.473,0,0,0,.7-3.461v-6.421h3.723V0Zm12.512-2.722a8.071,8.071,0,0,0,2.344-.427V-.378a8.357,8.357,0,0,1-3.418.623,4.183,4.183,0,0,1-3.253-1.129,4.915,4.915,0,0,1-1.019-3.387v-6.58h-1.782v-1.575l2.051-1.245,1.074-2.881h2.38v2.905h3.821v2.8h-3.821v6.58a1.453,1.453,0,0,0,.446,1.172A1.758,1.758,0,0,0-195.215-2.722ZM-182.5-13.9a6,6,0,0,1,1.257.11l-.281,3.491a4.265,4.265,0,0,0-1.1-.122,3.948,3.948,0,0,0-2.777.916,3.309,3.309,0,0,0-.995,2.563V0h-3.723V-13.647h2.82l.549,2.295h.183a5.13,5.13,0,0,1,1.715-1.849A4.229,4.229,0,0,1-182.5-13.9Zm3.577-3.271q0-1.819,2.026-1.819t2.026,1.819a1.773,1.773,0,0,1-.507,1.349,2.129,2.129,0,0,1-1.52.482Q-178.918-15.344-178.918-17.175ZM-175.037,0h-3.723V-13.647h3.723Zm9.656-2.722a8.071,8.071,0,0,0,2.344-.427V-.378a8.357,8.357,0,0,1-3.418.623,4.183,4.183,0,0,1-3.253-1.129,4.915,4.915,0,0,1-1.019-3.387v-6.58h-1.782v-1.575l2.051-1.245,1.074-2.881H-167v2.905h3.821v2.8H-167v6.58a1.453,1.453,0,0,0,.446,1.172A1.758,1.758,0,0,0-165.381-2.722Zm4.944-14.453q0-1.819,2.026-1.819t2.026,1.819a1.773,1.773,0,0,1-.507,1.349,2.129,2.129,0,0,1-1.52.482Q-160.437-15.344-160.437-17.175ZM-156.555,0h-3.723V-13.647h3.723Zm7.153,0-5.2-13.647h3.894l2.637,7.776a13.875,13.875,0,0,1,.549,2.8h.073a12.157,12.157,0,0,1,.549-2.8l2.625-7.776h3.894L-145.581,0Zm19.641,0-.72-1.855h-.1a5.5,5.5,0,0,1-1.935,1.642,6.253,6.253,0,0,1-2.594.458A4.2,4.2,0,0,1-138.2-.879a4.313,4.313,0,0,1-1.129-3.2,3.6,3.6,0,0,1,1.52-3.2,8.806,8.806,0,0,1,4.584-1.141l2.368-.073v-.6a1.856,1.856,0,0,0-2.124-2.075,9.679,9.679,0,0,0-3.845.989l-1.233-2.515a11.1,11.1,0,0,1,5.225-1.233,6.508,6.508,0,0,1,4.211,1.2,4.421,4.421,0,0,1,1.465,3.638V0Zm-1.1-6.323-1.44.049a4.613,4.613,0,0,0-2.417.586,1.84,1.84,0,0,0-.793,1.636q0,1.575,1.807,1.575a2.861,2.861,0,0,0,2.069-.745,2.615,2.615,0,0,0,.775-1.978Zm17.053,2.271a3.757,3.757,0,0,1-1.459,3.2,7.208,7.208,0,0,1-4.364,1.1,13.707,13.707,0,0,1-2.539-.2,9.6,9.6,0,0,1-1.965-.592V-3.625a12.979,12.979,0,0,0,2.338.818,9.466,9.466,0,0,0,2.289.33q2.026,0,2.026-1.172a.978.978,0,0,0-.269-.714,3.894,3.894,0,0,0-.928-.623q-.659-.348-1.758-.812a11.042,11.042,0,0,1-2.313-1.221,3.436,3.436,0,0,1-1.074-1.288,4.251,4.251,0,0,1-.336-1.788,3.242,3.242,0,0,1,1.41-2.814,6.868,6.868,0,0,1,4-.995,11.348,11.348,0,0,1,4.8,1.074l-1.123,2.686q-1.025-.439-1.917-.72a6.018,6.018,0,0,0-1.819-.281q-1.648,0-1.648.891a1.048,1.048,0,0,0,.531.867A14.441,14.441,0,0,0-117.6-8.3a10.8,10.8,0,0,1,2.344,1.208,3.574,3.574,0,0,1,1.1,1.294A3.976,3.976,0,0,1-113.806-4.053ZM-95.74,0l-.72-1.855h-.1A5.5,5.5,0,0,1-98.492-.214a6.253,6.253,0,0,1-2.594.458,4.2,4.2,0,0,1-3.094-1.123,4.313,4.313,0,0,1-1.129-3.2,3.6,3.6,0,0,1,1.52-3.2,8.806,8.806,0,0,1,4.584-1.141l2.368-.073v-.6a1.856,1.856,0,0,0-2.124-2.075,9.679,9.679,0,0,0-3.845.989l-1.233-2.515a11.1,11.1,0,0,1,5.225-1.233,6.508,6.508,0,0,1,4.211,1.2A4.421,4.421,0,0,1-93.14-9.094V0Zm-1.1-6.323-1.44.049a4.613,4.613,0,0,0-2.417.586,1.84,1.84,0,0,0-.793,1.636q0,1.575,1.807,1.575a2.861,2.861,0,0,0,2.069-.745A2.615,2.615,0,0,0-96.838-5.2Zm18.1-3.125h1.245a4.147,4.147,0,0,0,2.612-.69,2.414,2.414,0,0,0,.867-2.008,2.475,2.475,0,0,0-.726-1.965,3.4,3.4,0,0,0-2.277-.635h-1.721Zm8.545-2.832a5.455,5.455,0,0,1-1.8,4.407,7.7,7.7,0,0,1-5.121,1.526h-1.624V0H-82.52V-17.847h5.7a7.582,7.582,0,0,1,4.938,1.4A5.1,5.1,0,0,1-70.19-12.28ZM-58.447,0l-.72-1.855h-.1A5.5,5.5,0,0,1-61.2-.214a6.253,6.253,0,0,1-2.594.458A4.2,4.2,0,0,1-66.888-.879a4.313,4.313,0,0,1-1.129-3.2,3.6,3.6,0,0,1,1.52-3.2,8.806,8.806,0,0,1,4.584-1.141l2.368-.073v-.6a1.856,1.856,0,0,0-2.124-2.075,9.679,9.679,0,0,0-3.845.989L-66.748-12.7a11.1,11.1,0,0,1,5.225-1.233,6.508,6.508,0,0,1,4.211,1.2,4.421,4.421,0,0,1,1.465,3.638V0Zm-1.1-6.323-1.44.049a4.613,4.613,0,0,0-2.417.586A1.84,1.84,0,0,0-64.2-4.053q0,1.575,1.807,1.575a2.861,2.861,0,0,0,2.069-.745A2.615,2.615,0,0,0-59.546-5.2ZM-44.4-13.9a6,6,0,0,1,1.257.11L-43.42-10.3a4.265,4.265,0,0,0-1.1-.122,3.948,3.948,0,0,0-2.777.916,3.31,3.31,0,0,0-.995,2.563V0h-3.723V-13.647h2.82l.549,2.295h.183A5.13,5.13,0,0,1-46.747-13.2,4.229,4.229,0,0,1-44.4-13.9Zm9.485,11.182a8.071,8.071,0,0,0,2.344-.427V-.378a8.357,8.357,0,0,1-3.418.623A4.183,4.183,0,0,1-39.24-.885a4.915,4.915,0,0,1-1.019-3.387v-6.58h-1.782v-1.575l2.051-1.245,1.074-2.881h2.38v2.905h3.821v2.8h-3.821v6.58A1.453,1.453,0,0,0-36.09-3.1,1.758,1.758,0,0,0-34.912-2.722Zm4.944-14.453q0-1.819,2.026-1.819t2.026,1.819a1.773,1.773,0,0,1-.507,1.349,2.129,2.129,0,0,1-1.52.482Q-29.968-15.344-29.968-17.175ZM-26.086,0H-29.81V-13.647h3.723Zm11.523-13.9a6,6,0,0,1,1.257.11l-.281,3.491a4.265,4.265,0,0,0-1.1-.122,3.948,3.948,0,0,0-2.777.916,3.31,3.31,0,0,0-.995,2.563V0H-22.18V-13.647h2.82l.549,2.295h.183A5.13,5.13,0,0,1-16.913-13.2,4.229,4.229,0,0,1-14.563-13.9ZM-.012.244A4.433,4.433,0,0,1-3.79-1.624,8.586,8.586,0,0,1-5.164-6.8a8.594,8.594,0,0,1,1.4-5.231A4.54,4.54,0,0,1,.085-13.9a4.452,4.452,0,0,1,3.931,2h.122a15.221,15.221,0,0,1-.281-2.722v-4.37H7.593V0H4.736l-.72-1.77H3.857A4.261,4.261,0,0,1-.012.244ZM1.294-2.722a2.523,2.523,0,0,0,2.094-.83,4.829,4.829,0,0,0,.726-2.82v-.4a5.58,5.58,0,0,0-.677-3.149,2.516,2.516,0,0,0-2.2-.952A2.185,2.185,0,0,0-.7-9.821a5.633,5.633,0,0,0-.69,3.07A5.339,5.339,0,0,0-.7-3.729,2.273,2.273,0,0,0,1.294-2.722Zm15.845-8.533a2.362,2.362,0,0,0-1.855.751,3.475,3.475,0,0,0-.769,2.13h5.225a3.1,3.1,0,0,0-.72-2.13A2.439,2.439,0,0,0,17.139-11.255Zm.525,11.5a7.044,7.044,0,0,1-5.151-1.819,6.887,6.887,0,0,1-1.855-5.151,7.575,7.575,0,0,1,1.715-5.3A6.107,6.107,0,0,1,17.114-13.9a6.011,6.011,0,0,1,4.5,1.648A6.235,6.235,0,0,1,23.23-7.7V-5.9h-8.8a3.584,3.584,0,0,0,.94,2.478,3.307,3.307,0,0,0,2.466.891,10.236,10.236,0,0,0,2.332-.256A11.666,11.666,0,0,0,22.461-3.6V-.72a8.742,8.742,0,0,1-2.087.726A13.161,13.161,0,0,1,17.664.244ZM43.97,0,42.676-4.248H36.169L34.875,0H30.8l6.3-17.92h4.626L48.047,0Zm-2.2-7.422q-1.794-5.774-2.02-6.531t-.323-1.2q-.4,1.563-2.307,7.727ZM57.593-13.9a4.414,4.414,0,0,1,3.784,1.886,8.654,8.654,0,0,1,1.367,5.17,8.5,8.5,0,0,1-1.41,5.237A4.564,4.564,0,0,1,57.5.244,4.526,4.526,0,0,1,53.723-1.5h-.256L52.844,0H50V-18.994h3.723v4.419q0,.842-.146,2.7h.146A4.307,4.307,0,0,1,57.593-13.9Zm-1.2,2.979a2.351,2.351,0,0,0-2.014.848,4.871,4.871,0,0,0-.659,2.8v.4a5.75,5.75,0,0,0,.653,3.149,2.331,2.331,0,0,0,2.069.952A2.076,2.076,0,0,0,58.27-3.827a5.715,5.715,0,0,0,.677-3.07,5.415,5.415,0,0,0-.684-3.021A2.143,2.143,0,0,0,56.4-10.925Zm12.39,4.077a5.728,5.728,0,0,0,.665,3.064,2.379,2.379,0,0,0,2.167,1.038,2.341,2.341,0,0,0,2.142-1.031,5.81,5.81,0,0,0,.653-3.07,5.637,5.637,0,0,0-.659-3.04A2.383,2.383,0,0,0,71.594-10.9a2.376,2.376,0,0,0-2.148,1.007A5.632,5.632,0,0,0,68.787-6.848Zm9.436,0a7.334,7.334,0,0,1-1.758,5.212,6.374,6.374,0,0,1-4.9,1.88A6.848,6.848,0,0,1,68.1-.616,5.727,5.727,0,0,1,65.8-3.088a8.306,8.306,0,0,1-.806-3.76,7.293,7.293,0,0,1,1.746-5.2A6.41,6.41,0,0,1,71.643-13.9a6.886,6.886,0,0,1,3.467.854A5.7,5.7,0,0,1,77.417-10.6,8.229,8.229,0,0,1,78.223-6.848ZM93.9,0H90.173V-7.971a3.829,3.829,0,0,0-.525-2.216,1.91,1.91,0,0,0-1.672-.739,2.514,2.514,0,0,0-2.258,1.044,6.473,6.473,0,0,0-.7,3.461V0H81.3V-13.647h2.844l.5,1.746h.208a3.935,3.935,0,0,1,1.715-1.5A5.84,5.84,0,0,1,89.05-13.9a4.773,4.773,0,0,1,3.613,1.288A5.168,5.168,0,0,1,93.9-8.9Zm6.8-6.848a5.728,5.728,0,0,0,.665,3.064,2.379,2.379,0,0,0,2.167,1.038,2.341,2.341,0,0,0,2.142-1.031,5.81,5.81,0,0,0,.653-3.07,5.637,5.637,0,0,0-.659-3.04A2.383,2.383,0,0,0,103.5-10.9a2.376,2.376,0,0,0-2.148,1.007A5.632,5.632,0,0,0,100.7-6.848Zm9.436,0a7.334,7.334,0,0,1-1.758,5.212,6.374,6.374,0,0,1-4.9,1.88,6.848,6.848,0,0,1-3.467-.861,5.727,5.727,0,0,1-2.307-2.472,8.306,8.306,0,0,1-.806-3.76,7.293,7.293,0,0,1,1.746-5.2,6.41,6.41,0,0,1,4.907-1.855,6.886,6.886,0,0,1,3.467.854,5.7,5.7,0,0,1,2.307,2.454A8.229,8.229,0,0,1,110.132-6.848Zm12.6,2.8a3.757,3.757,0,0,1-1.459,3.2,7.208,7.208,0,0,1-4.364,1.1,13.707,13.707,0,0,1-2.539-.2A9.6,9.6,0,0,1,112.4-.549V-3.625a12.979,12.979,0,0,0,2.338.818,9.466,9.466,0,0,0,2.289.33q2.026,0,2.026-1.172a.978.978,0,0,0-.269-.714,3.894,3.894,0,0,0-.928-.623Q117.2-5.334,116.1-5.8a11.042,11.042,0,0,1-2.313-1.221,3.436,3.436,0,0,1-1.074-1.288,4.251,4.251,0,0,1-.336-1.788,3.242,3.242,0,0,1,1.41-2.814,6.868,6.868,0,0,1,4-.995,11.348,11.348,0,0,1,4.8,1.074l-1.123,2.686q-1.025-.439-1.917-.72a6.018,6.018,0,0,0-1.819-.281q-1.648,0-1.648.891a1.048,1.048,0,0,0,.531.867A14.441,14.441,0,0,0,118.933-8.3a10.8,10.8,0,0,1,2.344,1.208,3.574,3.574,0,0,1,1.1,1.294A3.976,3.976,0,0,1,122.729-4.053ZM140-14.954a3.856,3.856,0,0,0-3.308,1.605,7.468,7.468,0,0,0-1.172,4.474q0,5.969,4.48,5.969a14.162,14.162,0,0,0,4.553-.94V-.671a12.645,12.645,0,0,1-4.907.916,7.484,7.484,0,0,1-5.957-2.362Q131.628-4.48,131.628-8.9a11.073,11.073,0,0,1,1.013-4.877,7.323,7.323,0,0,1,2.911-3.21A8.613,8.613,0,0,1,140-18.1a12.009,12.009,0,0,1,5.225,1.257l-1.221,3.076a20.2,20.2,0,0,0-2.014-.83A6.009,6.009,0,0,0,140-14.954Zm11.023,8.105a5.728,5.728,0,0,0,.665,3.064,2.379,2.379,0,0,0,2.167,1.038A2.341,2.341,0,0,0,156-3.778a5.81,5.81,0,0,0,.653-3.07,5.637,5.637,0,0,0-.659-3.04,2.383,2.383,0,0,0-2.161-1.013,2.376,2.376,0,0,0-2.148,1.007A5.632,5.632,0,0,0,151.025-6.848Zm9.436,0A7.334,7.334,0,0,1,158.7-1.636a6.374,6.374,0,0,1-4.9,1.88,6.848,6.848,0,0,1-3.467-.861,5.727,5.727,0,0,1-2.307-2.472,8.306,8.306,0,0,1-.806-3.76,7.293,7.293,0,0,1,1.746-5.2,6.41,6.41,0,0,1,4.907-1.855,6.886,6.886,0,0,1,3.467.854,5.7,5.7,0,0,1,2.307,2.454A8.229,8.229,0,0,1,160.461-6.848ZM175.757,0h-3.723V-7.971a4.015,4.015,0,0,0-.494-2.216,1.739,1.739,0,0,0-1.556-.739,2.254,2.254,0,0,0-2.075,1.05,6.886,6.886,0,0,0-.647,3.455V0h-3.723V-13.647h2.844l.5,1.746h.208a3.783,3.783,0,0,1,1.587-1.471,5.153,5.153,0,0,1,2.38-.531q3.064,0,4.15,2h.33a3.687,3.687,0,0,1,1.617-1.477,5.394,5.394,0,0,1,2.411-.525,4.759,4.759,0,0,1,3.51,1.19,5.226,5.226,0,0,1,1.19,3.815V0H180.53V-7.971a4.015,4.015,0,0,0-.494-2.216,1.739,1.739,0,0,0-1.556-.739,2.322,2.322,0,0,0-2.045.977,5.541,5.541,0,0,0-.677,3.1Zm19.824.244A4.526,4.526,0,0,1,191.809-1.5h-.2q.2,1.709.2,1.978v5.53h-3.723V-13.647h3.027l.525,1.77h.171a4.307,4.307,0,0,1,3.87-2.026,4.429,4.429,0,0,1,3.784,1.868,8.638,8.638,0,0,1,1.367,5.188,10.244,10.244,0,0,1-.641,3.8A5.325,5.325,0,0,1,198.364-.6,4.677,4.677,0,0,1,195.581.244Zm-1.1-11.169a2.351,2.351,0,0,0-2.014.848,4.871,4.871,0,0,0-.659,2.8v.4a5.75,5.75,0,0,0,.653,3.149,2.331,2.331,0,0,0,2.069.952q2.5,0,2.5-4.126a5.892,5.892,0,0,0-.616-3.021A2.1,2.1,0,0,0,194.482-10.925ZM213.574,0l-.5-1.746h-.2a3.928,3.928,0,0,1-1.7,1.471,5.793,5.793,0,0,1-2.5.519,4.765,4.765,0,0,1-3.625-1.288,5.182,5.182,0,0,1-1.221-3.7v-8.9h3.723v7.971a3.829,3.829,0,0,0,.525,2.216,1.91,1.91,0,0,0,1.672.739,2.514,2.514,0,0,0,2.258-1.044,6.473,6.473,0,0,0,.7-3.461v-6.421h3.723V0Zm12.415-11.255a2.362,2.362,0,0,0-1.855.751,3.475,3.475,0,0,0-.769,2.13h5.225a3.1,3.1,0,0,0-.72-2.13A2.439,2.439,0,0,0,225.989-11.255Zm.525,11.5a7.044,7.044,0,0,1-5.151-1.819,6.887,6.887,0,0,1-1.855-5.151,7.575,7.575,0,0,1,1.715-5.3,6.107,6.107,0,0,1,4.742-1.874,6.011,6.011,0,0,1,4.5,1.648A6.235,6.235,0,0,1,232.08-7.7V-5.9h-8.8a3.584,3.584,0,0,0,.94,2.478,3.307,3.307,0,0,0,2.466.891,10.236,10.236,0,0,0,2.332-.256,11.666,11.666,0,0,0,2.295-.818V-.72a8.742,8.742,0,0,1-2.087.726A13.161,13.161,0,0,1,226.514.244Zm18.115-4.3a3.757,3.757,0,0,1-1.459,3.2,7.208,7.208,0,0,1-4.364,1.1,13.707,13.707,0,0,1-2.539-.2A9.6,9.6,0,0,1,234.3-.549V-3.625a12.979,12.979,0,0,0,2.338.818,9.466,9.466,0,0,0,2.289.33q2.026,0,2.026-1.172a.978.978,0,0,0-.269-.714,3.894,3.894,0,0,0-.928-.623Q239.1-5.334,238-5.8a11.043,11.043,0,0,1-2.313-1.221,3.436,3.436,0,0,1-1.074-1.288,4.251,4.251,0,0,1-.336-1.788,3.242,3.242,0,0,1,1.41-2.814,6.868,6.868,0,0,1,4-.995,11.348,11.348,0,0,1,4.8,1.074l-1.123,2.686q-1.025-.439-1.917-.72a6.018,6.018,0,0,0-1.819-.281q-1.648,0-1.648.891a1.048,1.048,0,0,0,.531.867A14.441,14.441,0,0,0,240.833-8.3a10.8,10.8,0,0,1,2.344,1.208,3.574,3.574,0,0,1,1.1,1.294A3.976,3.976,0,0,1,244.629-4.053Zm8.655,1.331a8.071,8.071,0,0,0,2.344-.427V-.378a8.357,8.357,0,0,1-3.418.623,4.183,4.183,0,0,1-3.253-1.129,4.915,4.915,0,0,1-1.019-3.387v-6.58h-1.782v-1.575l2.051-1.245,1.074-2.881h2.38v2.905h3.821v2.8H251.66v6.58a1.453,1.453,0,0,0,.446,1.172A1.758,1.758,0,0,0,253.284-2.722Zm8.069-4.126a5.728,5.728,0,0,0,.665,3.064,2.379,2.379,0,0,0,2.167,1.038,2.341,2.341,0,0,0,2.142-1.031,5.81,5.81,0,0,0,.653-3.07,5.637,5.637,0,0,0-.659-3.04A2.383,2.383,0,0,0,264.16-10.9a2.376,2.376,0,0,0-2.148,1.007A5.632,5.632,0,0,0,261.353-6.848Zm9.436,0a7.334,7.334,0,0,1-1.758,5.212,6.374,6.374,0,0,1-4.9,1.88,6.848,6.848,0,0,1-3.467-.861,5.727,5.727,0,0,1-2.307-2.472,8.306,8.306,0,0,1-.806-3.76,7.293,7.293,0,0,1,1.746-5.2,6.41,6.41,0,0,1,4.907-1.855,6.886,6.886,0,0,1,3.467.854,5.7,5.7,0,0,1,2.307,2.454A8.229,8.229,0,0,1,270.789-6.848Zm12.6,2.8a3.757,3.757,0,0,1-1.459,3.2,7.208,7.208,0,0,1-4.364,1.1,13.707,13.707,0,0,1-2.539-.2,9.6,9.6,0,0,1-1.965-.592V-3.625a12.979,12.979,0,0,0,2.338.818,9.466,9.466,0,0,0,2.289.33q2.026,0,2.026-1.172a.978.978,0,0,0-.269-.714,3.894,3.894,0,0,0-.928-.623q-.659-.348-1.758-.812a11.042,11.042,0,0,1-2.313-1.221,3.436,3.436,0,0,1-1.074-1.288,4.251,4.251,0,0,1-.336-1.788,3.242,3.242,0,0,1,1.41-2.814,6.868,6.868,0,0,1,4-.995,11.348,11.348,0,0,1,4.8,1.074l-1.123,2.686q-1.025-.439-1.917-.72a6.018,6.018,0,0,0-1.819-.281q-1.648,0-1.648.891a1.048,1.048,0,0,0,.531.867A14.441,14.441,0,0,0,279.59-8.3a10.8,10.8,0,0,1,2.344,1.208,3.574,3.574,0,0,1,1.1,1.294A3.976,3.976,0,0,1,283.386-4.053Zm20.227-.9a4.613,4.613,0,0,1-1.74,3.809,7.556,7.556,0,0,1-4.84,1.392A11.367,11.367,0,0,1,291.98-.83V-4.346a20.827,20.827,0,0,0,3.058,1.135,9.048,9.048,0,0,0,2.289.33,3.254,3.254,0,0,0,1.91-.476,1.628,1.628,0,0,0,.665-1.416,1.563,1.563,0,0,0-.293-.934,3.278,3.278,0,0,0-.861-.787A22.135,22.135,0,0,0,296.436-7.7a10.965,10.965,0,0,1-2.454-1.477,5.545,5.545,0,0,1-1.306-1.648,4.7,4.7,0,0,1-.488-2.2,4.612,4.612,0,0,1,1.605-3.723A6.67,6.67,0,0,1,298.23-18.1a10.478,10.478,0,0,1,2.655.33,18.25,18.25,0,0,1,2.643.928L302.307-13.9a17.86,17.86,0,0,0-2.362-.818,7.6,7.6,0,0,0-1.837-.232,2.433,2.433,0,0,0-1.648.5,1.651,1.651,0,0,0-.574,1.306,1.616,1.616,0,0,0,.232.873,2.55,2.55,0,0,0,.739.72,22.837,22.837,0,0,0,2.4,1.251,9.544,9.544,0,0,1,3.43,2.4A4.681,4.681,0,0,1,303.613-4.956Zm5.908-1.892a5.728,5.728,0,0,0,.665,3.064,2.379,2.379,0,0,0,2.167,1.038A2.341,2.341,0,0,0,314.5-3.778a5.81,5.81,0,0,0,.653-3.07,5.637,5.637,0,0,0-.659-3.04,2.383,2.383,0,0,0-2.161-1.013,2.376,2.376,0,0,0-2.148,1.007A5.632,5.632,0,0,0,309.521-6.848Zm9.436,0A7.334,7.334,0,0,1,317.2-1.636a6.374,6.374,0,0,1-4.9,1.88,6.848,6.848,0,0,1-3.467-.861,5.727,5.727,0,0,1-2.307-2.472,8.306,8.306,0,0,1-.806-3.76,7.293,7.293,0,0,1,1.746-5.2,6.41,6.41,0,0,1,4.907-1.855,6.886,6.886,0,0,1,3.467.854,5.7,5.7,0,0,1,2.307,2.454A8.229,8.229,0,0,1,318.958-6.848Zm-8.655-8.3v-.33a34.366,34.366,0,0,0,2.869-3.674h4.175v.256q-.635.635-2.167,1.886t-2.4,1.862ZM325.757,0h-3.723V-18.994h3.723ZM329.5-17.175q0-1.819,2.026-1.819t2.026,1.819a1.773,1.773,0,0,1-.507,1.349,2.129,2.129,0,0,1-1.52.482Q329.5-15.344,329.5-17.175ZM333.386,0h-3.723V-13.647h3.723Zm8.228.244a4.433,4.433,0,0,1-3.778-1.868A8.586,8.586,0,0,1,336.462-6.8a8.6,8.6,0,0,1,1.4-5.231,4.54,4.54,0,0,1,3.851-1.874,4.452,4.452,0,0,1,3.931,2h.122a15.222,15.222,0,0,1-.281-2.722v-4.37h3.735V0h-2.856l-.72-1.77h-.159A4.26,4.26,0,0,1,341.614.244Zm1.306-2.966a2.523,2.523,0,0,0,2.094-.83,4.829,4.829,0,0,0,.726-2.82v-.4a5.58,5.58,0,0,0-.677-3.149,2.516,2.516,0,0,0-2.2-.952,2.185,2.185,0,0,0-1.935,1.056,5.633,5.633,0,0,0-.69,3.07,5.339,5.339,0,0,0,.7,3.021A2.273,2.273,0,0,0,342.92-2.722Zm13.159-4.126a5.728,5.728,0,0,0,.665,3.064,2.379,2.379,0,0,0,2.167,1.038,2.341,2.341,0,0,0,2.142-1.031,5.81,5.81,0,0,0,.653-3.07,5.637,5.637,0,0,0-.659-3.04,2.383,2.383,0,0,0-2.161-1.013,2.376,2.376,0,0,0-2.148,1.007A5.632,5.632,0,0,0,356.079-6.848Zm9.436,0a7.334,7.334,0,0,1-1.758,5.212,6.374,6.374,0,0,1-4.9,1.88A6.848,6.848,0,0,1,355.4-.616a5.727,5.727,0,0,1-2.307-2.472,8.306,8.306,0,0,1-.806-3.76,7.293,7.293,0,0,1,1.746-5.2,6.41,6.41,0,0,1,4.907-1.855,6.886,6.886,0,0,1,3.467.854,5.7,5.7,0,0,1,2.307,2.454A8.229,8.229,0,0,1,365.515-6.848Zm12.6,2.8a3.757,3.757,0,0,1-1.459,3.2,7.208,7.208,0,0,1-4.364,1.1,13.707,13.707,0,0,1-2.539-.2,9.6,9.6,0,0,1-1.965-.592V-3.625a12.979,12.979,0,0,0,2.338.818,9.466,9.466,0,0,0,2.289.33q2.026,0,2.026-1.172a.978.978,0,0,0-.269-.714,3.894,3.894,0,0,0-.928-.623q-.659-.348-1.758-.812a11.042,11.042,0,0,1-2.313-1.221A3.436,3.436,0,0,1,368.1-8.307a4.251,4.251,0,0,1-.336-1.788,3.242,3.242,0,0,1,1.41-2.814,6.868,6.868,0,0,1,4-.995,11.348,11.348,0,0,1,4.8,1.074l-1.123,2.686q-1.025-.439-1.917-.72a6.018,6.018,0,0,0-1.819-.281q-1.648,0-1.648.891a1.048,1.048,0,0,0,.531.867A14.441,14.441,0,0,0,374.316-8.3a10.8,10.8,0,0,1,2.344,1.208,3.574,3.574,0,0,1,1.1,1.294A3.976,3.976,0,0,1,378.113-4.053Z" transform="translate(803 885)" fill="#fff"/>
  </g>
</svg>
