<svg xmlns="http://www.w3.org/2000/svg" width="1038" height="181" viewBox="0 0 1038 181">
  <g id="Grupo_9341" data-name="Grupo 9341" transform="translate(-441 -2429)">
    <path id="Trazado_17161" data-name="Trazado 17161" d="M13.267-21.833h2.686q3.948,0,5.828-1.316a4.7,4.7,0,0,0,1.88-4.136,4.3,4.3,0,0,0-1.92-3.975,11.652,11.652,0,0,0-5.948-1.182H13.267Zm0,6.768V0H4.941V-39.263h11.44q8,0,11.843,2.914t3.84,8.849a10.417,10.417,0,0,1-1.907,6.163,12.616,12.616,0,0,1-5.4,4.23Q33.623-3.867,36.309,0H27.07L17.7-15.066ZM63.862,0H41.25V-39.263H63.862v6.821H49.575v8.621H62.869V-17H49.575V-6.875H63.862Zm40.767-20.007q0,9.695-5.519,14.851T83.171,0H72.053V-39.263H84.38q9.614,0,14.932,5.076T104.629-20.007Zm-8.647.215q0-12.649-11.172-12.649H80.378V-6.875H83.95Q95.981-6.875,95.981-19.792Zm48.743-19.47v25.405a14.646,14.646,0,0,1-1.947,7.627,12.671,12.671,0,0,1-5.626,5.022,20.121,20.121,0,0,1-8.7,1.746q-7.573,0-11.763-3.881T112.5-13.965v-25.3h8.3v24.036q0,4.539,1.826,6.66t6.042,2.122q4.082,0,5.922-2.135t1.84-6.7V-39.263ZM171.016-32.9a8.483,8.483,0,0,0-7.278,3.531q-2.578,3.531-2.578,9.843,0,13.132,9.856,13.132a31.156,31.156,0,0,0,10.017-2.068v6.982a27.818,27.818,0,0,1-10.8,2.014q-8.567,0-13.105-5.2t-4.539-14.918a24.36,24.36,0,0,1,2.229-10.729,16.11,16.11,0,0,1,6.405-7.063,18.948,18.948,0,0,1,9.789-2.457,26.42,26.42,0,0,1,11.494,2.766l-2.686,6.768a44.453,44.453,0,0,0-4.431-1.826A13.219,13.219,0,0,0,171.016-32.9ZM189.385,0V-39.263h8.325V0Zm26.533-21.833H218.6q3.948,0,5.828-1.316a4.7,4.7,0,0,0,1.88-4.136,4.3,4.3,0,0,0-1.92-3.975,11.652,11.652,0,0,0-5.948-1.182h-2.524Zm0,6.768V0h-8.325V-39.263h11.44q8,0,11.843,2.914t3.84,8.849a10.417,10.417,0,0,1-1.907,6.163,12.616,12.616,0,0,1-5.4,4.23Q236.274-3.867,238.96,0h-9.238l-9.373-15.066Z" transform="translate(513 2547)" fill="#3b5fbf"/>
    <path id="Trazado_17162" data-name="Trazado 17162" d="M13.267-21.833h2.686q3.948,0,5.828-1.316a4.7,4.7,0,0,0,1.88-4.136,4.3,4.3,0,0,0-1.92-3.975,11.652,11.652,0,0,0-5.948-1.182H13.267Zm0,6.768V0H4.941V-39.263h11.44q8,0,11.843,2.914t3.84,8.849a10.417,10.417,0,0,1-1.907,6.163,12.616,12.616,0,0,1-5.4,4.23Q33.623-3.867,36.309,0H27.07L17.7-15.066ZM63.862,0H41.25V-39.263H63.862v6.821H49.575v8.621H62.869V-17H49.575V-6.875H63.862Zm40.149-39.263v25.405a14.646,14.646,0,0,1-1.947,7.627,12.671,12.671,0,0,1-5.626,5.022,20.121,20.121,0,0,1-8.7,1.746q-7.573,0-11.763-3.881T71.785-13.965v-25.3h8.3v24.036q0,4.539,1.826,6.66t6.042,2.122q4.082,0,5.922-2.135t1.84-6.7V-39.263ZM136.8-10.9a10.149,10.149,0,0,1-3.827,8.379Q129.148.537,122.327.537a25.007,25.007,0,0,1-11.118-2.363V-9.561a45.818,45.818,0,0,0,6.727,2.5,19.906,19.906,0,0,0,5.035.725,7.159,7.159,0,0,0,4.2-1.047,3.582,3.582,0,0,0,1.464-3.115,3.439,3.439,0,0,0-.645-2.054,7.212,7.212,0,0,0-1.893-1.732,48.7,48.7,0,0,0-5.089-2.659,24.121,24.121,0,0,1-5.4-3.25,12.2,12.2,0,0,1-2.874-3.625,10.346,10.346,0,0,1-1.074-4.834,10.147,10.147,0,0,1,3.531-8.191q3.531-2.981,9.762-2.981a23.052,23.052,0,0,1,5.841.725,40.15,40.15,0,0,1,5.814,2.041l-2.686,6.472a39.292,39.292,0,0,0-5.2-1.8,16.727,16.727,0,0,0-4.042-.51,5.352,5.352,0,0,0-3.625,1.1,3.632,3.632,0,0,0-1.262,2.874,3.556,3.556,0,0,0,.51,1.92,5.61,5.61,0,0,0,1.625,1.584,50.237,50.237,0,0,0,5.277,2.753q5.505,2.632,7.546,5.277A10.3,10.3,0,0,1,136.8-10.9ZM167.954,0l-2.847-9.346H150.793L147.947,0h-8.97l13.857-39.424h10.178L176.924,0ZM163.12-16.328q-3.948-12.7-4.445-14.368t-.712-2.632q-.886,3.437-5.076,17Zm27.07-5.505h2.686q3.948,0,5.828-1.316a4.7,4.7,0,0,0,1.88-4.136,4.3,4.3,0,0,0-1.92-3.975,11.652,11.652,0,0,0-5.948-1.182H190.19Zm0,6.768V0h-8.325V-39.263h11.44q8,0,11.843,2.914t3.84,8.849a10.417,10.417,0,0,1-1.907,6.163,12.616,12.616,0,0,1-5.4,4.23Q210.547-3.867,213.232,0h-9.238l-9.373-15.066Z" transform="translate(821 2547)" fill="#fdac29"/>
    <path id="Trazado_17163" data-name="Trazado 17163" d="M13.267-21.833h2.686q3.948,0,5.828-1.316a4.7,4.7,0,0,0,1.88-4.136,4.3,4.3,0,0,0-1.92-3.975,11.652,11.652,0,0,0-5.948-1.182H13.267Zm0,6.768V0H4.941V-39.263h11.44q8,0,11.843,2.914t3.84,8.849a10.417,10.417,0,0,1-1.907,6.163,12.616,12.616,0,0,1-5.4,4.23Q33.623-3.867,36.309,0H27.07L17.7-15.066ZM63.862,0H41.25V-39.263H63.862v6.821H49.575v8.621H62.869V-17H49.575V-6.875H63.862Zm40.149-39.263v25.405a14.646,14.646,0,0,1-1.947,7.627,12.671,12.671,0,0,1-5.626,5.022,20.121,20.121,0,0,1-8.7,1.746q-7.573,0-11.763-3.881T71.785-13.965v-25.3h8.3v24.036q0,4.539,1.826,6.66t6.042,2.122q4.082,0,5.922-2.135t1.84-6.7V-39.263ZM128.772,0h-8.325V-32.334H109.785v-6.929h29.648v6.929H128.772Zm16.7,0V-39.263H153.8V0Zm18.208,0V-39.263h8.325V-6.875h15.925V0Zm31.072,0V-39.263h8.325V0Zm43.8,0H209.338V-5.4l18.826-26.99H209.849v-6.875h28.2v5.371l-18.8,27.017h19.309ZM268.85,0,266-9.346H251.689L248.843,0h-8.97L253.73-39.424h10.178L277.82,0Zm-4.834-16.328q-3.948-12.7-4.445-14.368t-.712-2.632q-.886,3.437-5.076,17Zm27.07-5.505h2.686q3.948,0,5.828-1.316a4.7,4.7,0,0,0,1.88-4.136,4.3,4.3,0,0,0-1.92-3.975,11.652,11.652,0,0,0-5.948-1.182h-2.524Zm0,6.768V0h-8.325V-39.263H294.2q8,0,11.843,2.914t3.84,8.849a10.417,10.417,0,0,1-1.907,6.163,12.616,12.616,0,0,1-5.4,4.23Q311.443-3.867,314.128,0H304.89l-9.373-15.066Z" transform="translate(1103 2547)" fill="#70ad54"/>
    <g id="Trazado_17160" data-name="Trazado 17160" transform="translate(441 2444)" fill="none">
      <path d="M83,0H955a83,83,0,0,1,0,166H83A83,83,0,0,1,83,0Z" stroke="none"/>
      <path d="M 83 2 C 77.5029296875 2 72.0098876953125 2.553726196289062 66.6734619140625 3.645599365234375 C 61.4737548828125 4.709732055664062 56.35919189453125 6.297332763671875 51.47174072265625 8.364532470703125 C 46.67254638671875 10.39439392089844 42.0435791015625 12.90693664550781 37.71343994140625 15.8323974609375 C 33.42401123046875 18.73027038574219 29.3902587890625 22.05839538574219 25.7242431640625 25.72439575195312 C 22.05841064453125 29.39027404785156 18.73028564453125 33.42399597167969 15.832275390625 37.71359252929688 C 12.906982421875 42.04373168945312 10.3944091796875 46.67266845703125 8.364501953125 51.47173309326172 C 6.29736328125 56.35919952392578 4.709716796875 61.47386932373047 3.6456298828125 66.67359924316406 C 2.5537109375 72.01000213623047 2 77.5029296875 2 83 C 2 88.4970703125 2.5537109375 93.98999786376953 3.6456298828125 99.32640075683594 C 4.709716796875 104.5261383056641 6.29736328125 109.6408004760742 8.364501953125 114.5282669067383 C 10.3944091796875 119.3273315429688 12.906982421875 123.9562683105469 15.832275390625 128.2864074707031 C 18.73028564453125 132.5760040283203 22.05841064453125 136.6097412109375 25.7242431640625 140.2756042480469 C 29.3902587890625 143.9416046142578 33.42401123046875 147.2697296142578 37.71343994140625 150.1676025390625 C 42.0435791015625 153.0930633544922 46.67254638671875 155.6056060791016 51.47174072265625 157.6354675292969 C 56.35919189453125 159.7026672363281 61.4737548828125 161.2902679443359 66.6734619140625 162.3544006347656 C 72.0098876953125 163.4462738037109 77.5029296875 164 83 164 L 955 164 C 960.4970703125 164 965.989990234375 163.4462738037109 971.326416015625 162.3544006347656 C 976.526123046875 161.2902679443359 981.6408081054688 159.7026672363281 986.5282592773438 157.6354675292969 C 991.3273315429688 155.6056060791016 995.956298828125 153.0930633544922 1000.286376953125 150.1676025390625 C 1004.575988769531 147.2697296142578 1008.609741210938 143.9416046142578 1012.275573730469 140.2756042480469 C 1015.941589355469 136.6097412109375 1019.269714355469 132.5760040283203 1022.167602539062 128.2864074707031 C 1025.093017578125 123.9562683105469 1027.605590820312 119.3273315429688 1029.635498046875 114.5282669067383 C 1031.70263671875 109.6408004760742 1033.290283203125 104.5261383056641 1034.354370117188 99.32640075683594 C 1035.4462890625 93.98999786376953 1036 88.4970703125 1036 83 C 1036 77.5029296875 1035.4462890625 72.01000213623047 1034.354370117188 66.67359924316406 C 1033.290283203125 61.47386932373047 1031.70263671875 56.35919952392578 1029.635498046875 51.47173309326172 C 1027.605590820312 46.67266845703125 1025.093017578125 42.04373168945312 1022.167602539062 37.71359252929688 C 1019.269714355469 33.42399597167969 1015.941589355469 29.39027404785156 1012.275573730469 25.72439575195312 C 1008.609741210938 22.05839538574219 1004.575988769531 18.73027038574219 1000.286376953125 15.8323974609375 C 995.956298828125 12.90693664550781 991.3273315429688 10.39439392089844 986.5282592773438 8.364532470703125 C 981.6408081054688 6.297332763671875 976.526123046875 4.709732055664062 971.326416015625 3.645599365234375 C 965.989990234375 2.553726196289062 960.4970703125 2 955 2 L 83 2 M 83 0 L 955 0 C 1000.839599609375 0 1038 37.160400390625 1038 83 C 1038 128.839599609375 1000.839599609375 166 955 166 L 83 166 C 37.1602783203125 166 0 128.839599609375 0 83 C 0 37.160400390625 37.1602783203125 0 83 0 Z" stroke="none" fill="#70ad54"/>
    </g>
    <rect id="Rectángulo_2095" data-name="Rectángulo 2095" width="133" height="33" transform="translate(815 2429)" fill="#f3f7fa"/>
    <path id="Polígono_6" data-name="Polígono 6" d="M11.5,0,23,20H0Z" transform="translate(930.5 2457.5) rotate(-90)" fill="#70ad54"/>
  </g>
</svg>
