<svg xmlns="http://www.w3.org/2000/svg" width="439" height="361.354" viewBox="0 0 439 361.354">
  <g id="Grupo_9912" data-name="Grupo 9912" transform="translate(1323.219 -220.179)">
    <g id="Grupo_9889" data-name="Grupo 9889" transform="translate(-1323.219 403.281)">
      <path id="Trazado_9039" data-name="Trazado 9039" d="M-1125.468,713.294V700.548l-16.058-4.461a40.515,40.515,0,0,0-3.85-9.4l8.174-14.462-9.013-9.013-14.379,8.127a40.524,40.524,0,0,0-9.534-3.97l-4.414-15.891h-12.746l-4.414,15.891a40.523,40.523,0,0,0-9.534,3.97l-14.379-8.127-9.013,9.013,8.175,14.462a40.546,40.546,0,0,0-3.85,9.4l-16.058,4.461v12.746l16.187,4.5a40.569,40.569,0,0,0,3.84,9.158l-8.294,14.673,9.013,9.013,14.756-8.341a40.526,40.526,0,0,0,9.029,3.724l4.542,16.35h12.746l4.542-16.35a40.523,40.523,0,0,0,9.029-3.724l14.757,8.341,9.013-9.013-8.294-14.673a40.553,40.553,0,0,0,3.845-9.159Zm-55.447,17.632a24.218,24.218,0,0,1-24.218-24.218,24.218,24.218,0,0,1,24.218-24.218,24.218,24.218,0,0,1,24.218,24.218A24.218,24.218,0,0,1-1180.915,730.927Z" transform="translate(1273.236 -651.474)" fill="#d1c8ce"/>
      <path id="Trazado_9040" data-name="Trazado 9040" d="M-1276.064,706.358l1.272-5.42-6.383-3.5a17.712,17.712,0,0,0-.7-4.383l4.92-5.334-2.933-4.732-6.926,2.02a17.708,17.708,0,0,0-3.657-2.64l-.291-7.2-5.42-1.273-3.463,6.317a17.725,17.725,0,0,0-4.451.736l-5.3-4.891-4.732,2.933,2.032,6.966a17.732,17.732,0,0,0-2.576,3.615l-7.273.293-1.273,5.42,6.434,3.528a17.707,17.707,0,0,0,.719,4.277l-4.991,5.412,2.933,4.732,7.107-2.073a17.712,17.712,0,0,0,3.468,2.485l.3,7.406,5.42,1.272,3.564-6.5a17.711,17.711,0,0,0,4.211-.682l5.442,5.02,4.732-2.933-2.062-7.067a17.7,17.7,0,0,0,2.549-3.511Zm-25.337,1.963a10.578,10.578,0,0,1-7.88-12.716,10.578,10.578,0,0,1,12.716-7.88,10.579,10.579,0,0,1,7.88,12.716A10.578,10.578,0,0,1-1301.4,708.32Z" transform="translate(1323.219 -664.379)" fill="#d1c8ce"/>
    </g>
    <g id="Grupo_9892" data-name="Grupo 9892" transform="translate(-1258.864 252.951)">
      <rect id="Rectángulo_2814" data-name="Rectángulo 2814" width="0.643" height="250.335" transform="translate(75.749 0)" fill="#9e8fae"/>
      <g id="Grupo_9890" data-name="Grupo 9890" transform="translate(0 9.359)">
        <path id="Trazado_9041" data-name="Trazado 9041" d="M-1169.108,324.467h0a2.524,2.524,0,0,1-2.524-2.524h0a2.524,2.524,0,0,1,2.524-2.524h0a2.524,2.524,0,0,1,2.524,2.524h0A2.524,2.524,0,0,1-1169.108,324.467Z" transform="translate(1171.632 -319.419)" fill="#2191f2"/>
        <rect id="Rectángulo_2815" data-name="Rectángulo 2815" width="23.077" height="2.576" rx="1.288" transform="translate(7.005 1.133)" fill="#9e8fae"/>
        <path id="Trazado_9042" data-name="Trazado 9042" d="M-1169.108,391.2h0a2.524,2.524,0,0,1-2.524-2.524h0a2.524,2.524,0,0,1,2.524-2.524h0a2.524,2.524,0,0,1,2.524,2.524h0A2.524,2.524,0,0,1-1169.108,391.2Z" transform="translate(1171.632 -357.821)" fill="#2191f2"/>
        <rect id="Rectángulo_2816" data-name="Rectángulo 2816" width="23.077" height="2.576" rx="1.288" transform="translate(7.005 29.464)" fill="#9e8fae"/>
        <path id="Trazado_9043" data-name="Trazado 9043" d="M-1169.108,478.073h0a2.524,2.524,0,0,1-2.524-2.524h0a2.524,2.524,0,0,1,2.524-2.524h0a2.524,2.524,0,0,1,2.524,2.524h0A2.524,2.524,0,0,1-1169.108,478.073Z" transform="translate(1171.632 -407.813)" fill="#2191f2"/>
        <rect id="Rectángulo_2817" data-name="Rectángulo 2817" width="23.077" height="2.576" rx="1.288" transform="translate(7.005 66.345)" fill="#9e8fae"/>
        <path id="Trazado_9044" data-name="Trazado 9044" d="M-1169.108,500.52h0a2.524,2.524,0,0,1-2.524-2.524h0a2.524,2.524,0,0,1,2.524-2.524h0a2.524,2.524,0,0,1,2.524,2.524h0A2.524,2.524,0,0,1-1169.108,500.52Z" transform="translate(1171.632 -420.73)" fill="#2191f2"/>
        <rect id="Rectángulo_2818" data-name="Rectángulo 2818" width="23.077" height="2.576" rx="1.288" transform="translate(7.005 75.875)" fill="#9e8fae"/>
        <path id="Trazado_9045" data-name="Trazado 9045" d="M-1152.607,341.938h0a2.524,2.524,0,0,1-2.524-2.524h0a2.524,2.524,0,0,1,2.524-2.524h0a2.524,2.524,0,0,1,2.524,2.524h0A2.524,2.524,0,0,1-1152.607,341.938Z" transform="translate(1162.136 -329.473)" fill="#2191f2"/>
        <rect id="Rectángulo_2819" data-name="Rectángulo 2819" width="23.077" height="2.576" rx="1.288" transform="translate(14.011 8.551)" fill="#9e8fae"/>
        <path id="Trazado_9046" data-name="Trazado 9046" d="M-1152.607,359.41h0a2.524,2.524,0,0,1-2.524-2.524h0a2.524,2.524,0,0,1,2.524-2.524h0a2.524,2.524,0,0,1,2.524,2.524h0A2.524,2.524,0,0,1-1152.607,359.41Z" transform="translate(1162.136 -339.527)" fill="#2191f2"/>
        <rect id="Rectángulo_2820" data-name="Rectángulo 2820" width="31.833" height="2.576" rx="1.288" transform="translate(14.011 15.968)" fill="#9e8fae"/>
        <path id="Trazado_9047" data-name="Trazado 9047" d="M-1152.607,407.943h0a2.524,2.524,0,0,1-2.524-2.524h0a2.524,2.524,0,0,1,2.524-2.524h0a2.524,2.524,0,0,1,2.524,2.524h0A2.524,2.524,0,0,1-1152.607,407.943Z" transform="translate(1162.136 -367.456)" fill="#2191f2"/>
        <rect id="Rectángulo_2821" data-name="Rectángulo 2821" width="38.736" height="2.576" rx="1.288" transform="translate(14.011 36.572)" fill="#9e8fae"/>
        <path id="Trazado_9048" data-name="Trazado 9048" d="M-1152.607,425.415h0a2.524,2.524,0,0,1-2.524-2.524h0a2.524,2.524,0,0,1,2.524-2.524h0a2.524,2.524,0,0,1,2.524,2.524h0A2.524,2.524,0,0,1-1152.607,425.415Z" transform="translate(1162.136 -377.511)" fill="#2191f2"/>
        <rect id="Rectángulo_2822" data-name="Rectángulo 2822" width="26.167" height="2.576" rx="1.288" transform="translate(14.011 43.99)" fill="#9e8fae"/>
        <path id="Trazado_9049" data-name="Trazado 9049" d="M-1136.637,442.794h0a1.992,1.992,0,0,1-1.992-1.992h0a1.992,1.992,0,0,1,1.992-1.992h0a1.992,1.992,0,0,1,1.992,1.992h0A1.992,1.992,0,0,1-1136.637,442.794Z" transform="translate(1152.641 -388.124)" fill="#2191f2"/>
        <path id="Trazado_9050" data-name="Trazado 9050" d="M-1083.526,442.949h-41.064a1.017,1.017,0,0,1-1.016-1.017h0a1.017,1.017,0,0,1,1.016-1.016h41.064a1.016,1.016,0,0,1,1.016,1.016h0A1.016,1.016,0,0,1-1083.526,442.949Z" transform="translate(1145.146 -389.336)" fill="#9e8fae"/>
        <path id="Trazado_9051" data-name="Trazado 9051" d="M-1136.637,456.584h0a1.992,1.992,0,0,1-1.992-1.992h0a1.992,1.992,0,0,1,1.992-1.992h0a1.992,1.992,0,0,1,1.992,1.992h0A1.992,1.992,0,0,1-1136.637,456.584Z" transform="translate(1152.641 -396.059)" fill="#2191f2"/>
        <path id="Trazado_9052" data-name="Trazado 9052" d="M-1100.318,456.739h-24.272a1.017,1.017,0,0,1-1.016-1.016h0a1.016,1.016,0,0,1,1.016-1.016h24.272a1.016,1.016,0,0,1,1.016,1.016h0A1.016,1.016,0,0,1-1100.318,456.739Z" transform="translate(1145.146 -397.271)" fill="#9e8fae"/>
      </g>
      <g id="Grupo_9891" data-name="Grupo 9891" transform="translate(0 94.764)">
        <path id="Trazado_9053" data-name="Trazado 9053" d="M-1169.108,525.637h0a2.524,2.524,0,0,1-2.524-2.524h0a2.524,2.524,0,0,1,2.524-2.524h0a2.524,2.524,0,0,1,2.524,2.524h0A2.524,2.524,0,0,1-1169.108,525.637Z" transform="translate(1171.632 -520.589)" fill="#2191f2"/>
        <rect id="Rectángulo_2823" data-name="Rectángulo 2823" width="23.077" height="2.576" rx="1.288" transform="translate(7.005 1.133)" fill="#9e8fae"/>
        <path id="Trazado_9054" data-name="Trazado 9054" d="M-1169.108,592.37h0a2.524,2.524,0,0,1-2.524-2.524h0a2.524,2.524,0,0,1,2.524-2.524h0a2.524,2.524,0,0,1,2.524,2.524h0A2.524,2.524,0,0,1-1169.108,592.37Z" transform="translate(1171.632 -558.991)" fill="#2191f2"/>
        <rect id="Rectángulo_2824" data-name="Rectángulo 2824" width="23.077" height="2.576" rx="1.288" transform="translate(7.005 29.464)" fill="#9e8fae"/>
        <path id="Trazado_9055" data-name="Trazado 9055" d="M-1169.108,679.244h0a2.524,2.524,0,0,1-2.524-2.524h0a2.524,2.524,0,0,1,2.524-2.524h0a2.524,2.524,0,0,1,2.524,2.524h0A2.524,2.524,0,0,1-1169.108,679.244Z" transform="translate(1171.632 -608.984)" fill="#2191f2"/>
        <rect id="Rectángulo_2825" data-name="Rectángulo 2825" width="23.077" height="2.576" rx="1.288" transform="translate(7.005 66.345)" fill="#9e8fae"/>
        <path id="Trazado_9056" data-name="Trazado 9056" d="M-1169.108,701.69h0a2.524,2.524,0,0,1-2.524-2.524h0a2.524,2.524,0,0,1,2.524-2.524h0a2.524,2.524,0,0,1,2.524,2.524h0A2.524,2.524,0,0,1-1169.108,701.69Z" transform="translate(1171.632 -621.9)" fill="#2191f2"/>
        <rect id="Rectángulo_2826" data-name="Rectángulo 2826" width="23.077" height="2.576" rx="1.288" transform="translate(7.005 75.875)" fill="#9e8fae"/>
        <path id="Trazado_9057" data-name="Trazado 9057" d="M-1152.607,543.109h0a2.524,2.524,0,0,1-2.524-2.524h0a2.524,2.524,0,0,1,2.524-2.524h0a2.524,2.524,0,0,1,2.524,2.524h0A2.524,2.524,0,0,1-1152.607,543.109Z" transform="translate(1162.136 -530.643)" fill="#2191f2"/>
        <rect id="Rectángulo_2827" data-name="Rectángulo 2827" width="23.077" height="2.576" rx="1.288" transform="translate(14.011 8.551)" fill="#9e8fae"/>
        <path id="Trazado_9058" data-name="Trazado 9058" d="M-1152.607,560.581h0a2.524,2.524,0,0,1-2.524-2.524h0a2.524,2.524,0,0,1,2.524-2.524h0a2.524,2.524,0,0,1,2.524,2.524h0A2.524,2.524,0,0,1-1152.607,560.581Z" transform="translate(1162.136 -540.698)" fill="#2191f2"/>
        <rect id="Rectángulo_2828" data-name="Rectángulo 2828" width="31.833" height="2.576" rx="1.288" transform="translate(14.011 15.968)" fill="#9e8fae"/>
        <path id="Trazado_9059" data-name="Trazado 9059" d="M-1152.607,609.114h0a2.524,2.524,0,0,1-2.524-2.524h0a2.524,2.524,0,0,1,2.524-2.524h0a2.524,2.524,0,0,1,2.524,2.524h0A2.524,2.524,0,0,1-1152.607,609.114Z" transform="translate(1162.136 -568.627)" fill="#2191f2"/>
        <rect id="Rectángulo_2829" data-name="Rectángulo 2829" width="38.736" height="2.576" rx="1.288" transform="translate(14.011 36.572)" fill="#9e8fae"/>
        <path id="Trazado_9060" data-name="Trazado 9060" d="M-1152.607,626.585h0a2.524,2.524,0,0,1-2.524-2.524h0a2.524,2.524,0,0,1,2.524-2.524h0a2.524,2.524,0,0,1,2.524,2.524h0A2.524,2.524,0,0,1-1152.607,626.585Z" transform="translate(1162.136 -578.68)" fill="#2191f2"/>
        <rect id="Rectángulo_2830" data-name="Rectángulo 2830" width="26.167" height="2.576" rx="1.288" transform="translate(14.011 43.99)" fill="#9e8fae"/>
        <path id="Trazado_9061" data-name="Trazado 9061" d="M-1136.637,643.964h0a1.992,1.992,0,0,1-1.992-1.992h0a1.992,1.992,0,0,1,1.992-1.992h0a1.992,1.992,0,0,1,1.992,1.992h0A1.992,1.992,0,0,1-1136.637,643.964Z" transform="translate(1152.641 -589.294)" fill="#2191f2"/>
        <path id="Trazado_9062" data-name="Trazado 9062" d="M-1083.526,644.12h-41.064a1.016,1.016,0,0,1-1.016-1.016h0a1.016,1.016,0,0,1,1.016-1.016h41.064a1.016,1.016,0,0,1,1.016,1.016h0A1.016,1.016,0,0,1-1083.526,644.12Z" transform="translate(1145.146 -590.506)" fill="#9e8fae"/>
        <path id="Trazado_9063" data-name="Trazado 9063" d="M-1136.637,657.754h0a1.992,1.992,0,0,1-1.992-1.992h0a1.992,1.992,0,0,1,1.992-1.992h0a1.992,1.992,0,0,1,1.992,1.992h0A1.992,1.992,0,0,1-1136.637,657.754Z" transform="translate(1152.641 -597.229)" fill="#2191f2"/>
        <path id="Trazado_9064" data-name="Trazado 9064" d="M-1100.318,657.91h-24.272a1.017,1.017,0,0,1-1.016-1.016h0a1.016,1.016,0,0,1,1.016-1.016h24.272a1.016,1.016,0,0,1,1.016,1.016h0A1.016,1.016,0,0,1-1100.318,657.91Z" transform="translate(1145.146 -598.442)" fill="#9e8fae"/>
      </g>
      <path id="Trazado_9065" data-name="Trazado 9065" d="M-975.209,319.548h0a2.056,2.056,0,0,1-2.056-2.056h0a2.056,2.056,0,0,1,2.056-2.056h0a2.056,2.056,0,0,1,2.056,2.056h0A2.056,2.056,0,0,1-975.209,319.548Z" transform="translate(1059.782 -307.768)" fill="#4f5569"/>
      <path id="Trazado_9066" data-name="Trazado 9066" d="M-930.474,319.548H-951.08a2.056,2.056,0,0,1-2.056-2.056h0a2.056,2.056,0,0,1,2.056-2.056h20.606a2.056,2.056,0,0,1,2.056,2.056h0A2.056,2.056,0,0,1-930.474,319.548Z" transform="translate(1045.896 -307.768)" fill="#ffcb30"/>
      <path id="Trazado_9067" data-name="Trazado 9067" d="M-837.505,319.548h-40.97a2.056,2.056,0,0,1-2.056-2.056h0a2.056,2.056,0,0,1,2.056-2.056h40.97a2.056,2.056,0,0,1,2.055,2.056h0A2.056,2.056,0,0,1-837.505,319.548Z" transform="translate(1004.115 -307.768)" fill="#e4464a"/>
      <path id="Trazado_9068" data-name="Trazado 9068" d="M-975.209,348.05h0a2.056,2.056,0,0,1-2.056-2.056h0a2.056,2.056,0,0,1,2.056-2.056h0a2.056,2.056,0,0,1,2.056,2.056h0A2.056,2.056,0,0,1-975.209,348.05Z" transform="translate(1059.782 -324.17)" fill="#4f5569"/>
      <path id="Trazado_9069" data-name="Trazado 9069" d="M-893.592,348.05H-951.08a2.056,2.056,0,0,1-2.056-2.056h0a2.056,2.056,0,0,1,2.056-2.056h57.489a2.056,2.056,0,0,1,2.056,2.056h0A2.056,2.056,0,0,1-893.592,348.05Z" transform="translate(1045.896 -324.17)" fill="#1957c2"/>
      <path id="Trazado_9070" data-name="Trazado 9070" d="M-687.022,348.05H-791.6a2.056,2.056,0,0,1-2.056-2.056h0a2.056,2.056,0,0,1,2.056-2.056h104.576a2.056,2.056,0,0,1,2.056,2.056h0A2.056,2.056,0,0,1-687.022,348.05Z" transform="translate(954.12 -324.17)" fill="#ffcb30"/>
      <path id="Trazado_9071" data-name="Trazado 9071" d="M-975.209,376.553h0a2.056,2.056,0,0,1-2.056-2.056h0a2.056,2.056,0,0,1,2.056-2.056h0a2.056,2.056,0,0,1,2.056,2.056h0A2.056,2.056,0,0,1-975.209,376.553Z" transform="translate(1059.782 -340.572)" fill="#4f5569"/>
      <rect id="Rectángulo_2831" data-name="Rectángulo 2831" width="24.717" height="4.112" rx="2.056" transform="translate(92.76 31.869)" fill="#1957c2"/>
      <path id="Trazado_9072" data-name="Trazado 9072" d="M-975.209,405.055h0A2.056,2.056,0,0,1-977.265,403h0a2.056,2.056,0,0,1,2.056-2.056h0A2.056,2.056,0,0,1-973.154,403h0A2.056,2.056,0,0,1-975.209,405.055Z" transform="translate(1059.782 -356.973)" fill="#4f5569"/>
      <path id="Trazado_9073" data-name="Trazado 9073" d="M-940.888,405.055H-951.08A2.056,2.056,0,0,1-953.136,403h0a2.056,2.056,0,0,1,2.056-2.056h10.193A2.056,2.056,0,0,1-938.832,403h0A2.056,2.056,0,0,1-940.888,405.055Z" transform="translate(1045.896 -356.973)" fill="#e4464a"/>
      <path id="Trazado_9074" data-name="Trazado 9074" d="M-865.925,405.055H-903A2.056,2.056,0,0,1-905.059,403h0A2.056,2.056,0,0,1-903,400.943h37.078A2.056,2.056,0,0,1-863.869,403h0A2.056,2.056,0,0,1-865.925,405.055Z" transform="translate(1018.23 -356.973)" fill="#9e8fae"/>
      <path id="Trazado_9075" data-name="Trazado 9075" d="M-975.209,433.557h0a2.056,2.056,0,0,1-2.056-2.056h0a2.056,2.056,0,0,1,2.056-2.056h0a2.056,2.056,0,0,1,2.056,2.056h0A2.056,2.056,0,0,1-975.209,433.557Z" transform="translate(1059.782 -373.375)" fill="#4f5569"/>
      <path id="Trazado_9076" data-name="Trazado 9076" d="M-901.365,433.557H-921.97a2.056,2.056,0,0,1-2.056-2.056h0a2.056,2.056,0,0,1,2.056-2.056h20.605a2.056,2.056,0,0,1,2.056,2.056h0A2.056,2.056,0,0,1-901.365,433.557Z" transform="translate(1029.145 -373.375)" fill="#9e8fae"/>
      <path id="Trazado_9077" data-name="Trazado 9077" d="M-799.08,433.557h-50.284a2.056,2.056,0,0,1-2.056-2.056h0a2.056,2.056,0,0,1,2.056-2.056h50.284a2.056,2.056,0,0,1,2.056,2.056h0A2.056,2.056,0,0,1-799.08,433.557Z" transform="translate(987.363 -373.375)" fill="#0c97b3"/>
      <path id="Trazado_9078" data-name="Trazado 9078" d="M-975.209,462.059h0A2.056,2.056,0,0,1-977.265,460h0a2.055,2.055,0,0,1,2.056-2.056h0A2.055,2.055,0,0,1-973.154,460h0A2.056,2.056,0,0,1-975.209,462.059Z" transform="translate(1059.782 -389.777)" fill="#4f5569"/>
      <path id="Trazado_9079" data-name="Trazado 9079" d="M-740.807,462.059H-921.97A2.056,2.056,0,0,1-924.026,460h0a2.056,2.056,0,0,1,2.056-2.056h181.163A2.056,2.056,0,0,1-738.751,460h0A2.056,2.056,0,0,1-740.807,462.059Z" transform="translate(1029.145 -389.777)" fill="#ffcb30"/>
      <path id="Trazado_9080" data-name="Trazado 9080" d="M-447,462.059h-20.9A2.056,2.056,0,0,1-469.957,460h0a2.056,2.056,0,0,1,2.056-2.056H-447A2.056,2.056,0,0,1-444.942,460h0A2.056,2.056,0,0,1-447,462.059Z" transform="translate(767.846 -389.777)" fill="#f5ab35"/>
      <path id="Trazado_9081" data-name="Trazado 9081" d="M-447,461.254h-20.9a2.056,2.056,0,0,1-2.056-2.056h0a2.056,2.056,0,0,1,2.056-2.056H-447a2.056,2.056,0,0,1,2.056,2.056h0A2.056,2.056,0,0,1-447,461.254Z" transform="translate(767.846 -389.314)" fill="#f5ab35"/>
      <path id="Trazado_9082" data-name="Trazado 9082" d="M-975.209,490.562h0a2.056,2.056,0,0,1-2.056-2.056h0a2.056,2.056,0,0,1,2.056-2.056h0a2.056,2.056,0,0,1,2.056,2.056h0A2.056,2.056,0,0,1-975.209,490.562Z" transform="translate(1059.782 -406.179)" fill="#4f5569"/>
      <path id="Trazado_9083" data-name="Trazado 9083" d="M-975.209,519.064h0a2.056,2.056,0,0,1-2.056-2.056h0a2.056,2.056,0,0,1,2.056-2.056h0a2.056,2.056,0,0,1,2.056,2.056h0A2.056,2.056,0,0,1-975.209,519.064Z" transform="translate(1059.782 -422.581)" fill="#4f5569"/>
      <path id="Trazado_9084" data-name="Trazado 9084" d="M-738.508,519.064H-888.535a2.056,2.056,0,0,1-2.056-2.056h0a2.056,2.056,0,0,1,2.056-2.056h150.027a2.056,2.056,0,0,1,2.055,2.056h0A2.056,2.056,0,0,1-738.508,519.064Z" transform="translate(1009.904 -422.581)" fill="#0c97b3"/>
      <path id="Trazado_9085" data-name="Trazado 9085" d="M-471.2,519.064h-38.761a2.056,2.056,0,0,1-2.056-2.056h0a2.056,2.056,0,0,1,2.056-2.056H-471.2a2.056,2.056,0,0,1,2.056,2.056h0A2.056,2.056,0,0,1-471.2,519.064Z" transform="translate(792.052 -422.581)" fill="#ffcb30"/>
      <path id="Trazado_9086" data-name="Trazado 9086" d="M-975.209,547.566h0a2.056,2.056,0,0,1-2.056-2.056h0a2.056,2.056,0,0,1,2.056-2.056h0a2.056,2.056,0,0,1,2.056,2.056h0A2.056,2.056,0,0,1-975.209,547.566Z" transform="translate(1059.782 -438.983)" fill="#4f5569"/>
      <path id="Trazado_9087" data-name="Trazado 9087" d="M-911.887,547.566H-921.97a2.056,2.056,0,0,1-2.056-2.056h0a2.056,2.056,0,0,1,2.056-2.056h10.083a2.056,2.056,0,0,1,2.056,2.056h0A2.056,2.056,0,0,1-911.887,547.566Z" transform="translate(1029.145 -438.983)" fill="#e4464a"/>
      <path id="Trazado_9088" data-name="Trazado 9088" d="M-975.209,575.693h0a2.056,2.056,0,0,1-2.056-2.056h0a2.056,2.056,0,0,1,2.056-2.056h0a2.056,2.056,0,0,1,2.056,2.056h0A2.056,2.056,0,0,1-975.209,575.693Z" transform="translate(1059.782 -455.169)" fill="#4f5569"/>
      <path id="Trazado_9089" data-name="Trazado 9089" d="M-901.365,575.693H-921.97a2.056,2.056,0,0,1-2.056-2.056h0a2.056,2.056,0,0,1,2.056-2.056h20.605a2.056,2.056,0,0,1,2.056,2.056h0A2.056,2.056,0,0,1-901.365,575.693Z" transform="translate(1029.145 -455.169)" fill="#9e8fae"/>
      <path id="Trazado_9090" data-name="Trazado 9090" d="M-799.08,575.693h-50.284a2.056,2.056,0,0,1-2.056-2.056h0a2.056,2.056,0,0,1,2.056-2.056h50.284a2.056,2.056,0,0,1,2.056,2.056h0A2.056,2.056,0,0,1-799.08,575.693Z" transform="translate(987.363 -455.169)" fill="#0c97b3"/>
      <path id="Trazado_9091" data-name="Trazado 9091" d="M-975.209,604.195h0a2.056,2.056,0,0,1-2.056-2.056h0a2.056,2.056,0,0,1,2.056-2.056h0a2.056,2.056,0,0,1,2.056,2.056h0A2.056,2.056,0,0,1-975.209,604.195Z" transform="translate(1059.782 -471.57)" fill="#4f5569"/>
      <path id="Trazado_9092" data-name="Trazado 9092" d="M-740.807,604.195H-921.97a2.056,2.056,0,0,1-2.056-2.056h0a2.056,2.056,0,0,1,2.056-2.056h181.163a2.056,2.056,0,0,1,2.056,2.056h0A2.056,2.056,0,0,1-740.807,604.195Z" transform="translate(1029.145 -471.57)" fill="#ffcb30"/>
      <path id="Trazado_9093" data-name="Trazado 9093" d="M-447,604.195h-20.9a2.056,2.056,0,0,1-2.056-2.056h0a2.056,2.056,0,0,1,2.056-2.056H-447a2.056,2.056,0,0,1,2.056,2.056h0A2.056,2.056,0,0,1-447,604.195Z" transform="translate(767.846 -471.57)" fill="#f5ab35"/>
      <path id="Trazado_9094" data-name="Trazado 9094" d="M-447,603.389h-20.9a2.056,2.056,0,0,1-2.056-2.056h0a2.056,2.056,0,0,1,2.056-2.056H-447a2.056,2.056,0,0,1,2.056,2.056h0A2.056,2.056,0,0,1-447,603.389Z" transform="translate(767.846 -471.107)" fill="#f5ab35"/>
      <path id="Trazado_9095" data-name="Trazado 9095" d="M-975.209,632.7h0a2.056,2.056,0,0,1-2.056-2.056h0a2.056,2.056,0,0,1,2.056-2.056h0a2.056,2.056,0,0,1,2.056,2.056h0A2.056,2.056,0,0,1-975.209,632.7Z" transform="translate(1059.782 -487.973)" fill="#4f5569"/>
      <path id="Trazado_9096" data-name="Trazado 9096" d="M-637.315,632.7h-251.22a2.056,2.056,0,0,1-2.056-2.056h0a2.056,2.056,0,0,1,2.056-2.056h251.22a2.056,2.056,0,0,1,2.056,2.056h0A2.056,2.056,0,0,1-637.315,632.7Z" transform="translate(1009.904 -487.973)" fill="#e4464a"/>
      <path id="Trazado_9097" data-name="Trazado 9097" d="M-975.209,661.2h0a2.056,2.056,0,0,1-2.056-2.056h0a2.056,2.056,0,0,1,2.056-2.056h0a2.056,2.056,0,0,1,2.056,2.056h0A2.056,2.056,0,0,1-975.209,661.2Z" transform="translate(1059.782 -504.375)" fill="#4f5569"/>
      <path id="Trazado_9098" data-name="Trazado 9098" d="M-846.644,661.2h-41.891a2.056,2.056,0,0,1-2.056-2.056h0a2.056,2.056,0,0,1,2.056-2.056h41.891a2.056,2.056,0,0,1,2.056,2.056h0A2.056,2.056,0,0,1-846.644,661.2Z" transform="translate(1009.904 -504.375)" fill="#0c97b3"/>
      <path id="Trazado_9099" data-name="Trazado 9099" d="M-665.219,661.2h-95.959a2.056,2.056,0,0,1-2.056-2.056h0a2.056,2.056,0,0,1,2.056-2.056h95.959a2.056,2.056,0,0,1,2.056,2.056h0A2.056,2.056,0,0,1-665.219,661.2Z" transform="translate(936.615 -504.375)" fill="#9e8fae"/>
      <path id="Trazado_9100" data-name="Trazado 9100" d="M-471.2,661.2h-38.761a2.056,2.056,0,0,1-2.056-2.056h0a2.056,2.056,0,0,1,2.056-2.056H-471.2a2.056,2.056,0,0,1,2.056,2.056h0A2.056,2.056,0,0,1-471.2,661.2Z" transform="translate(792.052 -504.375)" fill="#ffcb30"/>
      <path id="Trazado_9101" data-name="Trazado 9101" d="M-975.209,689.7h0a2.056,2.056,0,0,1-2.056-2.056h0a2.056,2.056,0,0,1,2.056-2.056h0a2.056,2.056,0,0,1,2.056,2.056h0A2.056,2.056,0,0,1-975.209,689.7Z" transform="translate(1059.782 -520.776)" fill="#4f5569"/>
      <rect id="Rectángulo_2832" data-name="Rectángulo 2832" width="14.194" height="4.112" rx="2.056" transform="translate(105.119 164.814)" fill="#f5ab35"/>
      <path id="Trazado_9102" data-name="Trazado 9102" d="M-975.209,717.829h0a2.056,2.056,0,0,1-2.056-2.056h0a2.056,2.056,0,0,1,2.056-2.056h0a2.056,2.056,0,0,1,2.056,2.056h0A2.056,2.056,0,0,1-975.209,717.829Z" transform="translate(1059.782 -536.962)" fill="#4f5569"/>
      <path id="Trazado_9103" data-name="Trazado 9103" d="M-901.365,717.829H-921.97a2.056,2.056,0,0,1-2.056-2.056h0a2.056,2.056,0,0,1,2.056-2.056h20.605a2.056,2.056,0,0,1,2.056,2.056h0A2.056,2.056,0,0,1-901.365,717.829Z" transform="translate(1029.145 -536.962)" fill="#9e8fae"/>
      <path id="Trazado_9104" data-name="Trazado 9104" d="M-799.08,717.829h-50.284a2.056,2.056,0,0,1-2.056-2.056h0a2.056,2.056,0,0,1,2.056-2.056h50.284a2.056,2.056,0,0,1,2.056,2.056h0A2.056,2.056,0,0,1-799.08,717.829Z" transform="translate(987.363 -536.962)" fill="#0c97b3"/>
      <path id="Trazado_9105" data-name="Trazado 9105" d="M-975.209,746.331h0a2.056,2.056,0,0,1-2.056-2.056h0a2.056,2.056,0,0,1,2.056-2.056h0a2.056,2.056,0,0,1,2.056,2.056h0A2.056,2.056,0,0,1-975.209,746.331Z" transform="translate(1059.782 -553.364)" fill="#4f5569"/>
      <path id="Trazado_9106" data-name="Trazado 9106" d="M-740.807,746.331H-921.97a2.056,2.056,0,0,1-2.056-2.056h0a2.056,2.056,0,0,1,2.056-2.056h181.163a2.056,2.056,0,0,1,2.056,2.056h0A2.056,2.056,0,0,1-740.807,746.331Z" transform="translate(1029.145 -553.364)" fill="#ffcb30"/>
      <path id="Trazado_9107" data-name="Trazado 9107" d="M-447,746.331h-20.9a2.056,2.056,0,0,1-2.056-2.056h0a2.056,2.056,0,0,1,2.056-2.056H-447a2.056,2.056,0,0,1,2.056,2.056h0A2.056,2.056,0,0,1-447,746.331Z" transform="translate(767.846 -553.364)" fill="#f5ab35"/>
      <path id="Trazado_9108" data-name="Trazado 9108" d="M-447,745.525h-20.9a2.056,2.056,0,0,1-2.056-2.056h0a2.056,2.056,0,0,1,2.056-2.056H-447a2.056,2.056,0,0,1,2.056,2.056h0A2.056,2.056,0,0,1-447,745.525Z" transform="translate(767.846 -552.9)" fill="#ffcb30"/>
      <path id="Trazado_9109" data-name="Trazado 9109" d="M-975.209,774.833h0a2.056,2.056,0,0,1-2.056-2.056h0a2.056,2.056,0,0,1,2.056-2.056h0a2.056,2.056,0,0,1,2.056,2.056h0A2.056,2.056,0,0,1-975.209,774.833Z" transform="translate(1059.782 -569.766)" fill="#4f5569"/>
      <path id="Trazado_9110" data-name="Trazado 9110" d="M-637.315,774.833h-251.22a2.056,2.056,0,0,1-2.056-2.056h0a2.056,2.056,0,0,1,2.056-2.056h251.22a2.056,2.056,0,0,1,2.056,2.056h0A2.056,2.056,0,0,1-637.315,774.833Z" transform="translate(1009.904 -569.766)" fill="#0c97b3"/>
      <path id="Trazado_9111" data-name="Trazado 9111" d="M-975.209,803.335h0a2.056,2.056,0,0,1-2.056-2.056h0a2.056,2.056,0,0,1,2.056-2.056h0a2.056,2.056,0,0,1,2.056,2.056h0A2.056,2.056,0,0,1-975.209,803.335Z" transform="translate(1059.782 -586.168)" fill="#4f5569"/>
      <path id="Trazado_9112" data-name="Trazado 9112" d="M-738.508,803.335H-888.535a2.056,2.056,0,0,1-2.056-2.056h0a2.056,2.056,0,0,1,2.056-2.056h150.027a2.056,2.056,0,0,1,2.055,2.056h0A2.056,2.056,0,0,1-738.508,803.335Z" transform="translate(1009.904 -586.168)" fill="#9e8fae"/>
      <path id="Trazado_9113" data-name="Trazado 9113" d="M-471.2,803.335h-38.761a2.056,2.056,0,0,1-2.056-2.056h0a2.056,2.056,0,0,1,2.056-2.056H-471.2a2.056,2.056,0,0,1,2.056,2.056h0A2.056,2.056,0,0,1-471.2,803.335Z" transform="translate(792.052 -586.168)" fill="#e4464a"/>
      <path id="Trazado_9114" data-name="Trazado 9114" d="M-349.328,803.335h-38.761a2.056,2.056,0,0,1-2.056-2.056h0a2.056,2.056,0,0,1,2.056-2.056h38.761a2.056,2.056,0,0,1,2.056,2.056h0A2.056,2.056,0,0,1-349.328,803.335Z" transform="translate(721.917 -586.168)" fill="#9e8fae"/>
      <path id="Trazado_9115" data-name="Trazado 9115" d="M-975.209,831.838h0a2.056,2.056,0,0,1-2.056-2.056h0a2.056,2.056,0,0,1,2.056-2.056h0a2.056,2.056,0,0,1,2.056,2.056h0A2.056,2.056,0,0,1-975.209,831.838Z" transform="translate(1059.782 -602.57)" fill="#4f5569"/>
      <path id="Trazado_9116" data-name="Trazado 9116" d="M-911.887,831.838H-921.97a2.056,2.056,0,0,1-2.056-2.056h0a2.056,2.056,0,0,1,2.056-2.056h10.083a2.056,2.056,0,0,1,2.056,2.056h0A2.056,2.056,0,0,1-911.887,831.838Z" transform="translate(1029.145 -602.57)" fill="#f5ab35"/>
    </g>
    <g id="Grupo_9893" data-name="Grupo 9893" transform="translate(-1234.97 285.116)">
      <path id="Trazado_9117" data-name="Trazado 9117" d="M-1006.329,561.52c-4.606-5.237-4.675-13.25-2.256-19.79s6.908-12.062,10.876-17.8,7.576-12.124,7.8-19.095c.414-12.93-10.523-23.154-15.02-35.284a38.656,38.656,0,0,1-2.18-9.483c-2.753-27.483,12.209-58.155,38.766-67.506,3.367-1.5,7.855.748,7.855,4.115.374,7.481-6.733,13.466-6.733,21.32a5.406,5.406,0,0,0,.748,2.618c13.466,7.481,16.084,20.946,2.245,29.923-1.122,1.122-1.5,2.619-2.279,4a14.182,14.182,0,0,0-.634,7.465,26.462,26.462,0,0,0,2.45,7.334c2.252,4.595,5.319,8.81,6.984,13.649,4.55,13.222-2.278,27.587-10.394,38.974s-18.017,22.344-20.666,36.074c-.848,4.4-.938,9.042-2.919,13.059s-6.782,7.19-10.895,5.418l-.817-3.621" transform="translate(1054.82 -384.045)" fill="#1957c2"/>
      <path id="Trazado_9118" data-name="Trazado 9118" d="M-974.57,544.428l-.368-.444c18.711-15.516,13.146-38.758,7.763-61.234-.464-1.938-.928-3.875-1.376-5.806-2.983-12.841,1.064-23.963,4.984-31.032a54.6,54.6,0,0,1,9.314-12.384l.391.423c-.2.184-19.759,18.628-14.129,42.863.448,1.93.912,3.865,1.376,5.8C-961.191,505.264-955.584,528.683-974.57,544.428Z" transform="translate(1034.549 -407.89)" fill="#031162"/>
      <path id="Trazado_9119" data-name="Trazado 9119" d="M-1105.3,472.295c-6.9-7.816-11.482-18.384-9.645-28.649s11.513-19.313,21.869-18.1c-5.753-8.987-11.688-18.515-12.232-29.172s6.508-22.5,17.155-23.212a15.363,15.363,0,0,1,11.981,5.052,16.621,16.621,0,0,1,4.655,12.415c-2.244-2.993.748-6.733,3.741-7.481a6.491,6.491,0,0,1,5.237,1.122c2.992,2.618,4.862,6.359,4.114,10.1-2.244,8.977-8.6,17.206-4.114,26.557,7.107,14.213,13.465,28.053,16.678,43.483.628,2.5,1.215,5.024,1.73,7.559s.96,5.083,1.331,7.643c.989,6.834,1.41,14.057-1.3,20.409-3.223,7.566-10.531,13.042-12.808,20.943-3.613,12.534,6.575,26.924.479,38.456-4.415,8.353-16.274,9.868-24.02,5.575-11.043-6.121-11.316-20.623-8.5-31.474,2.66-10.252,8.524-19.083,6.9-30.265a26.5,26.5,0,0,0-3.843-10.3C-1090.793,485.071-1099.089,479.326-1105.3,472.295Z" transform="translate(1115.35 -373.138)" fill="#7dadff"/>
      <path id="Trazado_9120" data-name="Trazado 9120" d="M-1097.934,786.754h77.136l-20.733,41.3h-38.141Z" transform="translate(1105.328 -611.157)" fill="#ffcb30"/>
      <path id="Trazado_9121" data-name="Trazado 9121" d="M-1027.026,573.706c-.079-.166-1.932-4.164-2.307-11.957-.344-7.168.574-19.022,6.906-34.786,8.643-21.521-2.731-43.036-11.037-58.745-3.385-6.4-6.309-11.934-7.181-16.147-2.978-14.393,5.424-31.681,5.509-31.854l.517.255c-.084.171-8.4,17.286-5.462,31.483.855,4.132,3.761,9.629,7.126,15.994,8.358,15.809,19.806,37.461,11.063,59.229-6.284,15.644-7.2,27.4-6.867,34.5.364,7.693,2.235,11.741,2.254,11.781Z" transform="translate(1072.728 -400.23)" fill="#031162"/>
      <path id="Trazado_9122" data-name="Trazado 9122" d="M-1047.816,601.615l-.572-.067c1.13-9.671-.986-24.178-17.481-38.368a86.2,86.2,0,0,0-20.495-12.951l.22-.532a86.846,86.846,0,0,1,20.65,13.046C-1056.284,570.667-1045.74,583.842-1047.816,601.615Z" transform="translate(1098.67 -474.741)" fill="#031162"/>
      <path id="Trazado_9123" data-name="Trazado 9123" d="M-1031.779,470.313a33.071,33.071,0,0,1,3.139-27.144,35.743,35.743,0,0,1,8.387-9.69l.341.464a35.131,35.131,0,0,0-8.244,9.54,32.508,32.508,0,0,0-3.071,26.664Z" transform="translate(1068.157 -407.862)" fill="#031162"/>
      <path id="Trazado_9124" data-name="Trazado 9124" d="M-1033.528,636.693l-.575-.039c.622-9.106-.8-21.6-11.133-29.427a29.11,29.11,0,0,0-12.754-5.481l.066-.572a29.768,29.768,0,0,1,13.036,5.595C-1034.355,614.748-1032.9,627.446-1033.528,636.693Z" transform="translate(1082.341 -504.363)" fill="#031162"/>
      <path id="Trazado_9125" data-name="Trazado 9125" d="M-954.592,516.709l-.574-.05c.721-8.236,3.219-19.289,11.021-25.171a16.184,16.184,0,0,1,9.2-3.514l-.009.576a16,16,0,0,0-8.877,3.422C-951.439,497.734-953.883,508.6-954.592,516.709Z" transform="translate(1023.171 -439.221)" fill="#031162"/>
      <path id="Trazado_9126" data-name="Trazado 9126" d="M-1096.8,543.029a1.815,1.815,0,0,1-1.814-1.813,1.815,1.815,0,0,1,1.814-1.814,1.816,1.816,0,0,1,1.813,1.814A1.815,1.815,0,0,1-1096.8,543.029Zm0-3.051a1.238,1.238,0,0,0-1.238,1.238,1.239,1.239,0,0,0,1.238,1.237,1.239,1.239,0,0,0,1.238-1.237A1.239,1.239,0,0,0-1096.8,539.978Z" transform="translate(1105.718 -468.816)" fill="#031162"/>
      <path id="Trazado_9127" data-name="Trazado 9127" d="M-902.052,485.338a1.474,1.474,0,0,1-1.472-1.473,1.474,1.474,0,0,1,1.472-1.472,1.474,1.474,0,0,1,1.473,1.472A1.474,1.474,0,0,1-902.052,485.338Zm0-2.369a.9.9,0,0,0-.9.9.9.9,0,0,0,.9.9.9.9,0,0,0,.9-.9A.9.9,0,0,0-902.052,482.969Z" transform="translate(993.453 -436.01)" fill="#031162"/>
      <path id="Trazado_9128" data-name="Trazado 9128" d="M-1070.115,601.192a1.692,1.692,0,0,1-1.691-1.69,1.692,1.692,0,0,1,1.691-1.691,1.692,1.692,0,0,1,1.691,1.691A1.692,1.692,0,0,1-1070.115,601.192Zm0-2.8a1.116,1.116,0,0,0-1.115,1.115,1.117,1.117,0,0,0,1.115,1.115A1.117,1.117,0,0,0-1069,599.5,1.116,1.116,0,0,0-1070.115,598.387Z" transform="translate(1090.292 -502.428)" fill="#031162"/>
      <path id="Trazado_9129" data-name="Trazado 9129" d="M-1026.058,413.445a1.43,1.43,0,0,1-1.429-1.429,1.43,1.43,0,0,1,1.429-1.429,1.43,1.43,0,0,1,1.429,1.429A1.43,1.43,0,0,1-1026.058,413.445Zm0-2.281a.854.854,0,0,0-.853.853.854.854,0,0,0,.853.853.854.854,0,0,0,.853-.853A.854.854,0,0,0-1026.058,411.164Z" transform="translate(1064.788 -394.689)" fill="#031162"/>
      <path id="Trazado_9130" data-name="Trazado 9130" d="M-998.306,429.744a1.43,1.43,0,0,1-1.428-1.429,1.43,1.43,0,0,1,1.428-1.429,1.431,1.431,0,0,1,1.429,1.429A1.43,1.43,0,0,1-998.306,429.744Zm0-2.281a.853.853,0,0,0-.852.852.853.853,0,0,0,.852.853.854.854,0,0,0,.853-.853A.854.854,0,0,0-998.306,427.463Z" transform="translate(1048.818 -404.068)" fill="#031162"/>
      <path id="Trazado_9131" data-name="Trazado 9131" d="M-923.008,425.011a2.1,2.1,0,0,1-2.1-2.1,2.1,2.1,0,0,1,2.1-2.1,2.1,2.1,0,0,1,2.1,2.1A2.1,2.1,0,0,1-923.008,425.011Zm0-3.628a1.528,1.528,0,0,0-1.526,1.526,1.528,1.528,0,0,0,1.526,1.526,1.528,1.528,0,0,0,1.526-1.526A1.528,1.528,0,0,0-923.008,421.383Z" transform="translate(1005.875 -400.57)" fill="#031162"/>
    </g>
    <g id="Grupo_9899" data-name="Grupo 9899" transform="translate(-1058.792 344.711)">
      <path id="Trazado_9132" data-name="Trazado 9132" d="M-656.646,580.045a16.76,16.76,0,0,1-16.761,16.762,16.762,16.762,0,0,1-16.763-16.762,16.763,16.763,0,0,1,16.763-16.762A16.761,16.761,0,0,1-656.646,580.045Z" transform="translate(694.497 -542.154)" fill="#ffcb30"/>
      <path id="Trazado_9133" data-name="Trazado 9133" d="M-677.947,613.731a.981.981,0,0,0,.709-.3.984.984,0,0,0-.027-1.39,13.294,13.294,0,0,1-3.7-8.683.983.983,0,0,0-.983-.984.983.983,0,0,0-.983.984,15.164,15.164,0,0,0,4.305,10.1A.979.979,0,0,0-677.947,613.731Z" transform="translate(690.333 -564.648)" fill="#f8f8f8"/>
      <path id="Trazado_9134" data-name="Trazado 9134" d="M-538.124,659.467l13.741-70.641-52.785-56.669,2.767-3.884,55.565,58.83-13.9,71.608Z" transform="translate(629.469 -522.007)" fill="#031162"/>
      <path id="Trazado_9135" data-name="Trazado 9135" d="M-566.172,536.557l6.17,6.533h-6.516l-2.122-2.278Z" transform="translate(624.561 -526.774)" fill="#031162"/>
      <path id="Trazado_9136" data-name="Trazado 9136" d="M-451.946,690.763l-4.217-5.142.263-1.353,5.3-.417Z" transform="translate(559.836 -611.535)" fill="#031162"/>
      <path id="Trazado_9137" data-name="Trazado 9137" d="M-535.272,847.971a.687.687,0,0,1-.687.688h-9.113a.69.69,0,0,1-.69-.688v-6.879a.689.689,0,0,1,.69-.686h9.113a.686.686,0,0,1,.687.686Z" transform="translate(611.396 -701.626)" fill="#f8f8f8"/>
      <path id="Trazado_9138" data-name="Trazado 9138" d="M-533.954,842.9c-22.449,0-40.648,5.239-40.648,14.627h81.3C-493.3,848.143-511.5,842.9-533.954,842.9Z" transform="translate(627.993 -703.064)" fill="#031162"/>
      <path id="Trazado_9139" data-name="Trazado 9139" d="M-482.907,848.756c-4.082,0-3.267-3.1-1.745-5.84q.869-.011,1.745-.011a125.717,125.717,0,0,1,14.1.754C-471.077,845.16-477.108,848.756-482.907,848.756Z" transform="translate(576.946 -703.064)" fill="#031162"/>
      <g id="Grupo_9894" data-name="Grupo 9894" transform="translate(45.074)">
        <path id="Trazado_9140" data-name="Trazado 9140" d="M-579.607,528.32a8.609,8.609,0,0,1-12.175-.225,8.608,8.608,0,0,1,.224-12.172,8.611,8.611,0,0,1,12.175.225A8.608,8.608,0,0,1-579.607,528.32Z" transform="translate(594.193 -513.513)" fill="#1957c2"/>
        <path id="Trazado_9141" data-name="Trazado 9141" d="M-576.663,531.15a4.158,4.158,0,0,1-5.88-.11,4.154,4.154,0,0,1,.11-5.877,4.156,4.156,0,0,1,5.879.108A4.16,4.16,0,0,1-576.663,531.15Z" transform="translate(588.159 -519.546)" fill="#031162"/>
      </g>
      <g id="Grupo_9895" data-name="Grupo 9895" transform="translate(99.179 57.32)">
        <path id="Trazado_9142" data-name="Trazado 9142" d="M-449.528,657.137a8.61,8.61,0,0,1-8.61,8.609,8.609,8.609,0,0,1-8.609-8.609,8.608,8.608,0,0,1,8.609-8.608A8.609,8.609,0,0,1-449.528,657.137Z" transform="translate(466.747 -648.529)" fill="#1957c2"/>
        <path id="Trazado_9143" data-name="Trazado 9143" d="M-447.946,663.169a4.158,4.158,0,0,1-4.158,4.158,4.159,4.159,0,0,1-4.158-4.158,4.159,4.159,0,0,1,4.158-4.158A4.158,4.158,0,0,1-447.946,663.169Z" transform="translate(460.714 -654.561)" fill="#031162"/>
      </g>
      <g id="Grupo_9896" data-name="Grupo 9896" transform="translate(85.43 128.473)">
        <path id="Trazado_9144" data-name="Trazado 9144" d="M-481.917,824.738a8.608,8.608,0,0,1-8.608,8.61,8.609,8.609,0,0,1-8.608-8.61,8.609,8.609,0,0,1,8.608-8.609A8.608,8.608,0,0,1-481.917,824.738Z" transform="translate(499.133 -816.129)" fill="#1957c2"/>
        <path id="Trazado_9145" data-name="Trazado 9145" d="M-480.334,830.771a4.159,4.159,0,0,1-4.159,4.158,4.159,4.159,0,0,1-4.159-4.158,4.159,4.159,0,0,1,4.159-4.158A4.159,4.159,0,0,1-480.334,830.771Z" transform="translate(493.102 -822.162)" fill="#031162"/>
      </g>
      <rect id="Rectángulo_2833" data-name="Rectángulo 2833" width="5.386" height="13.181" transform="matrix(0.72, -0.694, 0.694, 0.72, 41.239, 11.284)" fill="#031162"/>
      <g id="Grupo_9897" data-name="Grupo 9897" transform="translate(0 7.484)">
        <path id="Trazado_9146" data-name="Trazado 9146" d="M-700.363,549.963c16.75-16.145,32.305-26.615,47.434-11.485,13.909,13.909,3.529,30.835-13.221,46.979Z" transform="translate(700.363 -531.141)" fill="#1957c2"/>
      </g>
      <g id="Grupo_9898" data-name="Grupo 9898" transform="translate(50.799 5.616)">
        <path id="Trazado_9147" data-name="Trazado 9147" d="M-577.843,526.742a2.861,2.861,0,0,0-2.863,2.862,2.861,2.861,0,0,0,2.863,2.864,2.862,2.862,0,0,0,2.861-2.864A2.861,2.861,0,0,0-577.843,526.742Z" transform="translate(580.706 -526.742)" fill="#f8f8f8"/>
        <path id="Trazado_9148" data-name="Trazado 9148" d="M-450.348,661.93a2.862,2.862,0,0,0-2.863,2.863,2.862,2.862,0,0,0,2.863,2.863,2.862,2.862,0,0,0,2.864-2.863A2.862,2.862,0,0,0-450.348,661.93Z" transform="translate(507.338 -604.537)" fill="#f8f8f8"/>
        <path id="Trazado_9149" data-name="Trazado 9149" d="M-482.737,829.664a2.863,2.863,0,0,0-2.863,2.863,2.864,2.864,0,0,0,2.863,2.864,2.862,2.862,0,0,0,2.862-2.864A2.861,2.861,0,0,0-482.737,829.664Z" transform="translate(525.976 -701.062)" fill="#f8f8f8"/>
      </g>
    </g>
    <g id="Grupo_9907" data-name="Grupo 9907" transform="translate(-1204.919 338.88)">
      <path id="Trazado_9150" data-name="Trazado 9150" d="M-817.34,907.481c-.373-4.453-4.62-7.784-9-8.656s-8.893.14-13.266,1.065a350.77,350.77,0,0,1-157.242-2.937c-4.989-1.252-10.041-2.624-15.181-2.427s-10.494,2.237-13.364,6.505c-4.445,6.61-1.089,16.27,5.384,20.913s14.976,5.322,22.923,4.771,15.883-2.163,23.818-1.46c7.666.678,15.968,4.419,18.33,11.744,1.42,4.4-3.318,30.208,8.8,24.174,3.938-1.96,3.913-8.8,6.863-12.155A18,18,0,0,1-926,942.859a18.018,18.018,0,0,1,16.463,11.48c1.878,5.092,2.15,11.961,7.223,13.891,5.1,1.941,9.958-3.134,13.08-7.613l8.257-11.846c2.507-3.6,5.1-7.409,5.516-11.773s-2.211-9.354-6.56-9.912a189.882,189.882,0,0,1,45.006-7.633c4.313-.2,8.763-.289,12.714-2.03S-816.979,911.784-817.34,907.481Z" transform="translate(1034.699 -726.93)" opacity="0.15" style="mix-blend-mode: multiply;isolation: isolate"/>
      <g id="Grupo_9906" data-name="Grupo 9906">
        <path id="Trazado_9151" data-name="Trazado 9151" d="M-913.666,833.76l122.511-5.346L-798.73,856.1l-71.332,29.913-45.427-20.248Z" transform="translate(970.287 -688.895)" fill="#031162"/>
        <path id="Trazado_9152" data-name="Trazado 9152" d="M-880.409,781.121l1.063,21.775h93.613l2.359-45.587Z" transform="translate(950.1 -647.978)" fill="#ff654d"/>
        <path id="Trazado_9153" data-name="Trazado 9153" d="M-890.795,614.132s-39.976,8.1-47.328,14.139-14.636,80.1-12.15,83.512,152.091,6.908,155.54.5-15.764-83.1-20.937-86.946S-878.124,613.271-890.795,614.132Z" transform="translate(990.589 -565.549)" fill="#ff654d"/>
        <path id="Trazado_9154" data-name="Trazado 9154" d="M-657.978,724l-.038,0a.441.441,0,0,1-.4-.477c1.221-14.108.011-53.841,0-54.241a.44.44,0,0,1,.426-.454.445.445,0,0,1,.454.426c.012.4,1.224,40.185,0,54.345A.44.44,0,0,1-657.978,724Z" transform="translate(822.353 -597.057)" fill="#000d41"/>
        <path id="Trazado_9155" data-name="Trazado 9155" d="M-892.744,724.449a.423.423,0,0,1-.05,0,.44.44,0,0,1-.388-.487c1.91-16.7-1.533-51.011-1.568-51.355a.44.44,0,0,1,.394-.482.44.44,0,0,1,.483.393c.035.345,3.486,34.748,1.567,51.544A.441.441,0,0,1-892.744,724.449Z" transform="translate(958.354 -598.954)" fill="#000d41"/>
        <path id="Trazado_9156" data-name="Trazado 9156" d="M-859.919,814.4l-1.888-7.629a1.018,1.018,0,0,1,.686-1.217l2.584-.8a1.018,1.018,0,0,0,.7-.787l.439-2.369a1.018,1.018,0,0,1,1-.833h2.113a1.018,1.018,0,0,0,.864-.478l1.289-2.062a1.018,1.018,0,0,1,1.382-.336l2.447,1.45a1.018,1.018,0,0,0,1.016.013l1.436-.8a1.018,1.018,0,0,1,1.346.327l5.147,7.778a1.018,1.018,0,0,1-.318,1.431l-1.14.7a1.019,1.019,0,0,1-1.294-.194h0a1.018,1.018,0,0,0-1.768.832l.053.338a1.017,1.017,0,0,1-.555,1.07l-10.093,4.982a1.023,1.023,0,0,1-.206.075c-.633.158-3.734.807-5.1-1.155A.98.98,0,0,1-859.919,814.4Z" transform="translate(939.412 -671.249)" fill="#febac7"/>
        <path id="Trazado_9157" data-name="Trazado 9157" d="M-717.9,814.4l1.888-7.629a1.018,1.018,0,0,0-.686-1.217l-2.584-.8a1.019,1.019,0,0,1-.7-.787l-.439-2.369a1.018,1.018,0,0,0-1-.833h-2.114a1.018,1.018,0,0,1-.864-.478l-1.289-2.062a1.018,1.018,0,0,0-1.382-.336l-2.447,1.45a1.018,1.018,0,0,1-1.016.013l-1.436-.8a1.018,1.018,0,0,0-1.346.327l-5.147,7.778a1.018,1.018,0,0,0,.318,1.431l1.14.7a1.018,1.018,0,0,0,1.293-.194h0a1.018,1.018,0,0,1,1.768.832l-.053.338a1.017,1.017,0,0,0,.555,1.07l10.093,4.982a1.025,1.025,0,0,0,.206.075c.633.158,3.734.807,5.1-1.155A.982.982,0,0,0-717.9,814.4Z" transform="translate(868.513 -671.249)" fill="#febac7"/>
        <path id="Trazado_9158" data-name="Trazado 9158" d="M-894.874,806.9a.416.416,0,0,1-.065-.005l-23.933-3.525a.44.44,0,0,1-.371-.5.439.439,0,0,1,.5-.371l23.933,3.525a.44.44,0,0,1,.371.5A.441.441,0,0,1-894.874,806.9Z" transform="translate(972.45 -673.98)" fill="#000d41"/>
        <path id="Trazado_9159" data-name="Trazado 9159" d="M-680.914,809.962a.439.439,0,0,1-.433-.363.439.439,0,0,1,.356-.51l19.457-3.47a.438.438,0,0,1,.51.356.44.44,0,0,1-.356.51l-19.457,3.47A.437.437,0,0,1-680.914,809.962Z" transform="translate(835.551 -675.773)" fill="#000d41"/>
        <g id="Grupo_9901" data-name="Grupo 9901" transform="translate(85.143)">
          <g id="Grupo_9900" data-name="Grupo 9900">
            <path id="Trazado_9160" data-name="Trazado 9160" d="M-824.823,555.832s-3.359,28.876,17.206,28.876c18.705,0,18.053-24.844,18.053-24.844s1.871-15.375-12.631-17.115S-825.7,550.642-824.823,555.832Z" transform="translate(833.086 -524.388)" fill="#febac7"/>
            <path id="Trazado_9161" data-name="Trazado 9161" d="M-805.465,521.75s-4.57,8.951.062,13.5a11.8,11.8,0,0,1,3.314,11.117l-.051.217s7.765-6.15,9.2-18.622-4.22-20.32-9.012-19.435c0,0-1.907-9.581-14.077-8.685s-22.215-.092-26.622,9.556,3.274,18.1,3.274,18.1a59.721,59.721,0,0,0,4.754,19.094l-1.621-11.924S-822.867,516.7-805.465,521.75Z" transform="translate(844.011 -499.78)" fill="#031162"/>
          </g>
          <path id="Trazado_9162" data-name="Trazado 9162" d="M-743.965,583.83l-1.419,9.776s6.913-3.668,6.8-8.646a3.433,3.433,0,0,0-1.364-3.061A2.667,2.667,0,0,0-743.965,583.83Z" transform="translate(787.255 -546.805)" fill="#febac7"/>
          <path id="Trazado_9163" data-name="Trazado 9163" d="M-831.685,580.191l1.2,12.587s-6.642-3.849-6.532-8.827S-831.685,580.191-831.685,580.191Z" transform="translate(839.989 -545.978)" fill="#febac7"/>
        </g>
        <g id="Grupo_9902" data-name="Grupo 9902" transform="translate(73.088 101.679)">
          <rect id="Rectángulo_2834" data-name="Rectángulo 2834" width="80.276" height="56.728" rx="12.985" transform="translate(0)" fill="#f8f8f8"/>
          <path id="Trazado_9164" data-name="Trazado 9164" d="M-793.465,875.576h-77.606a1.335,1.335,0,0,1-1.335-1.335h0a1.335,1.335,0,0,1,1.335-1.335h77.606a1.335,1.335,0,0,1,1.335,1.335h0A1.335,1.335,0,0,1-793.465,875.576Z" transform="translate(872.406 -816.177)" fill="#746980"/>
          <path id="Trazado_9165" data-name="Trazado 9165" d="M-715.2,875.042a.569.569,0,0,1-.569.569.569.569,0,0,1-.569-.569.569.569,0,0,1,.569-.569A.569.569,0,0,1-715.2,875.042Z" transform="translate(782.598 -817.079)" fill="#9e8fae"/>
          <rect id="Rectángulo_2835" data-name="Rectángulo 2835" width="4.592" height="1.138" transform="translate(60.289 57.394)" fill="#9e8fae"/>
        </g>
        <g id="Grupo_9903" data-name="Grupo 9903" transform="translate(0 123.362)">
          <path id="Trazado_9166" data-name="Trazado 9166" d="M-1013.717,793.308-907.38,857.87c-8.56,6.951-13.325,16.032-15.241,26.713L-1033.388,828.8a20.3,20.3,0,0,1-7.346-30h0A20.306,20.306,0,0,1-1013.717,793.308Z" transform="translate(1044.565 -790.358)" fill="#1957c2"/>
          <path id="Trazado_9167" data-name="Trazado 9167" d="M-803.013,972.466l-6.752,5.7,13.357,6.726c4-3.44,11.789-10.076,12.95-10.519C-781.888,973.775-803.013,972.466-803.013,972.466Z" transform="translate(909.447 -895.154)" fill="#031162"/>
          <path id="Trazado_9168" data-name="Trazado 9168" d="M-741.4,949.381l17.711,9.979a2.732,2.732,0,0,1,1.028,3.739c-4.672,8.147-20.255,34.48-28.489,38.059,0,0-6.648-2.135-4.1-10.827a27.39,27.39,0,0,0-.88-16.733S-755.552,953.335-741.4,949.381Z" transform="translate(878.582 -881.869)" fill="#031162"/>
          <path id="Trazado_9169" data-name="Trazado 9169" d="M-744.395,1015.479c8.234-3.58,23.817-29.912,28.489-38.059a2.73,2.73,0,0,0-.312-3.154C-719.383,976.139-733.087,985.656-744.395,1015.479Z" transform="translate(871.829 -896.19)" fill="#2c4b80"/>
        </g>
        <g id="Grupo_9904" data-name="Grupo 9904" transform="translate(60.377 131.631)">
          <path id="Trazado_9170" data-name="Trazado 9170" d="M-742.242,811.806l-112.351,53.413c7.809,7.785,11.626,17.3,12.446,28.124l115.865-44.229a20.305,20.305,0,0,0,10.358-29.1h0A20.305,20.305,0,0,0-742.242,811.806Z" transform="translate(874.866 -809.836)" fill="#1957c2"/>
          <path id="Trazado_9171" data-name="Trazado 9171" d="M-882.073,940.291l-18.633,8.126a2.732,2.732,0,0,0-1.4,3.615c3.819,8.58,16.644,36.36,24.471,40.759,0,0,6.831-1.448,5.182-10.354a27.393,27.393,0,0,1,2.577-16.557S-868.394,945.664-882.073,940.291Z" transform="translate(902.346 -884.908)" fill="#031162"/>
          <path id="Trazado_9172" data-name="Trazado 9172" d="M-877.637,1004.5c-7.827-4.4-20.652-32.179-24.471-40.759a2.731,2.731,0,0,1,.632-3.106C-898.52,962.818-885.854,973.68-877.637,1004.5Z" transform="translate(902.345 -896.614)" fill="#2c4b80"/>
        </g>
        <g id="Grupo_9905" data-name="Grupo 9905" transform="translate(39.82 127.175)">
          <path id="Trazado_9173" data-name="Trazado 9173" d="M-950.085,799.339c-.794,10.327-.951,18.012-.189,19.06.7.961,13.027,1.927,30.465,2.678Z" transform="translate(950.77 -799.339)" fill="#ff654d"/>
          <path id="Trazado_9174" data-name="Trazado 9174" d="M-684.877,828.25c23.668-.273,41.974-1.306,43.154-3.5.844-1.568.329-7.353-1-15.249Z" transform="translate(797.759 -805.189)" fill="#ff654d"/>
        </g>
        <path id="Trazado_9175" data-name="Trazado 9175" d="M-845.052,922.329a.441.441,0,0,1-.4-.251.44.44,0,0,1,.208-.587l20.153-9.581a.44.44,0,0,1,.587.208.44.44,0,0,1-.209.587l-20.152,9.581A.437.437,0,0,1-845.052,922.329Z" transform="translate(930.007 -736.919)" fill="#000d41"/>
      </g>
    </g>
    <g id="Grupo_9909" data-name="Grupo 9909" transform="translate(-1230.171 220.179)">
      <path id="Rectángulo_2836" data-name="Rectángulo 2836" d="M12.082,0h33.36A12.081,12.081,0,0,1,57.523,12.081V24.12A12.081,12.081,0,0,1,45.442,36.2H12.083A12.083,12.083,0,0,1,0,24.118V12.082A12.082,12.082,0,0,1,12.082,0Z" fill="#ff654d"/>
      <g id="Grupo_9908" data-name="Grupo 9908" transform="translate(9.756 7.957)">
        <path id="Trazado_9176" data-name="Trazado 9176" d="M-1054.213,259.208h3.747l10.783-20.288h-3.748Z" transform="translate(1065.613 -238.921)" fill="#f8f8f8"/>
        <path id="Trazado_9177" data-name="Trazado 9177" d="M-1004.824,253.108h-.027l-5.8-8.206h-3.979l5.814,8.229-5.814,7.84h3.979l5.8-7.817h.027l-.014-.023Z" transform="translate(1042.836 -242.362)" fill="#f8f8f8"/>
        <path id="Trazado_9178" data-name="Trazado 9178" d="M-1081.066,253.108h.027l5.8-8.206h3.635l-5.815,8.229,5.815,7.84h-3.635l-5.8-7.817h-.027l.013-.023Z" transform="translate(1081.066 -242.362)" fill="#f8f8f8"/>
      </g>
    </g>
    <g id="Grupo_9911" data-name="Grupo 9911" transform="translate(-1027.555 263.172)">
      <path id="Rectángulo_2837" data-name="Rectángulo 2837" d="M14.449,0h39.9A14.449,14.449,0,0,1,68.795,14.449v14.4A14.448,14.448,0,0,1,54.346,43.3H14.45A14.45,14.45,0,0,1,0,28.845v-14.4A14.449,14.449,0,0,1,14.449,0Z" transform="translate(0 0)" fill="#1957c2"/>
      <g id="Grupo_9910" data-name="Grupo 9910" transform="translate(14.474 9.516)">
        <path id="Trazado_9179" data-name="Trazado 9179" d="M-588.429,354.954a4.186,4.186,0,0,1-1.239.98l-.662.432a4.356,4.356,0,0,0,.662.432,8.832,8.832,0,0,1,.936.663,1.752,1.752,0,0,1,.475.69,3.289,3.289,0,0,1,.173,1.183v5.27a1.9,1.9,0,0,0,.647,1.615,3.692,3.692,0,0,0,2.175.49V368.9h-1.008a5.279,5.279,0,0,1-3.3-.805,3.3,3.3,0,0,1-.994-2.709v-6.222a2.04,2.04,0,0,0-.317-1.282,1.185,1.185,0,0,0-.979-.389h-.835v-2.219h.835a1.185,1.185,0,0,0,.979-.389,2.042,2.042,0,0,0,.317-1.282v-6.222a3.305,3.305,0,0,1,.994-2.694,5.2,5.2,0,0,1,3.3-.821h1.008v2.188a3.689,3.689,0,0,0-2.175.49,1.9,1.9,0,0,0-.647,1.614v5.3A2.527,2.527,0,0,1-588.429,354.954Z" transform="translate(592.692 -343.865)" fill="#f8f8f8"/>
        <path id="Trazado_9180" data-name="Trazado 9180" d="M-508.907,355.272v2.219h-.836a1.185,1.185,0,0,0-.98.389,2.041,2.041,0,0,0-.316,1.282v6.222a3.3,3.3,0,0,1-.994,2.709,5.284,5.284,0,0,1-3.3.805h-1.009v-2.188a3.688,3.688,0,0,0,2.174-.49,1.9,1.9,0,0,0,.649-1.615v-5.27a3.262,3.262,0,0,1,.173-1.183,1.741,1.741,0,0,1,.474-.69,9.106,9.106,0,0,1,.937-.663,4.367,4.367,0,0,0,.663-.432l-.663-.432a4.19,4.19,0,0,1-1.239-.98,2.528,2.528,0,0,1-.345-1.5v-5.3a1.9,1.9,0,0,0-.649-1.614,3.685,3.685,0,0,0-2.174-.49v-2.188h1.009a5.2,5.2,0,0,1,3.3.821,3.305,3.305,0,0,1,.994,2.694V353.6a2.042,2.042,0,0,0,.316,1.282,1.185,1.185,0,0,0,.98.389Z" transform="translate(548.754 -343.865)" fill="#f8f8f8"/>
      </g>
    </g>
    <path id="Trazado_9181" data-name="Trazado 9181" d="M-1213.1,634.823c-.819-.145-1.649-.323-2.467-.528l.1-.405c.808.2,1.628.378,2.438.521Zm-5.688-1.494c-.785-.276-1.575-.583-2.35-.914l.164-.385c.767.328,1.549.632,2.325.9Zm-5.381-2.37c-.737-.395-1.471-.819-2.183-1.262l.221-.355c.7.438,1.431.858,2.16,1.248Zm-4.96-3.158c-.67-.5-1.333-1.03-1.971-1.573l.271-.318c.631.537,1.287,1.061,1.95,1.556Zm-4.434-3.86c-.591-.6-1.168-1.221-1.714-1.85l.316-.274c.54.622,1.11,1.238,1.7,1.83Zm-3.8-4.484c-.492-.68-.966-1.384-1.409-2.093l.354-.221c.438.7.907,1.4,1.393,2.068Zm-3.058-5.023c-.377-.751-.731-1.522-1.053-2.293l.386-.161c.317.762.667,1.524,1.04,2.265Z" transform="translate(-47.039 -225.465)" fill="#9e8fae"/>
  </g>
</svg>
