<svg xmlns="http://www.w3.org/2000/svg" width="118" height="118" viewBox="0 0 118 118">
  <g id="Grupo_9329" data-name="Grupo 9329" transform="translate(-401 -1136)">
    <g id="Elipse_556" data-name="Elipse 556" transform="translate(401 1136)" fill="#f0f0f0" stroke="#fdac29" stroke-width="2">
      <circle cx="59" cy="59" r="59" stroke="none"/>
      <circle cx="59" cy="59" r="58" fill="none"/>
    </g>
    <g id="Grupo_9280" data-name="Grupo 9280" transform="translate(803.991 990.754)">
      <g id="Grupo_9262" data-name="Grupo 9262" transform="translate(-374.99 159.127)">
        <g id="Grupo_9260" data-name="Grupo 9260" transform="translate(0 0)">
          <g id="Grupo_9252" data-name="Grupo 9252" transform="translate(0 11.741)">
            <g id="Grupo_9233" data-name="Grupo 9233">
              <path id="Trazado_16649" data-name="Trazado 16649" d="M62.447,108.8v-1.86c0-.685.674-.974,1.042-1.525a5.873,5.873,0,0,0,0-4.693c-.368-.552-1.042-.841-1.042-1.525V97.337c0-.685.674-.974,1.042-1.525a5.873,5.873,0,0,0,0-4.693c-.368-.552-1.042-.841-1.042-1.525V87.733c0-.685.674-.973,1.042-1.525a5.873,5.873,0,0,0,0-4.693c-.368-.552-1.042-.841-1.042-1.525V78.129c0-.684.674-.973,1.042-1.525a5.873,5.873,0,0,0,0-4.693c-.368-.552-1.042-.841-1.042-1.525V68.525c0-.684.674-.973,1.042-1.525.255-.381,0-1.833,0-1.833,0-7.608-7.473-13.985-13.363-15.711V42.587H39.862v6.869C33.972,51.182,26.5,57.559,26.5,65.167c0,0-.255,1.452,0,1.833.368.552,1.042.841,1.042,1.525v1.861c0,.684-.674.973-1.042,1.525a5.873,5.873,0,0,0,0,4.693c.368.552,1.042.841,1.042,1.525V79.99c0,.684-.674.973-1.042,1.525a5.873,5.873,0,0,0,0,4.693c.368.552,1.042.84,1.042,1.525v1.861c0,.684-.674.973-1.042,1.525a5.873,5.873,0,0,0,0,4.693c.368.551,1.042.84,1.042,1.525V99.2c0,.684-.674.973-1.042,1.525a5.873,5.873,0,0,0,0,4.693c.368.551,1.042.84,1.042,1.525v1.86c0,.685-.674.974-1.042,1.526-.38.568,0,2.732,0,2.732a4.717,4.717,0,0,0,4.717,4.717H58.772a4.717,4.717,0,0,0,4.717-4.717s.38-2.164,0-2.732C63.121,109.775,62.447,109.485,62.447,108.8Z" transform="translate(-26.009 -42.587)" fill="#a7d8ea"/>
            </g>
            <g id="Grupo_9234" data-name="Grupo 9234" transform="translate(18.839)">
              <path id="Trazado_16650" data-name="Trazado 16650" d="M77.289,86.208a5.873,5.873,0,0,0,0-4.693c-.368-.552-1.042-.841-1.042-1.525V78.129c0-.684.674-.973,1.042-1.525a5.873,5.873,0,0,0,0-4.693c-.368-.552-1.042-.841-1.042-1.525V68.525c0-.684.674-.973,1.042-1.525.255-.381,0-1.833,0-1.833,0-7.608-7.473-13.985-13.363-15.711V42.587H58.648v75.189H72.572a4.717,4.717,0,0,0,4.717-4.717s.38-2.164,0-2.732c-.368-.552-1.042-.841-1.042-1.526v-1.86c0-.685.674-.974,1.042-1.525a5.873,5.873,0,0,0,0-4.693c-.368-.552-1.042-.841-1.042-1.525V97.337c0-.685.674-.974,1.042-1.525a5.873,5.873,0,0,0,0-4.693c-.368-.552-1.042-.841-1.042-1.525V87.733C76.247,87.048,76.921,86.76,77.289,86.208Z" transform="translate(-58.648 -42.587)" fill="#89ceec"/>
            </g>
            <g id="Grupo_9235" data-name="Grupo 9235" transform="translate(4.872 0.676)" style="mix-blend-mode: multiply;isolation: isolate">
              <path id="Trazado_16651" data-name="Trazado 16651" d="M62.341,117.6H34.785a.335.335,0,0,1,0-.67H62.341a3.376,3.376,0,0,0,3.372-3.372v-.088a.325.325,0,0,1,.005-.058l.015-.087a8.256,8.256,0,0,0,.139-1.837c-.058-.064-.129-.133-.2-.2a2.691,2.691,0,0,1-1-1.983v-1.861a2.69,2.69,0,0,1,1-1.983,2.474,2.474,0,0,0,.273-.29,5.009,5.009,0,0,0,0-3.2,2.315,2.315,0,0,0-.262-.279,2.7,2.7,0,0,1-1.007-1.992V97.832a2.689,2.689,0,0,1,1-1.982,2.5,2.5,0,0,0,.274-.291,5.009,5.009,0,0,0,0-3.2,2.4,2.4,0,0,0-.267-.285,2.7,2.7,0,0,1-1-1.987V88.228a2.69,2.69,0,0,1,1-1.981,2.488,2.488,0,0,0,.274-.291,5.007,5.007,0,0,0,0-3.2,2.313,2.313,0,0,0-.267-.285,2.7,2.7,0,0,1-1-1.988V78.625a2.69,2.69,0,0,1,1-1.983,2.386,2.386,0,0,0,.273-.29,5.009,5.009,0,0,0,0-3.2,2.4,2.4,0,0,0-.262-.279,2.7,2.7,0,0,1-1.007-1.992V69.021a2.691,2.691,0,0,1,1-1.982c.057-.055.112-.108.16-.159a6.23,6.23,0,0,0-.094-.986l-.015-.087a.314.314,0,0,1-.005-.057v-.087c0-7.039-7.2-12.9-12.4-14.42l-.727-.213a.335.335,0,0,1-.241-.321V44.094a.334.334,0,1,1,.669,0v6.365l.487.143c5.4,1.581,12.878,7.7,12.878,15.062l.01.117a5.95,5.95,0,0,1,.1,1.267.335.335,0,0,1-.078.185c-.075.089-.174.186-.278.287a2.056,2.056,0,0,0-.794,1.5v1.861a2.056,2.056,0,0,0,.794,1.5,2.742,2.742,0,0,1,.362.4,5.324,5.324,0,0,1,0,3.942,2.694,2.694,0,0,1-.357.392,2.064,2.064,0,0,0-.8,1.508v1.861a2.055,2.055,0,0,0,.794,1.5,2.709,2.709,0,0,1,.362.4,5.322,5.322,0,0,1,0,3.942,2.7,2.7,0,0,1-.357.392,2.065,2.065,0,0,0-.8,1.508v1.861a2.054,2.054,0,0,0,.794,1.5,2.738,2.738,0,0,1,.362.4,5.324,5.324,0,0,1,0,3.942,2.676,2.676,0,0,1-.352.387,2.072,2.072,0,0,0-.805,1.514v1.861a2.055,2.055,0,0,0,.794,1.5,2.775,2.775,0,0,1,.362.4,5.324,5.324,0,0,1,0,3.942,2.724,2.724,0,0,1-.357.392,2.064,2.064,0,0,0-.8,1.508V109.3a2.054,2.054,0,0,0,.794,1.5,3.452,3.452,0,0,1,.316.334.328.328,0,0,1,.062.128,7.669,7.669,0,0,1-.119,2.177l-.01.117A4.047,4.047,0,0,1,62.341,117.6Z" transform="translate(-34.451 -43.759)" fill="#89ceec"/>
            </g>
            <g id="Grupo_9236" data-name="Grupo 9236" transform="translate(0.671 0.674)" style="mix-blend-mode: screen;isolation: isolate">
              <path id="Trazado_16652" data-name="Trazado 16652" d="M28,113.89a.337.337,0,0,1-.337-.337l-.01-.117a7.714,7.714,0,0,1-.119-2.177.346.346,0,0,1,.062-.129,3.6,3.6,0,0,1,.316-.334,2.054,2.054,0,0,0,.793-1.5v-1.861a2.056,2.056,0,0,0-.793-1.5,2.622,2.622,0,0,1-.363-.4,5.325,5.325,0,0,1,0-3.944,2.663,2.663,0,0,1,.357-.393,2.06,2.06,0,0,0,.8-1.506V97.831a2.055,2.055,0,0,0-.793-1.5,2.718,2.718,0,0,1-.363-.4,5.325,5.325,0,0,1,0-3.944,2.7,2.7,0,0,1,.362-.4,2.052,2.052,0,0,0,.793-1.5V88.227a2.056,2.056,0,0,0-.792-1.5,2.657,2.657,0,0,1-.364-.4,5.324,5.324,0,0,1,0-3.943,2.675,2.675,0,0,1,.362-.4,2.056,2.056,0,0,0,.793-1.5V78.623a2.055,2.055,0,0,0-.793-1.5,2.652,2.652,0,0,1-.363-.4,5.324,5.324,0,0,1,0-3.943,2.667,2.667,0,0,1,.357-.394,2.059,2.059,0,0,0,.8-1.505V69.019a2.053,2.053,0,0,0-.793-1.5c-.1-.1-.2-.2-.279-.287a.343.343,0,0,1-.078-.186,6.012,6.012,0,0,1,.1-1.268l.01-.117c0-7.367,7.48-13.482,12.879-15.064l.484-.142V44.092a.337.337,0,0,1,.674,0v6.615a.337.337,0,0,1-.242.323l-.727.213c-5.2,1.523-12.395,7.381-12.395,14.418v.088a.32.32,0,0,1-.005.058l-.015.086a6.385,6.385,0,0,0-.094.985c.048.05.1.1.158.156a2.691,2.691,0,0,1,1,1.985v1.861a2.691,2.691,0,0,1-1,1.984,2.4,2.4,0,0,0-.271.289,5,5,0,0,0,0,3.2,2.4,2.4,0,0,0,.272.289,2.693,2.693,0,0,1,1,1.985v1.861a2.692,2.692,0,0,1-1,1.984,2.391,2.391,0,0,0-.272.29,5,5,0,0,0,0,3.195,2.352,2.352,0,0,0,.272.289,2.7,2.7,0,0,1,1,1.986v1.861a2.689,2.689,0,0,1-1,1.984,2.427,2.427,0,0,0-.271.289,5,5,0,0,0,0,3.2,2.394,2.394,0,0,0,.267.285,2.7,2.7,0,0,1,1,1.99v1.861a2.69,2.69,0,0,1-1,1.984,2.448,2.448,0,0,0-.271.289,5,5,0,0,0,0,3.2,2.394,2.394,0,0,0,.272.289,2.693,2.693,0,0,1,1,1.986V109.3a2.694,2.694,0,0,1-1,1.984c-.074.072-.145.14-.2.2a8.316,8.316,0,0,0,.138,1.837l.02.232A.337.337,0,0,1,28,113.89Z" transform="translate(-27.172 -43.755)" fill="#a7d8ea"/>
            </g>
            <g id="Grupo_9239" data-name="Grupo 9239" transform="translate(2.093 25.216)">
              <g id="Grupo_9237" data-name="Grupo 9237" transform="translate(4.727)" style="mix-blend-mode: multiply;isolation: isolate">
                <path id="Trazado_16653" data-name="Trazado 16653" d="M64.5,86.945H38.158a.335.335,0,0,1,0-.67H64.5a.335.335,0,1,1,0,.67Z" transform="translate(-37.824 -86.275)" fill="#89ceec"/>
              </g>
              <g id="Grupo_9238" data-name="Grupo 9238" transform="translate(0 3.71)" style="mix-blend-mode: screen;isolation: isolate">
                <path id="Trazado_16654" data-name="Trazado 16654" d="M53.562,93.377H29.972a.337.337,0,1,1,0-.674h23.59a.337.337,0,1,1,0,.674Z" transform="translate(-29.635 -92.703)" fill="#add0e3"/>
              </g>
            </g>
            <g id="Grupo_9242" data-name="Grupo 9242" transform="translate(2.093 34.726)">
              <g id="Grupo_9240" data-name="Grupo 9240" transform="translate(4.727)" style="mix-blend-mode: multiply;isolation: isolate">
                <path id="Trazado_16655" data-name="Trazado 16655" d="M64.5,103.42H38.158a.334.334,0,0,1,0-.669H64.5a.334.334,0,1,1,0,.669Z" transform="translate(-37.824 -102.751)" fill="#89ceec"/>
              </g>
              <g id="Grupo_9241" data-name="Grupo 9241" transform="translate(0 3.71)" style="mix-blend-mode: screen;isolation: isolate">
                <path id="Trazado_16656" data-name="Trazado 16656" d="M53.562,109.853H29.972a.337.337,0,0,1,0-.674h23.59a.337.337,0,1,1,0,.674Z" transform="translate(-29.635 -109.179)" fill="#add0e3"/>
              </g>
            </g>
            <g id="Grupo_9245" data-name="Grupo 9245" transform="translate(2.093 44.236)">
              <g id="Grupo_9243" data-name="Grupo 9243" transform="translate(4.727)" style="mix-blend-mode: multiply;isolation: isolate">
                <path id="Trazado_16657" data-name="Trazado 16657" d="M64.5,119.9H38.158a.334.334,0,0,1,0-.669H64.5a.334.334,0,1,1,0,.669Z" transform="translate(-37.824 -119.227)" fill="#89ceec"/>
              </g>
              <g id="Grupo_9244" data-name="Grupo 9244" transform="translate(0 3.71)" style="mix-blend-mode: screen;isolation: isolate">
                <path id="Trazado_16658" data-name="Trazado 16658" d="M53.562,126.329H29.972a.337.337,0,1,1,0-.674h23.59a.337.337,0,1,1,0,.674Z" transform="translate(-29.635 -125.655)" fill="#add0e3"/>
              </g>
            </g>
            <g id="Grupo_9248" data-name="Grupo 9248" transform="translate(2.093 53.745)">
              <g id="Grupo_9246" data-name="Grupo 9246" transform="translate(4.727)" style="mix-blend-mode: multiply;isolation: isolate">
                <path id="Trazado_16659" data-name="Trazado 16659" d="M64.5,136.372H38.158a.334.334,0,0,1,0-.669H64.5a.334.334,0,1,1,0,.669Z" transform="translate(-37.824 -135.703)" fill="#89ceec"/>
              </g>
              <g id="Grupo_9247" data-name="Grupo 9247" transform="translate(0 3.71)" style="mix-blend-mode: screen;isolation: isolate">
                <path id="Trazado_16660" data-name="Trazado 16660" d="M53.562,142.805H29.972a.337.337,0,0,1,0-.674h23.59a.337.337,0,1,1,0,.674Z" transform="translate(-29.635 -142.131)" fill="#add0e3"/>
              </g>
            </g>
            <g id="Grupo_9251" data-name="Grupo 9251" transform="translate(2.093 63.255)">
              <g id="Grupo_9249" data-name="Grupo 9249" transform="translate(4.727)" style="mix-blend-mode: multiply;isolation: isolate">
                <path id="Trazado_16661" data-name="Trazado 16661" d="M64.5,152.848H38.158a.334.334,0,0,1,0-.669H64.5a.334.334,0,1,1,0,.669Z" transform="translate(-37.824 -152.179)" fill="#89ceec"/>
              </g>
              <g id="Grupo_9250" data-name="Grupo 9250" transform="translate(0 3.71)" style="mix-blend-mode: screen;isolation: isolate">
                <path id="Trazado_16662" data-name="Trazado 16662" d="M53.562,159.281H29.972a.337.337,0,0,1,0-.674h23.59a.337.337,0,1,1,0,.674Z" transform="translate(-29.635 -158.607)" fill="#add0e3"/>
              </g>
            </g>
          </g>
          <g id="Grupo_9253" data-name="Grupo 9253" transform="translate(3.403 21.236)" style="mix-blend-mode: screen;isolation: isolate">
            <path id="Trazado_16663" data-name="Trazado 16663" d="M43.312,59.678c-4.462,1.308-10.917,6.492-10.917,12.445v.3l-.032.181a4.4,4.4,0,0,1,1.075,2.881v1.861a4.594,4.594,0,0,1-1.5,3.341,4.588,4.588,0,0,0,0,1.06,4.594,4.594,0,0,1,1.5,3.341v1.861a4.594,4.594,0,0,1-1.5,3.341,4.588,4.588,0,0,0,0,1.06,4.6,4.6,0,0,1,1.5,3.341V96.55a4.594,4.594,0,0,1-1.5,3.341,4.588,4.588,0,0,0,0,1.06,4.593,4.593,0,0,1,1.5,3.341v1.86a4.594,4.594,0,0,1-1.5,3.341,4.593,4.593,0,0,0,0,1.061,4.593,4.593,0,0,1,1.5,3.341v1.861a4.434,4.434,0,0,1-1.181,3c.021.222.053.462.087.665l.051.292v.3a1.315,1.315,0,0,0,1.314,1.314h4.4c-.493,0-.895-.589-.895-1.314v-.3l-.035-.292c-.024-.2-.045-.443-.059-.665a5.668,5.668,0,0,0,.8-3V113.9a5.644,5.644,0,0,0-1.022-3.341,6.781,6.781,0,0,1,0-1.061,5.646,5.646,0,0,0,1.022-3.341v-1.86a5.644,5.644,0,0,0-1.022-3.341,6.773,6.773,0,0,1,0-1.06,5.646,5.646,0,0,0,1.022-3.341V94.689A5.647,5.647,0,0,0,36.9,91.348a6.773,6.773,0,0,1,0-1.06,5.646,5.646,0,0,0,1.022-3.341V85.085A5.646,5.646,0,0,0,36.9,81.744a6.773,6.773,0,0,1,0-1.06,5.646,5.646,0,0,0,1.022-3.341V75.481a5.706,5.706,0,0,0-.731-2.881l.021-.181v-.3c0-5.954,4.395-11.137,7.432-12.445l1.485-.639Z" transform="translate(-31.906 -59.039)" fill="#a7d8ea"/>
          </g>
          <g id="Grupo_9256" data-name="Grupo 9256" transform="translate(9.307)">
            <g id="Grupo_9254" data-name="Grupo 9254" transform="translate(2.546 7.842)">
              <rect id="Rectángulo_1958" data-name="Rectángulo 1958" width="14.263" height="5.735" rx="1.306" fill="#297ac1"/>
            </g>
            <g id="Grupo_9255" data-name="Grupo 9255">
              <path id="Trazado_16664" data-name="Trazado 16664" d="M58.822,22.246H44.83a2.7,2.7,0,0,0-2.7,2.7V37.09a2.692,2.692,0,0,0,2.546,2.681v.255a.754.754,0,0,0,.754.754H58.189a.754.754,0,0,0,.754-.754v-.252a2.693,2.693,0,0,0,2.574-2.684V24.942A2.7,2.7,0,0,0,58.822,22.246ZM60.169,37.09a1.345,1.345,0,0,1-1.227,1.336v-.4a.754.754,0,0,0-.754-.754H45.434a.754.754,0,0,0-.754.754v.4a1.344,1.344,0,0,1-1.2-1.333V24.942a1.349,1.349,0,0,1,1.348-1.348H58.822a1.349,1.349,0,0,1,1.348,1.348Z" transform="translate(-42.134 -22.246)" fill="#297ac1"/>
            </g>
          </g>
          <g id="Grupo_9259" data-name="Grupo 9259" transform="translate(18.839)">
            <g id="Grupo_9257" data-name="Grupo 9257" transform="translate(0 7.842)">
              <path id="Trazado_16665" data-name="Trazado 16665" d="M65.171,35.833H58.648v5.736h6.523a.754.754,0,0,0,.754-.754V36.587A.754.754,0,0,0,65.171,35.833Z" transform="translate(-58.648 -35.833)" fill="#1775b9"/>
            </g>
            <g id="Grupo_9258" data-name="Grupo 9258">
              <path id="Trazado_16666" data-name="Trazado 16666" d="M65.8,22.246H58.648v1.348H65.8a1.349,1.349,0,0,1,1.348,1.348V37.09a1.345,1.345,0,0,1-1.227,1.336v-.4a.754.754,0,0,0-.754-.754H58.648V40.78h6.523a.754.754,0,0,0,.754-.754v-.252A2.693,2.693,0,0,0,68.5,37.09V24.942A2.7,2.7,0,0,0,65.8,22.246Z" transform="translate(-58.648 -22.246)" fill="#1775b9"/>
            </g>
          </g>
        </g>
        <g id="Grupo_9261" data-name="Grupo 9261" transform="translate(19.498 21.236)" style="mix-blend-mode: multiply;isolation: isolate">
          <path id="Trazado_16667" data-name="Trazado 16667" d="M74.827,91.347a4.52,4.52,0,0,0,0-1.06,4.592,4.592,0,0,1-1.5-3.341V85.085a4.592,4.592,0,0,1,1.5-3.341,4.52,4.52,0,0,0,0-1.06,4.6,4.6,0,0,1-1.5-3.342V75.481A4.4,4.4,0,0,1,74.4,72.6l-.032-.181v-.3c0-5.954-6.455-11.137-10.918-12.445l-2.817-.639,1.485.639c3.038,1.308,7.432,6.492,7.432,12.445v.3l.021.181a5.7,5.7,0,0,0-.731,2.881v.4H60.709a.919.919,0,0,0,0,1.838h8.15a5.629,5.629,0,0,0,1,2.968,6.765,6.765,0,0,1,0,1.06,5.642,5.642,0,0,0-1.022,3.341v.323H60.709a.919.919,0,1,0,0,1.838h8.146a5.635,5.635,0,0,0,1.008,3.042,6.765,6.765,0,0,1,0,1.06,5.646,5.646,0,0,0-1.022,3.342v.248H60.709a.919.919,0,1,0,0,1.838h8.142a5.642,5.642,0,0,0,1.012,3.116,6.765,6.765,0,0,1,0,1.06,5.646,5.646,0,0,0-1.022,3.342v.174H60.709a.919.919,0,1,0,0,1.838h8.14a5.644,5.644,0,0,0,1.015,3.191,6.765,6.765,0,0,1,0,1.06,5.644,5.644,0,0,0-1.022,3.341v.1H60.709a.919.919,0,0,0,0,1.838h8.135a5.668,5.668,0,0,0,.8,2.928c-.016.234-.038.481-.059.665l-.035.292v.3c0,.724-.4,1.314-.895,1.314h4.4a1.316,1.316,0,0,0,1.314-1.314v-.3l.051-.292c.032-.184.065-.431.087-.665a4.437,4.437,0,0,1-1.18-3V113.9a4.593,4.593,0,0,1,1.5-3.341,4.52,4.52,0,0,0,0-1.06,4.592,4.592,0,0,1-1.5-3.342v-1.86a4.6,4.6,0,0,1,1.5-3.342,4.52,4.52,0,0,0,0-1.06,4.592,4.592,0,0,1-1.5-3.341V94.689A4.6,4.6,0,0,1,74.827,91.347Z" transform="translate(-59.79 -59.039)" fill="#89ceec"/>
        </g>
      </g>
      <g id="Grupo_9279" data-name="Grupo 9279" transform="translate(-329.343 176.121)">
        <g id="Grupo_9275" data-name="Grupo 9275" transform="translate(0 0)">
          <g id="Grupo_9272" data-name="Grupo 9272" transform="translate(0 1.924)">
            <g id="Grupo_9263" data-name="Grupo 9263">
              <path id="Trazado_16668" data-name="Trazado 16668" d="M423.56,239.117c0-6.277-4.017-11.664-6.759-13.964v-3.469h-5.946v3.469c-2.742,2.3-6.759,7.686-6.759,13.964v2.177c0,.949,1.372,1.384,1.372,2.409s-1.372,1.608-1.372,2.408v34.53a4.332,4.332,0,0,0,4.332,4.332h10.8a4.332,4.332,0,0,0,4.332-4.332v-34.53c0-.875-1.372-1.384-1.372-2.408s1.372-1.347,1.372-2.409Z" transform="translate(-404.096 -221.684)" fill="#a7d8ea"/>
            </g>
            <g id="Grupo_9264" data-name="Grupo 9264" transform="translate(9.94)">
              <path id="Trazado_16669" data-name="Trazado 16669" d="M430.842,239.117c0-6.277-4.017-11.664-6.759-13.964v-3.469h-2.765l.057,63.288h5.135a4.332,4.332,0,0,0,4.332-4.332v-34.53c0-.875-1.372-1.384-1.372-2.408s1.372-1.347,1.372-2.409Z" transform="translate(-421.318 -221.684)" fill="#89ceec"/>
            </g>
            <g id="Grupo_9265" data-name="Grupo 9265" transform="translate(0 25.982)">
              <rect id="Rectángulo_1959" data-name="Rectángulo 1959" width="19.464" height="12.892" fill="#5799d3"/>
            </g>
            <g id="Grupo_9266" data-name="Grupo 9266" transform="translate(0.674 0.674)" style="mix-blend-mode: screen;isolation: isolate">
              <path id="Trazado_16670" data-name="Trazado 16670" d="M405.6,281.471a.337.337,0,0,1-.337-.337V246.662a.345.345,0,0,1,.044-.169,3.276,3.276,0,0,1,.39-.472,2.714,2.714,0,0,0,.938-1.826,2.459,2.459,0,0,0-.895-1.721,1.721,1.721,0,0,1-.467-.61.339.339,0,0,1-.011-.087v-2.168a18.76,18.76,0,0,1,6.3-13.378l.237-.2v-2.845a.337.337,0,0,1,.674,0v3a.337.337,0,0,1-.121.258l-.358.3c-2.1,1.76-6.063,6.712-6.063,12.862V241.7c.033.033.133.144.289.3a3.1,3.1,0,0,1,1.084,2.189,3.333,3.333,0,0,1-1.106,2.271c-.069.075-.2.212-.266.3v34.367A.337.337,0,0,1,405.6,281.471Z" transform="translate(-405.263 -222.852)" fill="#a7d8ea"/>
            </g>
            <g id="Grupo_9267" data-name="Grupo 9267" transform="translate(3.998 0.676)" style="mix-blend-mode: multiply;isolation: isolate">
              <path id="Trazado_16671" data-name="Trazado 16671" d="M422.157,284.791h-10.8a.334.334,0,1,1,0-.668h10.8a2.99,2.99,0,0,0,2.986-2.987l.006-34.4c-.059-.072-.217-.24-.282-.309a3.21,3.21,0,0,1-1.1-2.229,2.963,2.963,0,0,1,1.074-2.134,3.642,3.642,0,0,0,.3-.322v-2.129c0-6.15-3.968-11.1-6.065-12.863l-.357-.3a.333.333,0,0,1-.119-.256v-3a.334.334,0,1,1,.668,0v2.846l.238.2a18.758,18.758,0,0,1,6.3,13.376v2.177c0,.242-.179.432-.5.748a2.327,2.327,0,0,0-.876,1.66,2.574,2.574,0,0,0,.911,1.768,2.014,2.014,0,0,1,.447.573.334.334,0,0,1,.019.111l-.006,34.486A3.659,3.659,0,0,1,422.157,284.791Z" transform="translate(-411.022 -222.856)" fill="#89ceec"/>
            </g>
            <g id="Grupo_9268" data-name="Grupo 9268" transform="translate(9.997 25.982)">
              <rect id="Rectángulo_1960" data-name="Rectángulo 1960" width="9.466" height="12.892" fill="#4191cb"/>
            </g>
            <g id="Grupo_9269" data-name="Grupo 9269" transform="translate(4.637 20.958)" style="mix-blend-mode: multiply;isolation: isolate">
              <path id="Trazado_16672" data-name="Trazado 16672" d="M423.711,258.663H412.464a.334.334,0,0,1,0-.668h11.247a.334.334,0,0,1,0,.668Z" transform="translate(-412.13 -257.995)" fill="#89ceec"/>
            </g>
            <g id="Grupo_9270" data-name="Grupo 9270" transform="translate(1.825 53.053)" style="mix-blend-mode: multiply;isolation: isolate">
              <path id="Trazado_16673" data-name="Trazado 16673" d="M423.113,314.269H407.592a.334.334,0,1,1,0-.668h15.521a.334.334,0,1,1,0,.668Z" transform="translate(-407.258 -313.601)" fill="#89ceec"/>
            </g>
            <g id="Grupo_9271" data-name="Grupo 9271" transform="translate(2.42 23.69)" style="mix-blend-mode: screen;isolation: isolate">
              <path id="Trazado_16674" data-name="Trazado 16674" d="M420.932,263.4H408.625a.337.337,0,0,1,0-.675h12.307a.337.337,0,0,1,0,.675Z" transform="translate(-408.288 -262.728)" fill="#add0e3"/>
            </g>
          </g>
          <g id="Grupo_9273" data-name="Grupo 9273" transform="translate(6.07 0)">
            <rect id="Rectángulo_1961" data-name="Rectángulo 1961" width="7.38" height="5.017" rx="1.168" fill="#297ac1"/>
          </g>
          <g id="Grupo_9274" data-name="Grupo 9274" transform="translate(9.812)">
            <path id="Trazado_16675" data-name="Trazado 16675" d="M424.059,218.351H421.1v5.017h2.964a.674.674,0,0,0,.674-.674v-3.669A.674.674,0,0,0,424.059,218.351Z" transform="translate(-421.095 -218.351)" fill="#1775b9"/>
          </g>
        </g>
        <g id="Grupo_9278" data-name="Grupo 9278" transform="translate(2.383 6.933)">
          <g id="Grupo_9276" data-name="Grupo 9276" style="mix-blend-mode: screen;isolation: isolate">
            <path id="Trazado_16676" data-name="Trazado 16676" d="M411.229,285.005v-34.84a6.122,6.122,0,0,0,.811-3.038,5.721,5.721,0,0,0-.811-2.979v-1.723a24.44,24.44,0,0,1,3.241-12.062l-.339.285c-2.043,1.714-5.907,6.457-5.907,12.139v1.68a4.087,4.087,0,0,1,1.372,2.906,4.327,4.327,0,0,1-1.372,2.963v33.976a1.952,1.952,0,0,0,1.95,1.949h1.318A2.976,2.976,0,0,1,411.229,285.005Z" transform="translate(-408.224 -230.363)" fill="#a7d8ea"/>
          </g>
          <g id="Grupo_9277" data-name="Grupo 9277" transform="translate(8.452 0.001)" style="mix-blend-mode: multiply;isolation: isolate">
            <path id="Trazado_16677" data-name="Trazado 16677" d="M429.114,242.787c0-5.682-3.864-10.425-5.908-12.139l-.339-.284a24.435,24.435,0,0,1,3.242,12.061v1.766a5.505,5.505,0,0,0-.811,2.936,5.919,5.919,0,0,0,.811,3.009v34.87a2.976,2.976,0,0,1-.263,1.254h1.318a1.952,1.952,0,0,0,1.95-1.949v-34a4.207,4.207,0,0,1-1.372-2.934,3.969,3.969,0,0,1,1.372-2.863Z" transform="translate(-422.868 -230.364)" fill="#89ceec"/>
          </g>
        </g>
      </g>
    </g>
  </g>
</svg>
