<svg xmlns="http://www.w3.org/2000/svg" width="794" height="620" viewBox="0 0 794 620">
  <g id="Grupo_9338" data-name="Grupo 9338" transform="translate(-563 -3281)">
    <rect id="Rectángulo_1886" data-name="Rectángulo 1886" width="264" height="61" rx="6" transform="translate(710 3281)" fill="#e5e5e5"/>
    <rect id="Rectángulo_1885" data-name="Rectángulo 1885" width="189" height="61" rx="6" transform="translate(563 3281)" fill="#fdac29"/>
    <path id="Trazado_17186" data-name="Trazado 17186" d="M-53.784-16.8v3.12h3.36V0h3.888V-16.8ZM-36.408.288c4.152,0,7.2-3.144,7.2-8.688s-3.048-8.688-7.2-8.688c-4.128,0-7.2,3.144-7.2,8.688S-40.536.288-36.408.288Zm0-3.288c-1.92,0-3.264-1.584-3.264-5.4s1.344-5.4,3.264-5.4c1.944,0,3.288,1.584,3.288,5.4S-34.464-3-36.408-3Zm28.44,3h4.536L-10.8-9.312-3.84-16.8H-8.16L-15.6-8.952V-16.8h-3.864V0H-15.6V-4.248L-13.344-6.6ZM-1.7,0H2.184V-16.8H-1.7ZM6.168,0H18.48V-3.168H10.056V-16.8H6.168ZM28.512.288C33.792.288,37.7-3.384,37.7-8.4s-3.912-8.688-9.192-8.688c-5.3,0-9.192,3.7-9.192,8.688S23.208.288,28.512.288Zm0-3.312A5.125,5.125,0,0,1,23.256-8.4a5.125,5.125,0,0,1,5.256-5.376A5.125,5.125,0,0,1,33.768-8.4,5.125,5.125,0,0,1,28.512-3.024ZM46.152.288c4.8,0,7.128-2.4,7.128-5.208,0-6.168-9.768-4.032-9.768-7.128,0-1.056.888-1.92,3.192-1.92a9.488,9.488,0,0,1,4.656,1.32l1.2-2.952a11.269,11.269,0,0,0-5.832-1.488c-4.776,0-7.08,2.376-7.08,5.232,0,6.24,9.768,4.08,9.768,7.224,0,1.032-.936,1.8-3.24,1.8a9.882,9.882,0,0,1-5.544-1.752l-1.32,2.928A11.974,11.974,0,0,0,46.152.288Z" transform="translate(650 3321)" fill="#fff"/>
    <path id="Trazado_17185" data-name="Trazado 17185" d="M-40.764,0h3.888V-13.632H-31.5V-16.8H-46.14v3.168h5.376Zm11.352,0h3.888V-16.8h-3.888Zm11.736-3.12V-7.008h7.8v-3.024h-7.8V-13.68h8.832V-16.8h-12.7V0H-8.532V-3.12ZM9.444,0,5.676-5.4a5.462,5.462,0,0,0,3.456-5.3c0-3.768-2.808-6.1-7.3-6.1H-5.436V0h3.888V-4.68H2.028L5.268,0ZM5.2-10.7C5.2-8.88,4-7.776,1.62-7.776H-1.548v-5.856H1.62C4-13.632,5.2-12.552,5.2-10.7ZM27.084,0,23.316-5.4a5.462,5.462,0,0,0,3.456-5.3c0-3.768-2.808-6.1-7.3-6.1H12.2V0h3.888V-4.68h3.576L22.908,0ZM22.836-10.7c0,1.824-1.2,2.928-3.576,2.928H16.092v-5.856H19.26C21.636-13.632,22.836-12.552,22.836-10.7ZM42.4,0h4.08L38.964-16.8h-3.84L27.636,0H31.62l1.488-3.6h7.8Zm-8.04-6.552,2.664-6.432,2.664,6.432Z" transform="translate(853 3321)" fill="#2b4e6a"/>
    <rect id="Rectángulo_1887" data-name="Rectángulo 1887" width="583" height="61" rx="6" transform="translate(710 3348)" fill="#e5e5e5"/>
    <rect id="Rectángulo_1888" data-name="Rectángulo 1888" width="189" height="61" rx="6" transform="translate(563 3348)" fill="#fdac29"/>
    <path id="Trazado_17187" data-name="Trazado 17187" d="M-53.784-16.8v3.12h3.36V0h3.888V-16.8ZM-36.408.288c4.152,0,7.2-3.144,7.2-8.688s-3.048-8.688-7.2-8.688c-4.128,0-7.2,3.144-7.2,8.688S-40.536.288-36.408.288Zm0-3.288c-1.92,0-3.264-1.584-3.264-5.4s1.344-5.4,3.264-5.4c1.944,0,3.288,1.584,3.288,5.4S-34.464-3-36.408-3Zm28.44,3h4.536L-10.8-9.312-3.84-16.8H-8.16L-15.6-8.952V-16.8h-3.864V0H-15.6V-4.248L-13.344-6.6ZM-1.7,0H2.184V-16.8H-1.7ZM6.168,0H18.48V-3.168H10.056V-16.8H6.168ZM28.512.288C33.792.288,37.7-3.384,37.7-8.4s-3.912-8.688-9.192-8.688c-5.3,0-9.192,3.7-9.192,8.688S23.208.288,28.512.288Zm0-3.312A5.125,5.125,0,0,1,23.256-8.4a5.125,5.125,0,0,1,5.256-5.376A5.125,5.125,0,0,1,33.768-8.4,5.125,5.125,0,0,1,28.512-3.024ZM46.152.288c4.8,0,7.128-2.4,7.128-5.208,0-6.168-9.768-4.032-9.768-7.128,0-1.056.888-1.92,3.192-1.92a9.488,9.488,0,0,1,4.656,1.32l1.2-2.952a11.269,11.269,0,0,0-5.832-1.488c-4.776,0-7.08,2.376-7.08,5.232,0,6.24,9.768,4.08,9.768,7.224,0,1.032-.936,1.8-3.24,1.8a9.882,9.882,0,0,1-5.544-1.752l-1.32,2.928A11.974,11.974,0,0,0,46.152.288Z" transform="translate(650 3388)" fill="#fff"/>
    <path id="Trazado_17188" data-name="Trazado 17188" d="M-211.284.288a8.632,8.632,0,0,0,6.936-3l-2.5-2.3a5.354,5.354,0,0,1-4.224,1.992A5.154,5.154,0,0,1-216.444-8.4a5.154,5.154,0,0,1,5.376-5.376,5.405,5.405,0,0,1,4.224,1.968l2.5-2.3a8.673,8.673,0,0,0-6.912-2.976c-5.232,0-9.12,3.624-9.12,8.688S-216.492.288-211.284.288ZM-189.516,0h4.08l-7.512-16.8h-3.84L-204.276,0h3.984l1.488-3.6h7.8Zm-8.04-6.552,2.664-6.432,2.664,6.432Zm19.392,6.84c4.8,0,7.128-2.4,7.128-5.208,0-6.168-9.768-4.032-9.768-7.128,0-1.056.888-1.92,3.192-1.92a9.488,9.488,0,0,1,4.656,1.32l1.2-2.952a11.269,11.269,0,0,0-5.832-1.488c-4.776,0-7.08,2.376-7.08,5.232,0,6.24,9.768,4.08,9.768,7.224,0,1.032-.936,1.8-3.24,1.8a9.882,9.882,0,0,1-5.544-1.752L-185-1.656A11.974,11.974,0,0,0-178.164.288Zm17.832,0a8.632,8.632,0,0,0,6.936-3l-2.5-2.3a5.354,5.354,0,0,1-4.224,1.992A5.154,5.154,0,0,1-165.492-8.4a5.154,5.154,0,0,1,5.376-5.376,5.405,5.405,0,0,1,4.224,1.968l2.5-2.3a8.673,8.673,0,0,0-6.912-2.976c-5.232,0-9.12,3.624-9.12,8.688S-165.54.288-160.332.288ZM-138.564,0h4.08L-142-16.8h-3.84L-153.324,0h3.984l1.488-3.6h7.8Zm-8.04-6.552,2.664-6.432,2.664,6.432ZM-117.852,0l-3.768-5.4a5.462,5.462,0,0,0,3.456-5.3c0-3.768-2.808-6.1-7.3-6.1h-7.272V0h3.888V-4.68h3.576l3.24,4.68ZM-122.1-10.7c0,1.824-1.2,2.928-3.576,2.928h-3.168v-5.856h3.168C-123.3-13.632-122.1-12.552-122.1-10.7ZM-115.092,0h3.888V-16.8h-3.888Zm7.872,0h12.312V-3.168h-8.424V-16.8h-3.888Zm14.5,0h12.312V-3.168h-8.424V-16.8h-3.888Zm27.192,0h4.08l-7.512-16.8H-72.8L-80.292,0h3.984l1.488-3.6h7.8Zm-8.04-6.552,2.664-6.432,2.664,6.432ZM-52.908,0h7.632c5.5,0,9.264-3.312,9.264-8.4s-3.768-8.4-9.264-8.4h-7.632Zm3.888-3.192V-13.608h3.552c3.336,0,5.52,1.992,5.52,5.208s-2.184,5.208-5.52,5.208Zm19.8.072V-7.008h7.8v-3.024h-7.8V-13.68h8.832V-16.8h-12.7V0h13.008V-3.12ZM2.364,0h4.08L-1.068-16.8h-3.84L-12.4,0h3.984l1.488-3.6h7.8Zm-8.04-6.552,2.664-6.432L-.348-6.552ZM23.076,0,19.308-5.4a5.462,5.462,0,0,0,3.456-5.3c0-3.768-2.808-6.1-7.3-6.1H8.2V0h3.888V-4.68H15.66L18.9,0ZM18.828-10.7c0,1.824-1.2,2.928-3.576,2.928H12.084v-5.856h3.168C17.628-13.632,18.828-12.552,18.828-10.7ZM40.716,0,36.948-5.4A5.462,5.462,0,0,0,40.4-10.7c0-3.768-2.808-6.1-7.3-6.1H25.836V0h3.888V-4.68H33.3L36.54,0ZM36.468-10.7c0,1.824-1.2,2.928-3.576,2.928H29.724v-5.856h3.168C35.268-13.632,36.468-12.552,36.468-10.7ZM51.612.288C56.892.288,60.8-3.384,60.8-8.4s-3.912-8.688-9.192-8.688c-5.3,0-9.192,3.7-9.192,8.688S46.308.288,51.612.288Zm0-3.312A5.125,5.125,0,0,1,46.356-8.4a5.125,5.125,0,0,1,5.256-5.376A5.125,5.125,0,0,1,56.868-8.4,5.125,5.125,0,0,1,51.612-3.024ZM67.62-3.168,76.812-14.28V-16.8H62.676v3.168H71.7L62.484-2.52V0H77.172V-3.168ZM94.6.288c5.28,0,9.192-3.672,9.192-8.688s-3.912-8.688-9.192-8.688c-5.3,0-9.192,3.7-9.192,8.688S89.292.288,94.6.288Zm0-3.312A5.125,5.125,0,0,1,89.34-8.4,5.125,5.125,0,0,1,94.6-13.776,5.125,5.125,0,0,1,99.852-8.4,5.125,5.125,0,0,1,94.6-3.024ZM113.508,0h7.632c5.5,0,9.264-3.312,9.264-8.4s-3.768-8.4-9.264-8.4h-7.632ZM117.4-3.192V-13.608h3.552c3.336,0,5.52,1.992,5.52,5.208s-2.184,5.208-5.52,5.208Zm19.8.072V-7.008H145v-3.024h-7.8V-13.68h8.832V-16.8h-12.7V0H146.34V-3.12ZM164.268.288a8.632,8.632,0,0,0,6.936-3l-2.5-2.3a5.354,5.354,0,0,1-4.224,1.992A5.154,5.154,0,0,1,159.108-8.4a5.154,5.154,0,0,1,5.376-5.376,5.405,5.405,0,0,1,4.224,1.968l2.5-2.3a8.673,8.673,0,0,0-6.912-2.976c-5.232,0-9.12,3.624-9.12,8.688S159.06.288,164.268.288ZM186.036,0h4.08L182.6-16.8h-3.84L171.276,0h3.984l1.488-3.6h7.8ZM178-6.552l2.664-6.432,2.664,6.432Zm26.568-7.128V-16.8h-12.7V0h3.888V-6.12h7.776V-9.24h-7.776v-4.44Zm14.088-7.944H214.62l-3.24,3.456h2.928Zm-7.584,18.5V-7.008h7.8v-3.024h-7.8V-13.68H219.9V-16.8H207.2V0h13.008V-3.12Z" transform="translate(1028 3388)" fill="#2b4e6a"/>
    <rect id="Rectángulo_1889" data-name="Rectángulo 1889" width="303" height="61" rx="6" transform="translate(710 3415)" fill="#e5e5e5"/>
    <rect id="Rectángulo_1890" data-name="Rectángulo 1890" width="189" height="61" rx="6" transform="translate(563 3415)" fill="#fdac29"/>
    <path id="Trazado_17190" data-name="Trazado 17190" d="M-41.544-10.488h-1.368l.264-3.192h7.008V-16.8H-45.888l-.864,9.456h4.3c3.048,0,3.912.864,3.912,2.184,0,1.368-1.2,2.184-3.144,2.184a8.085,8.085,0,0,1-4.776-1.512L-48-1.512a11.609,11.609,0,0,0,6.408,1.8c4.8,0,6.984-2.592,6.984-5.568S-36.576-10.488-41.544-10.488ZM-13.68,0h4.536l-7.368-9.312,6.96-7.488h-4.32l-7.44,7.848V-16.8h-3.864V0h3.864V-4.248L-19.056-6.6Zm6.264,0h3.888V-16.8H-7.416ZM.456,0H12.768V-3.168H4.344V-16.8H.456ZM22.8.288c5.28,0,9.192-3.672,9.192-8.688S28.08-17.088,22.8-17.088c-5.3,0-9.192,3.7-9.192,8.688S17.5.288,22.8.288Zm0-3.312A5.125,5.125,0,0,1,17.544-8.4,5.125,5.125,0,0,1,22.8-13.776,5.125,5.125,0,0,1,28.056-8.4,5.125,5.125,0,0,1,22.8-3.024ZM40.44.288c4.8,0,7.128-2.4,7.128-5.208,0-6.168-9.768-4.032-9.768-7.128,0-1.056.888-1.92,3.192-1.92a9.488,9.488,0,0,1,4.656,1.32l1.2-2.952a11.269,11.269,0,0,0-5.832-1.488c-4.776,0-7.08,2.376-7.08,5.232,0,6.24,9.768,4.08,9.768,7.224,0,1.032-.936,1.8-3.24,1.8A9.882,9.882,0,0,1,34.92-4.584L33.6-1.656A11.974,11.974,0,0,0,40.44.288Z" transform="translate(650 3455)" fill="#fff"/>
    <path id="Trazado_17189" data-name="Trazado 17189" d="M-59.664-3.744a6.172,6.172,0,0,1-3.024.72A5.185,5.185,0,0,1-68.136-8.4a5.172,5.172,0,0,1,5.5-5.376,5.685,5.685,0,0,1,4.344,1.9l2.5-2.3a8.956,8.956,0,0,0-7.032-2.9c-5.352,0-9.24,3.624-9.24,8.688S-68.184.288-62.9.288a11.593,11.593,0,0,0,6.792-2.136V-8.664h-3.552ZM-39.96,0h4.08l-7.512-16.8h-3.84L-54.72,0h3.984l1.488-3.6h7.8ZM-48-6.552l2.664-6.432,2.664,6.432ZM-34.128,0h12.312V-3.168H-30.24V-16.8h-3.888Zm14.5,0H-7.32V-3.168h-8.424V-16.8h-3.888Zm14.5,0h3.888V-16.8H-5.136ZM14.3-16.8V-6.6L5.952-16.8H2.736V0h3.84V-10.2L14.952,0h3.192V-16.8ZM34.68,0h4.08L31.248-16.8h-3.84L19.92,0H23.9l1.488-3.6h7.8ZM26.64-6.552,29.3-12.984l2.664,6.432ZM44.568-3.168,53.76-14.28V-16.8H39.624v3.168h9.024L39.432-2.52V0H54.12V-3.168ZM69.168,0h4.08L65.736-16.8H61.9L54.408,0h3.984L59.88-3.6h7.8Zm-8.04-6.552,2.664-6.432,2.664,6.432Z" transform="translate(880 3455)" fill="#2b4e6a"/>
    <rect id="Rectángulo_1891" data-name="Rectángulo 1891" width="528" height="61" rx="6" transform="translate(710 3482)" fill="#e5e5e5"/>
    <rect id="Rectángulo_1892" data-name="Rectángulo 1892" width="189" height="61" rx="6" transform="translate(563 3482)" fill="#fdac29"/>
    <path id="Trazado_17191" data-name="Trazado 17191" d="M-41.544-10.488h-1.368l.264-3.192h7.008V-16.8H-45.888l-.864,9.456h4.3c3.048,0,3.912.864,3.912,2.184,0,1.368-1.2,2.184-3.144,2.184a8.085,8.085,0,0,1-4.776-1.512L-48-1.512a11.609,11.609,0,0,0,6.408,1.8c4.8,0,6.984-2.592,6.984-5.568S-36.576-10.488-41.544-10.488ZM-13.68,0h4.536l-7.368-9.312,6.96-7.488h-4.32l-7.44,7.848V-16.8h-3.864V0h3.864V-4.248L-19.056-6.6Zm6.264,0h3.888V-16.8H-7.416ZM.456,0H12.768V-3.168H4.344V-16.8H.456ZM22.8.288c5.28,0,9.192-3.672,9.192-8.688S28.08-17.088,22.8-17.088c-5.3,0-9.192,3.7-9.192,8.688S17.5.288,22.8.288Zm0-3.312A5.125,5.125,0,0,1,17.544-8.4,5.125,5.125,0,0,1,22.8-13.776,5.125,5.125,0,0,1,28.056-8.4,5.125,5.125,0,0,1,22.8-3.024ZM40.44.288c4.8,0,7.128-2.4,7.128-5.208,0-6.168-9.768-4.032-9.768-7.128,0-1.056.888-1.92,3.192-1.92a9.488,9.488,0,0,1,4.656,1.32l1.2-2.952a11.269,11.269,0,0,0-5.832-1.488c-4.776,0-7.08,2.376-7.08,5.232,0,6.24,9.768,4.08,9.768,7.224,0,1.032-.936,1.8-3.24,1.8A9.882,9.882,0,0,1,34.92-4.584L33.6-1.656A11.974,11.974,0,0,0,40.44.288Z" transform="translate(650 3522)" fill="#fff"/>
    <path id="Trazado_17192" data-name="Trazado 17192" d="M-189.312.288a8.632,8.632,0,0,0,6.936-3l-2.5-2.3A5.354,5.354,0,0,1-189.1-3.024,5.154,5.154,0,0,1-194.472-8.4a5.154,5.154,0,0,1,5.376-5.376,5.405,5.405,0,0,1,4.224,1.968l2.5-2.3a8.673,8.673,0,0,0-6.912-2.976c-5.232,0-9.12,3.624-9.12,8.688S-194.52.288-189.312.288ZM-167.544,0h4.08l-7.512-16.8h-3.84L-182.3,0h3.984l1.488-3.6h7.8Zm-8.04-6.552,2.664-6.432,2.664,6.432ZM-146.832,0-150.6-5.4a5.462,5.462,0,0,0,3.456-5.3c0-3.768-2.808-6.1-7.3-6.1h-7.272V0h3.888V-4.68h3.576l3.24,4.68Zm-4.248-10.7c0,1.824-1.2,2.928-3.576,2.928h-3.168v-5.856h3.168C-152.28-13.632-151.08-12.552-151.08-10.7Zm19.344,1.968a4.038,4.038,0,0,0,2.232-3.7c0-2.616-2.16-4.368-6.36-4.368h-8.208V0h8.688c4.416,0,6.72-1.68,6.72-4.584A4.149,4.149,0,0,0-131.736-8.736Zm-4.608-5.136c1.9,0,2.928.648,2.928,1.968s-1.032,1.992-2.928,1.992h-3.864v-3.96Zm.672,10.944h-4.536V-7.08h4.536c2.016,0,3.1.672,3.1,2.088C-132.576-3.552-133.656-2.928-135.672-2.928Zm15.912-15.24h2.928l4.344-3.456h-4.032ZM-117.576.288c5.28,0,9.192-3.672,9.192-8.688s-3.912-8.688-9.192-8.688c-5.3,0-9.192,3.7-9.192,8.688S-122.88.288-117.576.288Zm0-3.312A5.125,5.125,0,0,1-122.832-8.4a5.125,5.125,0,0,1,5.256-5.376A5.125,5.125,0,0,1-112.32-8.4,5.125,5.125,0,0,1-117.576-3.024ZM-93.888-16.8V-6.6l-8.352-10.2h-3.216V0h3.84V-10.2L-93.24,0h3.192V-16.8ZM-76.512,4.656h3.576a21.926,21.926,0,0,1-2.9-11.232,21.926,21.926,0,0,1,2.9-11.232h-3.576a20.3,20.3,0,0,0-3,11.232A20.413,20.413,0,0,0-76.512,4.656ZM-56.64-16.8h-7.272V0h3.888V-4.632h3.384c4.488,0,7.3-2.328,7.3-6.072C-49.344-14.472-52.152-16.8-56.64-16.8Zm-.216,9h-3.168v-5.832h3.168c2.376,0,3.576,1.08,3.576,2.928C-53.28-8.88-54.48-7.8-56.856-7.8Zm15.1-5.3a9.926,9.926,0,0,0-5.568,1.56l1.344,2.616a6.208,6.208,0,0,1,3.72-1.2c2.016,0,2.976.936,2.976,2.544h-2.976C-46.2-7.584-47.808-6-47.808-3.72c0,2.232,1.8,3.912,4.824,3.912,1.9,0,3.24-.624,3.936-1.8V0h3.5V-7.368C-35.544-11.28-37.824-13.1-41.76-13.1Zm-.288,10.776c-1.32,0-2.112-.624-2.112-1.56,0-.864.552-1.512,2.3-1.512h2.568v1.32A2.759,2.759,0,0,1-42.048-2.328Zm13.464-8.88v-1.7H-32.16V0h3.744V-6.1c0-2.472,1.368-3.6,3.432-3.6.288,0,.528.024.84.048V-13.1A5.211,5.211,0,0,0-28.584-11.208Zm14.448,7.944a2.523,2.523,0,0,1-1.512.48,1.506,1.506,0,0,1-1.608-1.7V-9.744h3.216v-2.88h-3.216v-3.144H-21v3.144h-1.992v2.88H-21v5.3C-21-1.368-19.224.192-16.176.192a5.351,5.351,0,0,0,3.048-.816Zm2.808-11.3H-8.4l4.344-3.456H-8.088ZM-11.016,0h3.744V-12.912h-3.744ZM2.448.192c2.712,0,4.848-1.2,5.784-3.264l-2.9-1.584a3.177,3.177,0,0,1-2.9,1.776A3.3,3.3,0,0,1-.96-6.456a3.3,3.3,0,0,1,3.384-3.576,3.22,3.22,0,0,1,2.9,1.776l2.9-1.56C7.3-11.928,5.16-13.1,2.448-13.1c-4.2,0-7.2,2.76-7.2,6.648S-1.752.192,2.448.192Zm17.208-13.1v6.384c0,2.376-1.248,3.48-2.976,3.48-1.656,0-2.616-.96-2.616-3.12v-6.744H10.32v7.3c0,3.984,2.28,5.808,5.52,5.808a5.224,5.224,0,0,0,4.008-1.728V0H23.4V-12.912ZM26.88,0h3.744V-17.808H26.88ZM39.312-13.1a9.926,9.926,0,0,0-5.568,1.56l1.344,2.616a6.208,6.208,0,0,1,3.72-1.2c2.016,0,2.976.936,2.976,2.544H38.808c-3.936,0-5.544,1.584-5.544,3.864,0,2.232,1.8,3.912,4.824,3.912,1.9,0,3.24-.624,3.936-1.8V0h3.5V-7.368C45.528-11.28,43.248-13.1,39.312-13.1ZM39.024-2.328c-1.32,0-2.112-.624-2.112-1.56,0-.864.552-1.512,2.3-1.512h2.568v1.32A2.759,2.759,0,0,1,39.024-2.328ZM53.256.192c3.864,0,6.1-1.7,6.1-4.1,0-5.088-7.8-2.952-7.8-5.16,0-.672.72-1.2,2.4-1.2a7.415,7.415,0,0,1,3.72.96l1.248-2.664A10.617,10.617,0,0,0,53.952-13.1c-3.768,0-5.976,1.728-5.976,4.176,0,5.16,7.8,3,7.8,5.112,0,.72-.648,1.176-2.376,1.176a8.834,8.834,0,0,1-4.488-1.248L47.664-1.2A11.084,11.084,0,0,0,53.256.192ZM76.08-13.1a5.017,5.017,0,0,0-4.056,1.68v-1.488H68.448V4.656h3.744V-1.368A5.013,5.013,0,0,0,76.08.192a6.271,6.271,0,0,0,6.432-6.648A6.271,6.271,0,0,0,76.08-13.1ZM75.432-2.88a3.259,3.259,0,0,1-3.288-3.576,3.259,3.259,0,0,1,3.288-3.576A3.259,3.259,0,0,1,78.72-6.456,3.259,3.259,0,0,1,75.432-2.88ZM97.656-6.408a6.392,6.392,0,0,0-6.72-6.7,6.574,6.574,0,0,0-6.888,6.648c0,3.84,2.9,6.648,7.368,6.648A6.763,6.763,0,0,0,96.744-1.9l-1.992-2.16a4.377,4.377,0,0,1-3.24,1.248,3.443,3.443,0,0,1-3.7-2.592h9.768C97.608-5.712,97.656-6.12,97.656-6.408Zm-6.7-3.864a3.068,3.068,0,0,1,3.168,2.688h-6.36A3.057,3.057,0,0,1,90.96-10.272Zm18.72-2.64v1.488a4.967,4.967,0,0,0-4.032-1.68,6.277,6.277,0,0,0-6.456,6.648A6.277,6.277,0,0,0,105.648.192a4.961,4.961,0,0,0,3.864-1.56V4.656h3.744V-12.912ZM106.3-2.88a3.276,3.276,0,0,1-3.312-3.576,3.276,3.276,0,0,1,3.312-3.576,3.271,3.271,0,0,1,3.288,3.576A3.271,3.271,0,0,1,106.3-2.88Zm19.68-10.032v6.384c0,2.376-1.248,3.48-2.976,3.48-1.656,0-2.616-.96-2.616-3.12v-6.744H116.64v7.3c0,3.984,2.28,5.808,5.52,5.808a5.224,5.224,0,0,0,4.008-1.728V0h3.552V-12.912Zm19.872,6.5a6.392,6.392,0,0,0-6.72-6.7,6.573,6.573,0,0,0-6.888,6.648c0,3.84,2.9,6.648,7.368,6.648A6.763,6.763,0,0,0,144.936-1.9l-1.992-2.16a4.377,4.377,0,0,1-3.24,1.248,3.443,3.443,0,0,1-3.7-2.592h9.768C145.8-5.712,145.848-6.12,145.848-6.408Zm-6.7-3.864a3.068,3.068,0,0,1,3.168,2.688h-6.36A3.057,3.057,0,0,1,139.152-10.272Zm14.256-5.736c.864,0,1.7,1.512,3.36,1.512,1.68,0,2.76-1.368,2.808-3.432h-1.9c-.048.792-.5,1.3-1.152,1.3-.864,0-1.7-1.536-3.36-1.536-1.68,0-2.76,1.368-2.808,3.5h1.9C152.3-15.528,152.76-16.008,153.408-16.008Zm2.784,2.9a5.653,5.653,0,0,0-4.272,1.7v-1.512h-3.576V0h3.744V-6.384c0-2.376,1.3-3.48,3.1-3.48,1.656,0,2.616.96,2.616,3.048V0h3.744V-7.392C161.544-11.328,159.24-13.1,156.192-13.1Zm13.944,0a9.926,9.926,0,0,0-5.568,1.56l1.344,2.616a6.208,6.208,0,0,1,3.72-1.2c2.016,0,2.976.936,2.976,2.544h-2.976c-3.936,0-5.544,1.584-5.544,3.864,0,2.232,1.8,3.912,4.824,3.912,1.9,0,3.24-.624,3.936-1.8V0h3.5V-7.368C176.352-11.28,174.072-13.1,170.136-13.1Zm-.288,10.776c-1.32,0-2.112-.624-2.112-1.56,0-.864.552-1.512,2.3-1.512h2.568v1.32A2.759,2.759,0,0,1,169.848-2.328ZM184.08.192c3.864,0,6.1-1.7,6.1-4.1,0-5.088-7.8-2.952-7.8-5.16,0-.672.72-1.2,2.4-1.2a7.415,7.415,0,0,1,3.72.96l1.248-2.664a10.617,10.617,0,0,0-4.968-1.128c-3.768,0-5.976,1.728-5.976,4.176,0,5.16,7.8,3,7.8,5.112,0,.72-.648,1.176-2.376,1.176a8.834,8.834,0,0,1-4.488-1.248L178.488-1.2A11.085,11.085,0,0,0,184.08.192Zm10.488,4.464a20.025,20.025,0,0,0,3.024-11.232,19.914,19.914,0,0,0-3.024-11.232h-3.576A21.717,21.717,0,0,1,193.92-6.576a21.717,21.717,0,0,1-2.928,11.232Z" transform="translate(1006 3522)" fill="#2b4e6a"/>
    <rect id="Rectángulo_1893" data-name="Rectángulo 1893" width="583" height="61" rx="6" transform="translate(710 3549)" fill="#e5e5e5"/>
    <rect id="Rectángulo_1894" data-name="Rectángulo 1894" width="189" height="61" rx="6" transform="translate(563 3549)" fill="#fdac29"/>
    <path id="Trazado_17194" data-name="Trazado 17194" d="M-46.308-16.8v3.12h3.36V0h3.888V-16.8ZM-28.284,0h12.312V-3.168H-24.4V-16.8h-3.888Zm14.5,0H-9.9V-16.8h-3.888ZM6.42-8.736a4.038,4.038,0,0,0,2.232-3.7c0-2.616-2.16-4.368-6.36-4.368H-5.916V0H2.772c4.416,0,6.72-1.68,6.72-4.584A4.149,4.149,0,0,0,6.42-8.736ZM1.812-13.872c1.9,0,2.928.648,2.928,1.968S3.708-9.912,1.812-9.912H-2.052v-3.96ZM2.484-2.928H-2.052V-7.08H2.484c2.016,0,3.1.672,3.1,2.088C5.58-3.552,4.5-2.928,2.484-2.928ZM27.324,0,23.556-5.4a5.462,5.462,0,0,0,3.456-5.3c0-3.768-2.808-6.1-7.3-6.1H12.444V0h3.888V-4.68h3.576L23.148,0ZM23.076-10.7c0,1.824-1.2,2.928-3.576,2.928H16.332v-5.856H19.5C21.876-13.632,23.076-12.552,23.076-10.7ZM42.636,0h4.08L39.2-16.8h-3.84L27.876,0H31.86l1.488-3.6h7.8ZM34.6-6.552l2.664-6.432,2.664,6.432Z" transform="translate(650 3589)" fill="#fff"/>
    <path id="Trazado_17193" data-name="Trazado 17193" d="M-217.776.288a8.632,8.632,0,0,0,6.936-3l-2.5-2.3a5.354,5.354,0,0,1-4.224,1.992A5.154,5.154,0,0,1-222.936-8.4a5.154,5.154,0,0,1,5.376-5.376,5.405,5.405,0,0,1,4.224,1.968l2.5-2.3a8.673,8.673,0,0,0-6.912-2.976c-5.232,0-9.12,3.624-9.12,8.688S-222.984.288-217.776.288ZM-196.008,0h4.08l-7.512-16.8h-3.84L-210.768,0h3.984l1.488-3.6h7.8Zm-8.04-6.552,2.664-6.432,2.664,6.432ZM-190.176,0h12.312V-3.168h-8.424V-16.8h-3.888Zm33.84,0h4.08l-7.512-16.8h-3.84L-171.1,0h3.984l1.488-3.6h7.8Zm-8.04-6.552,2.664-6.432,2.664,6.432Zm24.984,2.808a6.172,6.172,0,0,1-3.024.72A5.186,5.186,0,0,1-147.864-8.4a5.172,5.172,0,0,1,5.5-5.376,5.685,5.685,0,0,1,4.344,1.9l2.5-2.3a8.956,8.956,0,0,0-7.032-2.9c-5.352,0-9.24,3.624-9.24,8.688s3.888,8.688,9.168,8.688a11.593,11.593,0,0,0,6.792-2.136V-8.664h-3.552ZM-117.36,0l-3.768-5.4a5.462,5.462,0,0,0,3.456-5.3c0-3.768-2.808-6.1-7.3-6.1h-7.272V0h3.888V-4.68h3.576l3.24,4.68Zm-4.248-10.7c0,1.824-1.2,2.928-3.576,2.928h-3.168v-5.856h3.168C-122.808-13.632-121.608-12.552-121.608-10.7Zm6.768-7.464h2.928l4.344-3.456H-111.6ZM-114.6,0h3.888V-16.8H-114.6Zm15.912.288a8.632,8.632,0,0,0,6.936-3l-2.5-2.3a5.354,5.354,0,0,1-4.224,1.992A5.154,5.154,0,0,1-103.848-8.4a5.154,5.154,0,0,1,5.376-5.376,5.405,5.405,0,0,1,4.224,1.968l2.5-2.3a8.673,8.673,0,0,0-6.912-2.976c-5.232,0-9.12,3.624-9.12,8.688S-103.9.288-98.688.288Zm17.328,0c5.28,0,9.192-3.672,9.192-8.688s-3.912-8.688-9.192-8.688c-5.3,0-9.192,3.7-9.192,8.688S-86.664.288-81.36.288Zm0-3.312A5.125,5.125,0,0,1-86.616-8.4a5.125,5.125,0,0,1,5.256-5.376A5.125,5.125,0,0,1-76.1-8.4,5.125,5.125,0,0,1-81.36-3.024ZM-69.24,0h12.312V-3.168h-8.424V-16.8H-69.24Zm27.192,0h4.08L-45.48-16.8h-3.84L-56.808,0h3.984l1.488-3.6h7.8Zm-8.04-6.552,2.664-6.432,2.664,6.432ZM-26.664,4.656h3.576a21.926,21.926,0,0,1-2.9-11.232,21.926,21.926,0,0,1,2.9-11.232h-3.576a20.3,20.3,0,0,0-3,11.232A20.413,20.413,0,0,0-26.664,4.656ZM-12.816.288a8.632,8.632,0,0,0,6.936-3l-2.5-2.3A5.354,5.354,0,0,1-12.6-3.024,5.154,5.154,0,0,1-17.976-8.4,5.154,5.154,0,0,1-12.6-13.776a5.405,5.405,0,0,1,4.224,1.968l2.5-2.3a8.673,8.673,0,0,0-6.912-2.976c-5.232,0-9.12,3.624-9.12,8.688S-18.024.288-12.816.288ZM1.584-13.1a9.926,9.926,0,0,0-5.568,1.56L-2.64-8.928a6.208,6.208,0,0,1,3.72-1.2c2.016,0,2.976.936,2.976,2.544H1.08C-2.856-7.584-4.464-6-4.464-3.72-4.464-1.488-2.664.192.36.192c1.9,0,3.24-.624,3.936-1.8V0H7.8V-7.368C7.8-11.28,5.52-13.1,1.584-13.1ZM1.3-2.328c-1.32,0-2.112-.624-2.112-1.56,0-.864.552-1.512,2.3-1.512H4.056v1.32A2.759,2.759,0,0,1,1.3-2.328Zm13.464-8.88v-1.7H11.184V0h3.744V-6.1c0-2.472,1.368-3.6,3.432-3.6.288,0,.528.024.84.048V-13.1A5.211,5.211,0,0,0,14.76-11.208Zm14.3-1.9a5.013,5.013,0,0,0-3.888,1.56v-6.264H21.432V0h3.576V-1.488A5.017,5.017,0,0,0,29.064.192,6.271,6.271,0,0,0,35.5-6.456,6.271,6.271,0,0,0,29.064-13.1ZM28.416-2.88a3.259,3.259,0,0,1-3.288-3.576,3.259,3.259,0,0,1,3.288-3.576A3.259,3.259,0,0,1,31.7-6.456,3.259,3.259,0,0,1,28.416-2.88ZM44.136.192c4.1,0,7.08-2.76,7.08-6.648S48.24-13.1,44.136-13.1s-7.1,2.76-7.1,6.648S40.032.192,44.136.192Zm0-3.072a3.276,3.276,0,0,1-3.312-3.576,3.276,3.276,0,0,1,3.312-3.576,3.259,3.259,0,0,1,3.288,3.576A3.259,3.259,0,0,1,44.136-2.88ZM61.56-13.1a5.653,5.653,0,0,0-4.272,1.7v-1.512H53.712V0h3.744V-6.384c0-2.376,1.3-3.48,3.1-3.48,1.656,0,2.616.96,2.616,3.048V0h3.744V-7.392C66.912-11.328,64.608-13.1,61.56-13.1Zm13.944,0a9.926,9.926,0,0,0-5.568,1.56L71.28-8.928a6.208,6.208,0,0,1,3.72-1.2c2.016,0,2.976.936,2.976,2.544H75c-3.936,0-5.544,1.584-5.544,3.864,0,2.232,1.8,3.912,4.824,3.912,1.9,0,3.24-.624,3.936-1.8V0h3.5V-7.368C81.72-11.28,79.44-13.1,75.5-13.1ZM75.216-2.328c-1.32,0-2.112-.624-2.112-1.56,0-.864.552-1.512,2.3-1.512h2.568v1.32A2.759,2.759,0,0,1,75.216-2.328Zm17.208-.936a2.523,2.523,0,0,1-1.512.48,1.506,1.506,0,0,1-1.608-1.7V-9.744H92.52v-2.88H89.3v-3.144H85.56v3.144H83.568v2.88H85.56v5.3c0,3.072,1.776,4.632,4.824,4.632a5.351,5.351,0,0,0,3.048-.816ZM101.28.192c4.1,0,7.08-2.76,7.08-6.648s-2.976-6.648-7.08-6.648-7.1,2.76-7.1,6.648S97.176.192,101.28.192Zm0-3.072a3.276,3.276,0,0,1-3.312-3.576,3.276,3.276,0,0,1,3.312-3.576,3.259,3.259,0,0,1,3.288,3.576A3.259,3.259,0,0,1,101.28-2.88Zm25.776-14.928v6.264a4.961,4.961,0,0,0-3.864-1.56,6.277,6.277,0,0,0-6.456,6.648A6.277,6.277,0,0,0,123.192.192a4.967,4.967,0,0,0,4.032-1.68V0H130.8V-17.808ZM123.84-2.88a3.276,3.276,0,0,1-3.312-3.576,3.276,3.276,0,0,1,3.312-3.576,3.271,3.271,0,0,1,3.288,3.576A3.271,3.271,0,0,1,123.84-2.88ZM146.9-6.408a6.392,6.392,0,0,0-6.72-6.7A6.573,6.573,0,0,0,133.3-6.456c0,3.84,2.9,6.648,7.368,6.648A6.763,6.763,0,0,0,145.992-1.9L144-4.056a4.377,4.377,0,0,1-3.24,1.248,3.443,3.443,0,0,1-3.7-2.592h9.768C146.856-5.712,146.9-6.12,146.9-6.408Zm-6.7-3.864a3.068,3.068,0,0,1,3.168,2.688h-6.36A3.057,3.057,0,0,1,140.208-10.272ZM162.432.192c2.712,0,4.848-1.2,5.784-3.264l-2.9-1.584a3.177,3.177,0,0,1-2.9,1.776,3.3,3.3,0,0,1-3.384-3.576,3.3,3.3,0,0,1,3.384-3.576,3.22,3.22,0,0,1,2.9,1.776l2.9-1.56c-.936-2.112-3.072-3.288-5.784-3.288-4.2,0-7.2,2.76-7.2,6.648S158.232.192,162.432.192Zm13.152-13.3a9.926,9.926,0,0,0-5.568,1.56l1.344,2.616a6.208,6.208,0,0,1,3.72-1.2c2.016,0,2.976.936,2.976,2.544H175.08c-3.936,0-5.544,1.584-5.544,3.864,0,2.232,1.8,3.912,4.824,3.912,1.9,0,3.24-.624,3.936-1.8V0h3.5V-7.368C181.8-11.28,179.52-13.1,175.584-13.1ZM175.3-2.328c-1.32,0-2.112-.624-2.112-1.56,0-.864.552-1.512,2.3-1.512h2.568v1.32A2.759,2.759,0,0,1,175.3-2.328ZM185.184,0h3.744V-17.808h-3.744Zm13.464.192c2.712,0,4.848-1.2,5.784-3.264l-2.9-1.584a3.177,3.177,0,0,1-2.9,1.776,3.3,3.3,0,0,1-3.384-3.576,3.3,3.3,0,0,1,3.384-3.576,3.22,3.22,0,0,1,2.9,1.776l2.9-1.56c-.936-2.112-3.072-3.288-5.784-3.288-4.2,0-7.2,2.76-7.2,6.648S194.448.192,198.648.192Zm9.816-14.9a2.153,2.153,0,0,0,2.328-2.16,2.1,2.1,0,0,0-2.328-2.016,2.14,2.14,0,0,0-2.328,2.088A2.14,2.14,0,0,0,208.464-14.712ZM206.592,0h3.744V-12.912h-3.744ZM219.96.192c4.1,0,7.08-2.76,7.08-6.648s-2.976-6.648-7.08-6.648-7.1,2.76-7.1,6.648S215.856.192,219.96.192Zm0-3.072a3.276,3.276,0,0,1-3.312-3.576,3.276,3.276,0,0,1,3.312-3.576,3.259,3.259,0,0,1,3.288,3.576A3.259,3.259,0,0,1,219.96-2.88Z" transform="translate(1035 3589)" fill="#2b4e6a"/>
    <rect id="Rectángulo_1895" data-name="Rectángulo 1895" width="647" height="61" rx="6" transform="translate(710 3616)" fill="#e5e5e5"/>
    <rect id="Rectángulo_1896" data-name="Rectángulo 1896" width="189" height="61" rx="6" transform="translate(563 3616)" fill="#fdac29"/>
    <path id="Trazado_17195" data-name="Trazado 17195" d="M-46.308-16.8v3.12h3.36V0h3.888V-16.8ZM-28.284,0h12.312V-3.168H-24.4V-16.8h-3.888Zm14.5,0H-9.9V-16.8h-3.888ZM6.42-8.736a4.038,4.038,0,0,0,2.232-3.7c0-2.616-2.16-4.368-6.36-4.368H-5.916V0H2.772c4.416,0,6.72-1.68,6.72-4.584A4.149,4.149,0,0,0,6.42-8.736ZM1.812-13.872c1.9,0,2.928.648,2.928,1.968S3.708-9.912,1.812-9.912H-2.052v-3.96ZM2.484-2.928H-2.052V-7.08H2.484c2.016,0,3.1.672,3.1,2.088C5.58-3.552,4.5-2.928,2.484-2.928ZM27.324,0,23.556-5.4a5.462,5.462,0,0,0,3.456-5.3c0-3.768-2.808-6.1-7.3-6.1H12.444V0h3.888V-4.68h3.576L23.148,0ZM23.076-10.7c0,1.824-1.2,2.928-3.576,2.928H16.332v-5.856H19.5C21.876-13.632,23.076-12.552,23.076-10.7ZM42.636,0h4.08L39.2-16.8h-3.84L27.876,0H31.86l1.488-3.6h7.8ZM34.6-6.552l2.664-6.432,2.664,6.432Z" transform="translate(650 3656)" fill="#fff"/>
    <path id="Trazado_17196" data-name="Trazado 17196" d="M-246.492,0h3.888V-13.632h5.376V-16.8h-14.64v3.168h5.376Zm11.352,0h3.888V-16.8h-3.888ZM-223.4-3.12V-7.008h7.8v-3.024h-7.8V-13.68h8.832V-16.8h-12.7V0h13.008V-3.12ZM-196.284,0l-3.768-5.4a5.462,5.462,0,0,0,3.456-5.3c0-3.768-2.808-6.1-7.3-6.1h-7.272V0h3.888V-4.68h3.576L-200.46,0Zm-4.248-10.7c0,1.824-1.2,2.928-3.576,2.928h-3.168v-5.856h3.168C-201.732-13.632-200.532-12.552-200.532-10.7ZM-178.644,0l-3.768-5.4a5.462,5.462,0,0,0,3.456-5.3c0-3.768-2.808-6.1-7.3-6.1h-7.272V0h3.888V-4.68h3.576L-182.82,0Zm-4.248-10.7c0,1.824-1.2,2.928-3.576,2.928h-3.168v-5.856h3.168C-184.092-13.632-182.892-12.552-182.892-10.7ZM-163.332,0h4.08l-7.512-16.8h-3.84L-178.092,0h3.984l1.488-3.6h7.8Zm-8.04-6.552,2.664-6.432,2.664,6.432ZM-139.14-16.8V-6.6l-8.352-10.2h-3.216V0h3.84V-10.2L-138.492,0h3.192V-16.8Zm11.688,13.68V-7.008h7.8v-3.024h-7.8V-13.68h8.832V-16.8h-12.7V0h13.008V-3.12Zm23.544-.624a6.172,6.172,0,0,1-3.024.72A5.185,5.185,0,0,1-112.38-8.4a5.172,5.172,0,0,1,5.5-5.376,5.685,5.685,0,0,1,4.344,1.9l2.5-2.3a8.956,8.956,0,0,0-7.032-2.9c-5.352,0-9.24,3.624-9.24,8.688s3.888,8.688,9.168,8.688a11.593,11.593,0,0,0,6.792-2.136V-8.664h-3.552ZM-81.876,0l-3.768-5.4a5.462,5.462,0,0,0,3.456-5.3c0-3.768-2.808-6.1-7.3-6.1h-7.272V0h3.888V-4.68h3.576L-86.052,0Zm-4.248-10.7c0,1.824-1.2,2.928-3.576,2.928h-3.168v-5.856H-89.7C-87.324-13.632-86.124-12.552-86.124-10.7ZM-66.564,0h4.08L-70-16.8h-3.84L-81.324,0h3.984l1.488-3.6h7.8ZM-74.6-6.552l2.664-6.432,2.664,6.432ZM-45.8.288c5.28,0,9.192-3.672,9.192-8.688s-3.912-8.688-9.192-8.688c-5.3,0-9.192,3.7-9.192,8.688S-51.108.288-45.8.288Zm0-3.312A5.125,5.125,0,0,1-51.06-8.4,5.125,5.125,0,0,1-45.8-13.776,5.125,5.125,0,0,1-40.548-8.4,5.125,5.125,0,0,1-45.8-3.024Zm31.248-5.712a4.038,4.038,0,0,0,2.232-3.7c0-2.616-2.16-4.368-6.36-4.368h-8.208V0H-18.2c4.416,0,6.72-1.68,6.72-4.584A4.149,4.149,0,0,0-14.556-8.736Zm-4.608-5.136c1.9,0,2.928.648,2.928,1.968s-1.032,1.992-2.928,1.992h-3.864v-3.96Zm.672,10.944h-4.536V-7.08h4.536c2.016,0,3.1.672,3.1,2.088C-15.4-3.552-16.476-2.928-18.492-2.928ZM-.4.288C4.884.288,8.8-3.384,8.8-8.4S4.884-17.088-.4-17.088c-5.3,0-9.192,3.7-9.192,8.688S-5.7.288-.4.288Zm0-3.312A5.125,5.125,0,0,1-5.652-8.4,5.125,5.125,0,0,1-.4-13.776,5.125,5.125,0,0,1,4.86-8.4,5.125,5.125,0,0,1-.4-3.024ZM19.764.288a8.632,8.632,0,0,0,6.936-3l-2.5-2.3A5.354,5.354,0,0,1,19.98-3.024,5.154,5.154,0,0,1,14.6-8.4a5.154,5.154,0,0,1,5.376-5.376A5.405,5.405,0,0,1,24.2-11.808l2.5-2.3a8.673,8.673,0,0,0-6.912-2.976c-5.232,0-9.12,3.624-9.12,8.688S14.556.288,19.764.288ZM41.532,0h4.08L38.1-16.8H34.26L26.772,0h3.984l1.488-3.6h7.8Zm-8.04-6.552,2.664-6.432L38.82-6.552ZM52.884.288c4.8,0,7.128-2.4,7.128-5.208,0-6.168-9.768-4.032-9.768-7.128,0-1.056.888-1.92,3.192-1.92a9.488,9.488,0,0,1,4.656,1.32l1.2-2.952a11.269,11.269,0,0,0-5.832-1.488c-4.776,0-7.08,2.376-7.08,5.232,0,6.24,9.768,4.08,9.768,7.224,0,1.032-.936,1.8-3.24,1.8a9.882,9.882,0,0,1-5.544-1.752l-1.32,2.928A11.974,11.974,0,0,0,52.884.288ZM74.2-16.8v6.624H66.564V-16.8H62.676V0h3.888V-6.888H74.2V0h3.888V-16.8ZM82.068,0h3.888V-16.8H82.068Zm18.144,0H104.1V-13.632h5.376V-16.8H94.836v3.168h5.376Zm15.216-3.12V-7.008h7.8v-3.024h-7.8V-13.68h8.832V-16.8h-12.7V0h13.008V-3.12ZM142.548,0,138.78-5.4a5.462,5.462,0,0,0,3.456-5.3c0-3.768-2.808-6.1-7.3-6.1h-7.272V0h3.888V-4.68h3.576L138.372,0ZM138.3-10.7c0,1.824-1.2,2.928-3.576,2.928h-3.168v-5.856h3.168C137.1-13.632,138.3-12.552,138.3-10.7ZM164.244,0,164.2-16.8H161L154.812-6.36,148.524-16.8h-3.216V0h3.648V-9.864l4.92,8.088h1.752l4.944-8.3L160.6,0Zm3.984,0h3.888V-16.8h-3.888Zm19.44-16.8V-6.6l-8.352-10.2H176.1V0h3.84V-10.2L188.316,0h3.192V-16.8ZM208.044,0h4.08l-7.512-16.8h-3.84L193.284,0h3.984l1.488-3.6h7.8ZM200-6.552l2.664-6.432,2.664,6.432ZM213.876,0h7.632c5.5,0,9.264-3.312,9.264-8.4s-3.768-8.4-9.264-8.4h-7.632Zm3.888-3.192V-13.608h3.552c3.336,0,5.52,1.992,5.52,5.208s-2.184,5.208-5.52,5.208ZM241.836.288c5.28,0,9.192-3.672,9.192-8.688s-3.912-8.688-9.192-8.688c-5.3,0-9.192,3.7-9.192,8.688S236.532.288,241.836.288Zm0-3.312A5.125,5.125,0,0,1,236.58-8.4a5.125,5.125,0,0,1,5.256-5.376A5.125,5.125,0,0,1,247.092-8.4,5.125,5.125,0,0,1,241.836-3.024Z" transform="translate(1059 3656)" fill="#2b4e6a"/>
    <rect id="Rectángulo_1897" data-name="Rectángulo 1897" width="647" height="61" rx="6" transform="translate(710 3683)" fill="#e5e5e5"/>
    <rect id="Rectángulo_1898" data-name="Rectángulo 1898" width="189" height="61" rx="6" transform="translate(563 3683)" fill="#fdac29"/>
    <path id="Trazado_17198" data-name="Trazado 17198" d="M-48.456.288c4.152,0,7.2-3.144,7.2-8.688s-3.048-8.688-7.2-8.688c-4.128,0-7.2,3.144-7.2,8.688S-52.584.288-48.456.288Zm0-3.288c-1.92,0-3.264-1.584-3.264-5.4s1.344-5.4,3.264-5.4c1.944,0,3.288,1.584,3.288,5.4S-46.512-3-48.456-3ZM-37.44-4.464a2.224,2.224,0,0,0-2.328,2.3,2.082,2.082,0,0,0,1.3,2.04L-39.528,3.7h2.376L-35.784.24a5.58,5.58,0,0,0,.648-2.4A2.2,2.2,0,0,0-37.44-4.464Zm2.9-12.336v3.12h3.36V0h3.888V-16.8ZM-16.512,0H-4.2V-3.168h-8.424V-16.8h-3.888Zm14.5,0H1.872V-16.8H-2.016ZM9.336,0h3.888V-13.632H18.6V-16.8H3.96v3.168H9.336ZM35.568,0,31.8-5.4a5.462,5.462,0,0,0,3.456-5.3c0-3.768-2.808-6.1-7.3-6.1H20.688V0h3.888V-4.68h3.576L31.392,0ZM31.32-10.7c0,1.824-1.2,2.928-3.576,2.928H24.576v-5.856h3.168C30.12-13.632,31.32-12.552,31.32-10.7ZM46.464.288c5.28,0,9.192-3.672,9.192-8.688s-3.912-8.688-9.192-8.688c-5.3,0-9.192,3.7-9.192,8.688S41.16.288,46.464.288Zm0-3.312A5.125,5.125,0,0,1,41.208-8.4a5.125,5.125,0,0,1,5.256-5.376A5.125,5.125,0,0,1,51.72-8.4,5.125,5.125,0,0,1,46.464-3.024Z" transform="translate(653 3723)" fill="#fff"/>
    <path id="Trazado_17197" data-name="Trazado 17197" d="M-32.34,0l-.048-16.8H-35.58L-41.772-6.36-48.06-16.8h-3.216V0h3.648V-9.864l4.92,8.088h1.752l4.944-8.3L-35.988,0Zm7.848-3.12V-7.008h7.8v-3.024h-7.8V-13.68h8.832V-16.8h-12.7V0h13.008V-3.12ZM-12.252,0H.06V-3.168H-8.364V-16.8h-3.888ZM14.94,0h4.08L11.508-16.8H7.668L.18,0H4.164L5.652-3.6h7.8ZM6.9-6.552l2.664-6.432,2.664,6.432ZM24.828-3.168,34.02-14.28V-16.8H19.884v3.168h9.024L19.692-2.52V0H34.38V-3.168ZM49.428,0h4.08L46-16.8h-3.84L34.668,0h3.984L40.14-3.6h7.8Zm-8.04-6.552,2.664-6.432,2.664,6.432Z" transform="translate(860 3723)" fill="#2b4e6a"/>
    <rect id="Rectángulo_1899" data-name="Rectángulo 1899" width="506" height="61" rx="6" transform="translate(710 3750)" fill="#e5e5e5"/>
    <rect id="Rectángulo_1900" data-name="Rectángulo 1900" width="189" height="61" rx="6" transform="translate(563 3750)" fill="#fdac29"/>
    <path id="Trazado_17199" data-name="Trazado 17199" d="M-72.588-16.8v3.12h3.36V0h3.888V-16.8ZM-55.212.288c4.152,0,7.2-3.144,7.2-8.688s-3.048-8.688-7.2-8.688c-4.128,0-7.2,3.144-7.2,8.688S-59.34.288-55.212.288Zm0-3.288c-1.92,0-3.264-1.584-3.264-5.4s1.344-5.4,3.264-5.4c1.944,0,3.288,1.584,3.288,5.4S-53.268-3-55.212-3Zm28.3-.744a6.172,6.172,0,0,1-3.024.72A5.185,5.185,0,0,1-35.388-8.4a5.172,5.172,0,0,1,5.5-5.376,5.685,5.685,0,0,1,4.344,1.9l2.5-2.3a8.956,8.956,0,0,0-7.032-2.9c-5.352,0-9.24,3.624-9.24,8.688S-35.436.288-30.156.288a11.593,11.593,0,0,0,6.792-2.136V-8.664h-3.552ZM-4.884,0-8.652-5.4A5.462,5.462,0,0,0-5.2-10.7c0-3.768-2.808-6.1-7.3-6.1h-7.272V0h3.888V-4.68H-12.3L-9.06,0ZM-9.132-10.7c0,1.824-1.2,2.928-3.576,2.928h-3.168v-5.856h3.168C-10.332-13.632-9.132-12.552-9.132-10.7ZM10.428,0h4.08L7-16.8H3.156L-4.332,0H-.348L1.14-3.6h7.8ZM2.388-6.552l2.664-6.432L7.716-6.552ZM35.2,0l-.048-16.8H31.956L25.764-6.36,19.476-16.8H16.26V0h3.648V-9.864l4.92,8.088H26.58l4.944-8.3L31.548,0Zm12.12.288c5.28,0,9.192-3.672,9.192-8.688s-3.912-8.688-9.192-8.688c-5.3,0-9.192,3.7-9.192,8.688S42.012.288,47.316.288Zm0-3.312A5.125,5.125,0,0,1,42.06-8.4a5.125,5.125,0,0,1,5.256-5.376A5.125,5.125,0,0,1,52.572-8.4,5.125,5.125,0,0,1,47.316-3.024ZM64.956.288c4.8,0,7.128-2.4,7.128-5.208,0-6.168-9.768-4.032-9.768-7.128,0-1.056.888-1.92,3.192-1.92a9.488,9.488,0,0,1,4.656,1.32l1.2-2.952a11.269,11.269,0,0,0-5.832-1.488c-4.776,0-7.08,2.376-7.08,5.232,0,6.24,9.768,4.08,9.768,7.224,0,1.032-.936,1.8-3.24,1.8a9.882,9.882,0,0,1-5.544-1.752l-1.32,2.928A11.974,11.974,0,0,0,64.956.288Z" transform="translate(657 3790)" fill="#fff"/>
    <path id="Trazado_17200" data-name="Trazado 17200" d="M-153.564,0h12.312V-3.168h-8.424V-16.8h-3.888Zm18.36-3.12V-7.008h7.8v-3.024h-7.8V-13.68h8.832V-16.8h-12.7V0h13.008V-3.12Zm24.288-13.68-5.184,12-5.112-12h-4.2L-118.164,0h3.84l7.272-16.8ZM-93.66,0h4.08l-7.512-16.8h-3.84L-108.42,0h3.984l1.488-3.6h7.8Zm-8.04-6.552,2.664-6.432,2.664,6.432ZM-87.828,0H-80.2c5.5,0,9.264-3.312,9.264-8.4S-74.7-16.8-80.2-16.8h-7.632Zm3.888-3.192V-13.608h3.552c3.336,0,5.52,1.992,5.52,5.208s-2.184,5.208-5.52,5.208Zm23.4,3.48c4.776,0,7.608-2.736,7.608-7.68V-16.8h-3.84v9.264c0,3.192-1.368,4.512-3.744,4.512-2.352,0-3.744-1.32-3.744-4.512V-16.8h-3.888v9.408C-68.148-2.448-65.316.288-60.54.288ZM-34.212,0-37.98-5.4a5.462,5.462,0,0,0,3.456-5.3c0-3.768-2.808-6.1-7.3-6.1h-7.272V0H-45.2V-4.68h3.576L-38.388,0ZM-38.46-10.7c0,1.824-1.2,2.928-3.576,2.928H-45.2v-5.856h3.168C-39.66-13.632-38.46-12.552-38.46-10.7ZM-18.9,0h4.08l-7.512-16.8h-3.84L-33.66,0h3.984l1.488-3.6h7.8Zm-8.04-6.552,2.664-6.432,2.664,6.432ZM5.076-3.744a6.172,6.172,0,0,1-3.024.72A5.185,5.185,0,0,1-3.4-8.4a5.172,5.172,0,0,1,5.5-5.376,5.685,5.685,0,0,1,4.344,1.9l2.5-2.3a8.956,8.956,0,0,0-7.032-2.9c-5.352,0-9.24,3.624-9.24,8.688S-3.444.288,1.836.288A11.593,11.593,0,0,0,8.628-1.848V-8.664H5.076ZM27.108,0,23.34-5.4A5.462,5.462,0,0,0,26.8-10.7c0-3.768-2.808-6.1-7.3-6.1H12.228V0h3.888V-4.68h3.576L22.932,0ZM22.86-10.7c0,1.824-1.2,2.928-3.576,2.928H16.116v-5.856h3.168C21.66-13.632,22.86-12.552,22.86-10.7ZM42.42,0H46.5L38.988-16.8h-3.84L27.66,0h3.984l1.488-3.6h7.8ZM34.38-6.552l2.664-6.432,2.664,6.432ZM59.82-16.8V-6.6L51.468-16.8H48.252V0h3.84V-10.2L60.468,0H63.66V-16.8ZM75.108.288c4.776,0,7.608-2.736,7.608-7.68V-16.8h-3.84v9.264c0,3.192-1.368,4.512-3.744,4.512-2.352,0-3.744-1.32-3.744-4.512V-16.8H67.5v9.408C67.5-2.448,70.332.288,75.108.288ZM86.556,0H98.868V-3.168H90.444V-16.8H86.556Zm27.192,0h4.08l-7.512-16.8h-3.84L98.988,0h3.984l1.488-3.6h7.8Zm-8.04-6.552,2.664-6.432,2.664,6.432ZM119.58,0h7.632c5.5,0,9.264-3.312,9.264-8.4s-3.768-8.4-9.264-8.4H119.58Zm3.888-3.192V-13.608h3.552c3.336,0,5.52,1.992,5.52,5.208s-2.184,5.208-5.52,5.208ZM151.716,0h4.08l-7.512-16.8h-3.84L136.956,0h3.984l1.488-3.6h7.8Zm-8.04-6.552,2.664-6.432L149-6.552Z" transform="translate(963 3790)" fill="#2b4e6a"/>
    <rect id="Rectángulo_1901" data-name="Rectángulo 1901" width="794" height="61" rx="6" transform="translate(563 3840)" fill="#3b5fbf"/>
    <path id="Trazado_17201" data-name="Trazado 17201" d="M-362.616,0h4.08l-7.512-16.8h-3.84L-377.376,0h3.984l1.488-3.6h7.8Zm-8.04-6.552,2.664-6.432,2.664,6.432Zm23.256-6.36v1.656a5.183,5.183,0,0,0-4.272-1.848,6.147,6.147,0,0,0-6.456,6.24,6.147,6.147,0,0,0,6.456,6.24,5.316,5.316,0,0,0,4.08-1.608v.552c0,2.328-1.152,3.528-3.792,3.528a7.717,7.717,0,0,1-4.56-1.464l-1.488,2.688A10.637,10.637,0,0,0-351.1,4.848c4.656,0,7.248-2.208,7.248-7.008V-12.912ZM-350.928-3.7a3.155,3.155,0,0,1-3.408-3.168,3.155,3.155,0,0,1,3.408-3.168,3.135,3.135,0,0,1,3.384,3.168A3.135,3.135,0,0,1-350.928-3.7Zm19.824-9.216v6.384c0,2.376-1.248,3.48-2.976,3.48-1.656,0-2.616-.96-2.616-3.12v-6.744h-3.744v7.3c0,3.984,2.28,5.808,5.52,5.808a5.224,5.224,0,0,0,4.008-1.728V0h3.552V-12.912Zm12.432-.192a9.926,9.926,0,0,0-5.568,1.56l1.344,2.616a6.208,6.208,0,0,1,3.72-1.2c2.016,0,2.976.936,2.976,2.544h-2.976c-3.936,0-5.544,1.584-5.544,3.864,0,2.232,1.8,3.912,4.824,3.912,1.9,0,3.24-.624,3.936-1.8V0h3.5V-7.368C-312.456-11.28-314.736-13.1-318.672-13.1Zm-.288,10.776c-1.32,0-2.112-.624-2.112-1.56,0-.864.552-1.512,2.3-1.512h2.568v1.32A2.759,2.759,0,0,1-318.96-2.328Zm26.088-15.48v6.264a4.96,4.96,0,0,0-3.864-1.56,6.277,6.277,0,0,0-6.456,6.648A6.277,6.277,0,0,0-296.736.192a4.967,4.967,0,0,0,4.032-1.68V0h3.576V-17.808ZM-296.088-2.88A3.276,3.276,0,0,1-299.4-6.456a3.276,3.276,0,0,1,3.312-3.576A3.271,3.271,0,0,1-292.8-6.456,3.271,3.271,0,0,1-296.088-2.88Zm23.064-3.528a6.392,6.392,0,0,0-6.72-6.7,6.573,6.573,0,0,0-6.888,6.648c0,3.84,2.9,6.648,7.368,6.648A6.763,6.763,0,0,0-273.936-1.9l-1.992-2.16a4.377,4.377,0,0,1-3.24,1.248,3.443,3.443,0,0,1-3.7-2.592h9.768C-273.072-5.712-273.024-6.12-273.024-6.408Zm-6.7-3.864a3.068,3.068,0,0,1,3.168,2.688h-6.36A3.057,3.057,0,0,1-279.72-10.272Zm21.192-2.832a9.926,9.926,0,0,0-5.568,1.56l1.344,2.616a6.208,6.208,0,0,1,3.72-1.2c2.016,0,2.976.936,2.976,2.544h-2.976c-3.936,0-5.544,1.584-5.544,3.864,0,2.232,1.8,3.912,4.824,3.912,1.9,0,3.24-.624,3.936-1.8V0h3.5V-7.368C-252.312-11.28-254.592-13.1-258.528-13.1Zm-.288,10.776c-1.32,0-2.112-.624-2.112-1.56,0-.864.552-1.512,2.3-1.512h2.568v1.32A2.759,2.759,0,0,1-258.816-2.328Zm16.272,2.52c2.712,0,4.848-1.2,5.784-3.264l-2.9-1.584a3.177,3.177,0,0,1-2.9,1.776,3.3,3.3,0,0,1-3.384-3.576,3.3,3.3,0,0,1,3.384-3.576,3.22,3.22,0,0,1,2.9,1.776l2.9-1.56c-.936-2.112-3.072-3.288-5.784-3.288-4.2,0-7.2,2.76-7.2,6.648S-246.744.192-242.544.192Zm17.208-13.1v6.384c0,2.376-1.248,3.48-2.976,3.48-1.656,0-2.616-.96-2.616-3.12v-6.744h-3.744v7.3c0,3.984,2.28,5.808,5.52,5.808a5.224,5.224,0,0,0,4.008-1.728V0h3.552V-12.912Zm19.872,6.5a6.392,6.392,0,0,0-6.72-6.7,6.573,6.573,0,0,0-6.888,6.648c0,3.84,2.9,6.648,7.368,6.648A6.763,6.763,0,0,0-206.376-1.9l-1.992-2.16a4.377,4.377,0,0,1-3.24,1.248A3.443,3.443,0,0,1-215.3-5.4h9.768C-205.512-5.712-205.464-6.12-205.464-6.408Zm-6.7-3.864a3.068,3.068,0,0,1,3.168,2.688h-6.36A3.057,3.057,0,0,1-212.16-10.272Zm12.768-.936v-1.7h-3.576V0h3.744V-6.1c0-2.472,1.368-3.6,3.432-3.6.288,0,.528.024.84.048V-13.1A5.211,5.211,0,0,0-199.392-11.208Zm15.96-6.6v6.264A4.961,4.961,0,0,0-187.3-13.1a6.277,6.277,0,0,0-6.456,6.648A6.277,6.277,0,0,0-187.3.192a4.967,4.967,0,0,0,4.032-1.68V0h3.576V-17.808ZM-186.648-2.88a3.276,3.276,0,0,1-3.312-3.576,3.276,3.276,0,0,1,3.312-3.576,3.271,3.271,0,0,1,3.288,3.576A3.271,3.271,0,0,1-186.648-2.88Zm16.56,3.072c4.1,0,7.08-2.76,7.08-6.648s-2.976-6.648-7.08-6.648-7.1,2.76-7.1,6.648S-174.192.192-170.088.192Zm0-3.072A3.276,3.276,0,0,1-173.4-6.456a3.276,3.276,0,0,1,3.312-3.576A3.259,3.259,0,0,1-166.8-6.456,3.259,3.259,0,0,1-170.088-2.88ZM-148.512-13.1a9.926,9.926,0,0,0-5.568,1.56l1.344,2.616a6.208,6.208,0,0,1,3.72-1.2c2.016,0,2.976.936,2.976,2.544h-2.976c-3.936,0-5.544,1.584-5.544,3.864,0,2.232,1.8,3.912,4.824,3.912,1.9,0,3.24-.624,3.936-1.8V0h3.5V-7.368C-142.3-11.28-144.576-13.1-148.512-13.1ZM-148.8-2.328c-1.32,0-2.112-.624-2.112-1.56,0-.864.552-1.512,2.3-1.512h2.568v1.32A2.759,2.759,0,0,1-148.8-2.328ZM-132.12,0h3.744V-17.808h-3.744Zm12.432-13.1a9.926,9.926,0,0,0-5.568,1.56l1.344,2.616a6.208,6.208,0,0,1,3.72-1.2c2.016,0,2.976.936,2.976,2.544h-2.976c-3.936,0-5.544,1.584-5.544,3.864,0,2.232,1.8,3.912,4.824,3.912,1.9,0,3.24-.624,3.936-1.8V0h3.5V-7.368C-113.472-11.28-115.752-13.1-119.688-13.1Zm-.288,10.776c-1.32,0-2.112-.624-2.112-1.56,0-.864.552-1.512,2.3-1.512h2.568v1.32A2.759,2.759,0,0,1-119.976-2.328ZM-95.664-13.1a5.017,5.017,0,0,0-4.056,1.68v-1.488H-103.3V4.656h3.744V-1.368A5.013,5.013,0,0,0-95.664.192a6.271,6.271,0,0,0,6.432-6.648A6.271,6.271,0,0,0-95.664-13.1ZM-96.312-2.88A3.259,3.259,0,0,1-99.6-6.456a3.259,3.259,0,0,1,3.288-3.576,3.259,3.259,0,0,1,3.288,3.576A3.259,3.259,0,0,1-96.312-2.88Zm13.152-8.328v-1.7h-3.576V0h3.744V-6.1c0-2.472,1.368-3.6,3.432-3.6.288,0,.528.024.84.048V-13.1A5.211,5.211,0,0,0-83.16-11.208Zm16.032-1.7v6.384c0,2.376-1.248,3.48-2.976,3.48-1.656,0-2.616-.96-2.616-3.12v-6.744h-3.744v7.3c0,3.984,2.28,5.808,5.52,5.808a5.224,5.224,0,0,0,4.008-1.728V0h3.552V-12.912Zm19.872,6.5a6.392,6.392,0,0,0-6.72-6.7,6.573,6.573,0,0,0-6.888,6.648c0,3.84,2.9,6.648,7.368,6.648A6.763,6.763,0,0,0-48.168-1.9l-1.992-2.16A4.377,4.377,0,0,1-53.4-2.808,3.443,3.443,0,0,1-57.1-5.4h9.768C-47.3-5.712-47.256-6.12-47.256-6.408Zm-6.7-3.864a3.068,3.068,0,0,1,3.168,2.688h-6.36A3.057,3.057,0,0,1-53.952-10.272ZM-37.128-13.1a5.013,5.013,0,0,0-3.888,1.56v-6.264H-44.76V0h3.576V-1.488A5.017,5.017,0,0,0-37.128.192,6.271,6.271,0,0,0-30.7-6.456,6.271,6.271,0,0,0-37.128-13.1ZM-37.776-2.88a3.259,3.259,0,0,1-3.288-3.576,3.259,3.259,0,0,1,3.288-3.576,3.259,3.259,0,0,1,3.288,3.576A3.259,3.259,0,0,1-37.776-2.88ZM-23.208-13.1a9.926,9.926,0,0,0-5.568,1.56l1.344,2.616a6.208,6.208,0,0,1,3.72-1.2c2.016,0,2.976.936,2.976,2.544h-2.976c-3.936,0-5.544,1.584-5.544,3.864,0,2.232,1.8,3.912,4.824,3.912,1.9,0,3.24-.624,3.936-1.8V0h3.5V-7.368C-16.992-11.28-19.272-13.1-23.208-13.1ZM-23.5-2.328c-1.32,0-2.112-.624-2.112-1.56,0-.864.552-1.512,2.3-1.512h2.568v1.32A2.759,2.759,0,0,1-23.5-2.328ZM2.592-17.808v6.264A4.961,4.961,0,0,0-1.272-13.1,6.277,6.277,0,0,0-7.728-6.456,6.277,6.277,0,0,0-1.272.192,4.967,4.967,0,0,0,2.76-1.488V0H6.336V-17.808ZM-.624-2.88A3.276,3.276,0,0,1-3.936-6.456,3.276,3.276,0,0,1-.624-10.032,3.271,3.271,0,0,1,2.664-6.456,3.271,3.271,0,0,1-.624-2.88ZM22.44-6.408a6.392,6.392,0,0,0-6.72-6.7A6.574,6.574,0,0,0,8.832-6.456c0,3.84,2.9,6.648,7.368,6.648A6.763,6.763,0,0,0,21.528-1.9l-1.992-2.16A4.377,4.377,0,0,1,16.3-2.808,3.443,3.443,0,0,1,12.6-5.4h9.768C22.392-5.712,22.44-6.12,22.44-6.408Zm-6.7-3.864a3.068,3.068,0,0,1,3.168,2.688h-6.36A3.057,3.057,0,0,1,15.744-10.272ZM24.936,0H28.68V-17.808H24.936ZM46.584-13.1a5.017,5.017,0,0,0-4.056,1.68v-1.488H38.952V4.656H42.7V-1.368A5.013,5.013,0,0,0,46.584.192a6.271,6.271,0,0,0,6.432-6.648A6.271,6.271,0,0,0,46.584-13.1ZM45.936-2.88a3.259,3.259,0,0,1-3.288-3.576,3.259,3.259,0,0,1,3.288-3.576,3.259,3.259,0,0,1,3.288,3.576A3.259,3.259,0,0,1,45.936-2.88Zm18.84-10.032v6.384c0,2.376-1.248,3.48-2.976,3.48-1.656,0-2.616-.96-2.616-3.12v-6.744H55.44v7.3c0,3.984,2.28,5.808,5.52,5.808a5.224,5.224,0,0,0,4.008-1.728V0H68.52V-12.912Zm12.288-3.1c.864,0,1.7,1.512,3.36,1.512,1.68,0,2.76-1.368,2.808-3.432h-1.9c-.048.792-.5,1.3-1.152,1.3-.864,0-1.7-1.536-3.36-1.536-1.68,0-2.76,1.368-2.808,3.5h1.9C75.96-15.528,76.416-16.008,77.064-16.008Zm2.784,2.9a5.653,5.653,0,0,0-4.272,1.7v-1.512H72V0h3.744V-6.384c0-2.376,1.3-3.48,3.1-3.48,1.656,0,2.616.96,2.616,3.048V0H85.2V-7.392C85.2-11.328,82.9-13.1,79.848-13.1Zm13.944,0a9.926,9.926,0,0,0-5.568,1.56l1.344,2.616a6.208,6.208,0,0,1,3.72-1.2c2.016,0,2.976.936,2.976,2.544H93.288c-3.936,0-5.544,1.584-5.544,3.864,0,2.232,1.8,3.912,4.824,3.912,1.9,0,3.24-.624,3.936-1.8V0h3.5V-7.368C100.008-11.28,97.728-13.1,93.792-13.1ZM93.5-2.328c-1.32,0-2.112-.624-2.112-1.56,0-.864.552-1.512,2.3-1.512h2.568v1.32A2.759,2.759,0,0,1,93.5-2.328Zm19.44-15.48v6.264a4.961,4.961,0,0,0-3.864-1.56,6.277,6.277,0,0,0-6.456,6.648A6.277,6.277,0,0,0,109.08.192a4.967,4.967,0,0,0,4.032-1.68V0h3.576V-17.808ZM109.728-2.88a3.276,3.276,0,0,1-3.312-3.576,3.276,3.276,0,0,1,3.312-3.576,3.271,3.271,0,0,1,3.288,3.576A3.271,3.271,0,0,1,109.728-2.88ZM126.288.192c4.1,0,7.08-2.76,7.08-6.648s-2.976-6.648-7.08-6.648-7.1,2.76-7.1,6.648S122.184.192,126.288.192Zm0-3.072a3.276,3.276,0,0,1-3.312-3.576,3.276,3.276,0,0,1,3.312-3.576,3.259,3.259,0,0,1,3.288,3.576A3.259,3.259,0,0,1,126.288-2.88ZM147,.192c3.864,0,6.1-1.7,6.1-4.1,0-5.088-7.8-2.952-7.8-5.16,0-.672.72-1.2,2.4-1.2a7.415,7.415,0,0,1,3.72.96l1.248-2.664A10.617,10.617,0,0,0,147.7-13.1c-3.768,0-5.976,1.728-5.976,4.176,0,5.16,7.8,3,7.8,5.112,0,.72-.648,1.176-2.376,1.176a8.834,8.834,0,0,1-4.488-1.248L141.408-1.2A11.085,11.085,0,0,0,147,.192Zm14.544,0c4.1,0,7.08-2.76,7.08-6.648s-2.976-6.648-7.08-6.648-7.1,2.76-7.1,6.648S157.44.192,161.544.192Zm0-3.072a3.276,3.276,0,0,1-3.312-3.576,3.276,3.276,0,0,1,3.312-3.576,3.259,3.259,0,0,1,3.288,3.576A3.259,3.259,0,0,1,161.544-2.88ZM171.12,0h3.744V-17.808H171.12Zm12.432-13.1a9.926,9.926,0,0,0-5.568,1.56l1.344,2.616a6.208,6.208,0,0,1,3.72-1.2c2.016,0,2.976.936,2.976,2.544h-2.976C179.112-7.584,177.5-6,177.5-3.72c0,2.232,1.8,3.912,4.824,3.912,1.9,0,3.24-.624,3.936-1.8V0h3.5V-7.368C189.768-11.28,187.488-13.1,183.552-13.1Zm-.288,10.776c-1.32,0-2.112-.624-2.112-1.56,0-.864.552-1.512,2.3-1.512h2.568v1.32A2.759,2.759,0,0,1,183.264-2.328ZM209.688-13.1a5.806,5.806,0,0,0-4.656,2.112,4.82,4.82,0,0,0-4.248-2.112,5.229,5.229,0,0,0-4.056,1.68v-1.488h-3.576V0H196.9V-6.48c0-2.3,1.176-3.384,2.832-3.384,1.56,0,2.448.96,2.448,3.048V0h3.744V-6.48c0-2.3,1.176-3.384,2.856-3.384,1.512,0,2.448.96,2.448,3.048V0h3.744V-7.392C214.968-11.328,212.76-13.1,209.688-13.1Zm21.432,6.7a6.392,6.392,0,0,0-6.72-6.7,6.573,6.573,0,0,0-6.888,6.648c0,3.84,2.9,6.648,7.368,6.648A6.763,6.763,0,0,0,230.208-1.9l-1.992-2.16a4.377,4.377,0,0,1-3.24,1.248,3.443,3.443,0,0,1-3.7-2.592h9.768C231.072-5.712,231.12-6.12,231.12-6.408Zm-6.7-3.864a3.068,3.068,0,0,1,3.168,2.688h-6.36A3.057,3.057,0,0,1,224.424-10.272Zm17.04-2.832a5.653,5.653,0,0,0-4.272,1.7v-1.512h-3.576V0h3.744V-6.384c0-2.376,1.3-3.48,3.1-3.48,1.656,0,2.616.96,2.616,3.048V0h3.744V-7.392C246.816-11.328,244.512-13.1,241.464-13.1Zm16.056,9.84a2.523,2.523,0,0,1-1.512.48,1.506,1.506,0,0,1-1.608-1.7V-9.744h3.216v-2.88H254.4v-3.144h-3.744v3.144h-1.992v2.88h1.992v5.3c0,3.072,1.776,4.632,4.824,4.632a5.351,5.351,0,0,0,3.048-.816Zm15.36-3.144a6.392,6.392,0,0,0-6.72-6.7,6.573,6.573,0,0,0-6.888,6.648c0,3.84,2.9,6.648,7.368,6.648A6.763,6.763,0,0,0,271.968-1.9l-1.992-2.16a4.377,4.377,0,0,1-3.24,1.248,3.443,3.443,0,0,1-3.7-2.592h9.768C272.832-5.712,272.88-6.12,272.88-6.408Zm-6.7-3.864a3.068,3.068,0,0,1,3.168,2.688h-6.36A3.057,3.057,0,0,1,266.184-10.272Zm25.248-2.64v6.384c0,2.376-1.248,3.48-2.976,3.48-1.656,0-2.616-.96-2.616-3.12v-6.744H282.1v7.3c0,3.984,2.28,5.808,5.52,5.808a5.224,5.224,0,0,0,4.008-1.728V0h3.552V-12.912ZM306.5-13.1a5.653,5.653,0,0,0-4.272,1.7v-1.512h-3.576V0H302.4V-6.384c0-2.376,1.3-3.48,3.1-3.48,1.656,0,2.616.96,2.616,3.048V0h3.744V-7.392C311.856-11.328,309.552-13.1,306.5-13.1Zm13.944,0a9.926,9.926,0,0,0-5.568,1.56l1.344,2.616a6.208,6.208,0,0,1,3.72-1.2c2.016,0,2.976.936,2.976,2.544h-2.976C316.008-7.584,314.4-6,314.4-3.72c0,2.232,1.8,3.912,4.824,3.912,1.9,0,3.24-.624,3.936-1.8V0h3.5V-7.368C326.664-11.28,324.384-13.1,320.448-13.1ZM320.16-2.328c-1.32,0-2.112-.624-2.112-1.56,0-.864.552-1.512,2.3-1.512h2.568v1.32A2.759,2.759,0,0,1,320.16-2.328Zm25.9-10.584-3.7,8.784-3.576-8.784H334.92L340.344,0h3.864l5.448-12.912Zm17.424,6.5a6.392,6.392,0,0,0-6.72-6.7,6.573,6.573,0,0,0-6.888,6.648c0,3.84,2.9,6.648,7.368,6.648A6.763,6.763,0,0,0,362.568-1.9l-1.992-2.16a4.377,4.377,0,0,1-3.24,1.248,3.443,3.443,0,0,1-3.7-2.592h9.768C363.432-5.712,363.48-6.12,363.48-6.408Zm-6.7-3.864a3.068,3.068,0,0,1,3.168,2.688h-6.36A3.057,3.057,0,0,1,356.784-10.272ZM369.7-2.88l6.576-7.776v-2.256H365.136v2.88h6.408l-6.576,7.776V0h11.52V-2.88Z" transform="translate(963 3879)" fill="#fff"/>
  </g>
</svg>
